<?xml version="1.0" encoding="utf-8"?>
<!-- Generator: Adobe Illustrator 27.0.0, SVG Export Plug-In . SVG Version: 6.00 Build 0)  -->
<svg version="1.1" xmlns="http://www.w3.org/2000/svg" xmlns:xlink="http://www.w3.org/1999/xlink" x="0px" y="0px"
	 viewBox="0 0 349.5 287.4" style="enable-background:new 0 0 349.5 287.4;" xml:space="preserve">
<style type="text/css">
	.st0{fill:none;}
	.st1{fill:none;stroke:#CCCCCC;stroke-width:0.7354;stroke-linecap:round;stroke-linejoin:round;}
	.st2{fill:none;stroke:#CCCCCC;stroke-width:0.5029;stroke-linecap:round;stroke-linejoin:round;}
	.st3{fill:#AA93D0;}
	.st4{fill:none;stroke:#CCCCCC;stroke-width:0.5164;stroke-linecap:square;}
	.st5{fill:none;stroke:#CCCCCC;stroke-width:0.5165;stroke-linecap:square;}
	.st6{fill:none;stroke:#CCCCCC;stroke-width:0.4295;stroke-linecap:round;stroke-linejoin:round;}
	.st7{fill:none;stroke:#CCCCCC;stroke-width:0.4972;stroke-linecap:round;stroke-linejoin:round;}
	.st8{fill:none;stroke:#CCCCCC;stroke-width:0.4977;stroke-linecap:round;stroke-linejoin:round;}
	.st9{fill:none;stroke:#CCCCCC;stroke-width:0.4977;stroke-linecap:round;stroke-linejoin:round;stroke-dasharray:1.9683,1.9683;}
	.st10{fill:#71B0DE;}
	.st11{fill:#FFB809;}
	.st12{fill:none;stroke:#CCCCCC;stroke-width:0.5007;stroke-linecap:square;}
	.st13{fill:none;stroke:#CCCCCC;stroke-width:0.5008;stroke-linecap:square;}
	.st14{fill:#B6A3D7;}
	.st15{fill:#262626;}
	.st16{fill:#7151B7;}
	.st17{font-family:'URWDIN-Bold';}
	.st18{font-size:16px;}
	.st19{font-size:11.3806px;}
	.st20{fill:#545454;}
	.st21{font-family:'URWDIN-Regular';}
	.st22{font-size:11.5539px;}
	.st23{font-size:10.5035px;}
	.st24{font-size:10px;}
	.st25{fill:none;stroke:#CCCCCC;stroke-width:0.6306;stroke-linecap:round;stroke-linejoin:round;stroke-miterlimit:10;}
	.st26{fill:none;stroke:#CCCCCC;stroke-width:0.4835;stroke-linecap:round;stroke-linejoin:round;stroke-miterlimit:10;}
	.st27{fill:#B4A0D6;}
	.st28{fill:#9275C3;}
	.st29{fill:none;stroke:#CCCCCC;stroke-width:0.5076;stroke-linecap:square;stroke-miterlimit:10;}
	.st30{fill:none;stroke:#CCCCCC;stroke-width:0.5;stroke-linecap:square;stroke-miterlimit:10;}
	.st31{fill:none;stroke:#CCCCCC;stroke-width:0.5083;stroke-linecap:square;stroke-miterlimit:10;}
	.st32{fill:none;stroke:#CCCCCC;stroke-width:0.5086;stroke-linecap:square;stroke-miterlimit:10;}
	.st33{fill:none;stroke:#CCCCCC;stroke-width:0.4856;stroke-linecap:square;stroke-miterlimit:10;}
	.st34{fill:none;stroke:#CCCCCC;stroke-width:0.4835;stroke-linecap:square;stroke-miterlimit:10;}
	.st35{fill:none;stroke:#FFFFFF;stroke-width:2.1007;}
	.st36{font-family:'URWDIN-Medium';}
	.st37{font-size:11.1674px;}
	.st38{fill:#FFFFFF;}
	.st39{font-family:'URWDIN-Demi';}
	.st40{font-size:11px;}
	.st41{fill:none;stroke:#CCCCCC;stroke-width:0.5234;stroke-linecap:round;stroke-linejoin:round;stroke-miterlimit:10;}
	.st42{fill:none;stroke:#CCCCCC;stroke-width:0.491;stroke-linecap:round;stroke-linejoin:round;stroke-miterlimit:10;}
	.st43{fill:#66A9DC;}
	.st44{fill:none;stroke:#CCCCCC;stroke-width:0.491;stroke-linecap:square;stroke-miterlimit:10;}
	.st45{fill:none;stroke:#CCCCCC;stroke-width:0.537;stroke-linecap:round;stroke-linejoin:round;stroke-miterlimit:10;}
	.st46{fill:none;stroke:#CCCCCC;stroke-width:0.5632;stroke-linecap:round;stroke-linejoin:round;stroke-miterlimit:10;}
	.st47{fill:none;stroke:#CCCCCC;stroke-width:0.6086;stroke-linecap:round;stroke-linejoin:round;stroke-miterlimit:10;}
	.st48{fill:none;stroke:#CCCCCC;stroke-width:0.6095;stroke-linecap:square;stroke-miterlimit:10;}
</style>
<g id="Layer_1">
</g>
<g id="Layer_2">
	<text transform="matrix(1 0 0 1 15.4226 32.8685)" class="st16 st17 st18">East New York (2016)</text>
	<text transform="matrix(1 0 0 1 15.4226 52.0687)" class="st16 st17 st18">CEQR Estimates vs. Actual Development</text>
	<text transform="matrix(0.583 0 0 0.583 303.4187 43.7406)" class="st16 st17 st18">a</text>
	<text transform="matrix(1 0 0 1 308.4177 52.0687)" class="st16 st17 st18"> </text>
	<text transform="matrix(1 0 0 1 17.6421 74.3266)" class="st16 st17 st19">Dwelling Units</text>
	<text transform="matrix(1 0 0 1 16.5018 210.5554)" class="st20 st21 st22">Number of Units</text>
	<text transform="matrix(1 0 0 1 18.0277 196.074)" class="st20 st21 st23">0 </text>
	<text transform="matrix(1 0 0 1 51.2147 196.7112)" class="st20 st21 st23">1,000 </text>
	<text transform="matrix(1 0 0 1 96.4921 196.7112)" class="st20 st21 st23">2,000 </text>
	<text transform="matrix(1 0 0 1 144.2977 196.7112)" class="st20 st21 st23">3,000 </text>
	<text transform="matrix(1 0 0 1 189.9969 196.7112)" class="st20 st21 st23">4,000 </text>
	<text transform="matrix(1 0 0 1 236.077 196.7112)" class="st20 st21 st23">5,000 </text>
	<text transform="matrix(1 0 0 1 281.5687 196.7112)" class="st20 st21 st23">6,000 </text>
	<rect x="14.7" y="230.9" class="st0" width="319.9" height="38.7"/>
	<text transform="matrix(0.583 0 0 0.583 14.7237 234.6733)" class="st20 st21 st24">a</text>
	<text transform="matrix(1 0 0 1 17.7842 238.0033)" class="st20 st21 st24">Based on new construction overall. </text>
	<text transform="matrix(0.583 0 0 0.583 173.9825 234.6733)" class="st20 st21 st24">b</text>
	<text transform="matrix(1 0 0 1 177.2764 238.0033)" class="st20 st21 st24">Affordable units counted toward </text>
	<text transform="matrix(1 0 0 1 14.7237 250.0033)" class="st20 st21 st24">Housing NY since 2014. Sources: FEIS (DCP, 2016) PLUTO 22v3 (DCP, </text>
	<text transform="matrix(1 0 0 1 14.7237 262.0034)" class="st20 st21 st24">2022), Affordable Housing Production (HPD, 2022) </text>
	<rect x="17" y="80.4" class="st0" width="315.9" height="104.7"/>
	<rect x="17" y="80.4" class="st0" width="315.9" height="104.7"/>
	<line class="st25" x1="17" y1="80.4" x2="17" y2="185.1"/>
	<rect x="17" y="80.4" class="st0" width="315.9" height="104.7"/>
	<line class="st26" x1="63.4" y1="80.4" x2="63.4" y2="185.1"/>
	<rect x="17" y="80.4" class="st0" width="315.9" height="104.7"/>
	<line class="st26" x1="109.7" y1="80.4" x2="109.7" y2="185.1"/>
	<rect x="17" y="80.4" class="st0" width="315.9" height="104.7"/>
	<line class="st26" x1="156" y1="80.4" x2="156" y2="185.1"/>
	<rect x="17" y="80.4" class="st0" width="315.9" height="104.7"/>
	<line class="st26" x1="202.4" y1="80.4" x2="202.4" y2="185.1"/>
	<rect x="17" y="80.4" class="st0" width="315.9" height="104.7"/>
	<line class="st26" x1="248.7" y1="80.4" x2="248.7" y2="185.1"/>
	<rect x="17" y="80.4" class="st0" width="315.9" height="104.7"/>
	<line class="st26" x1="295" y1="80.4" x2="295" y2="185.1"/>
	<rect x="17" y="80.4" class="st0" width="315.9" height="104.7"/>
	<rect x="17" y="137.5" class="st27" width="137.4" height="28.4"/>
	<rect x="17" y="80.4" class="st0" width="315.9" height="104.7"/>
	<rect x="17" y="85.2" class="st27" width="70" height="28.4"/>
	<rect x="17" y="80.4" class="st0" width="315.9" height="104.7"/>
	<rect x="155.2" y="137.5" class="st28" width="162.7" height="28.4"/>
	<rect x="17" y="80.4" class="st0" width="315.9" height="104.7"/>
	<rect x="87.9" y="85.2" class="st28" width="30.9" height="28.4"/>
	<rect x="17" y="80.4" class="st0" width="315.9" height="104.7"/>
	<line class="st29" x1="17" y1="80" x2="332.9" y2="80"/>
	<line class="st29" x1="17" y1="185.6" x2="332.9" y2="185.6"/>
	<line class="st33" x1="17" y1="80.4" x2="17" y2="185.1"/>
	<line class="st34" x1="332.9" y1="80.4" x2="332.9" y2="185.1"/>
	<g>
		<rect x="19.1" y="169.8" class="st0" width="302.8" height="14.7"/>
		<text transform="matrix(1 0 0 1 19.0892 177.7702)" class="st35 st36 st37">By 2030 (CEQR Est.)</text>
		<rect x="19.1" y="169.8" class="st0" width="302.8" height="14.7"/>
		<text transform="matrix(1 0 0 1 19.0892 177.7702)" class="st16 st36 st37">By 2030 (CEQR Est.)</text>
		<rect x="19.1" y="169.8" class="st0" width="302.8" height="14.7"/>
		<text transform="matrix(1 0 0 1 19.0892 177.7702)" class="st16 st36 st37">By 2030 (CEQR Est.)</text>
	</g>
	<g>
		<rect x="19.6" y="117.4" class="st0" width="302.8" height="14.7"/>
		<text transform="matrix(1 0 0 1 19.5531 125.3313)" class="st35 st36 st37">By 2022 (Actual)</text>
		<rect x="19.6" y="117.4" class="st0" width="302.8" height="14.7"/>
		<text transform="matrix(1 0 0 1 19.5531 125.3313)" class="st16 st36 st37">By 2022 (Actual)</text>
		<rect x="19.6" y="117.4" class="st0" width="302.8" height="14.7"/>
		<text transform="matrix(1 0 0 1 19.5531 125.3313)" class="st16 st36 st37">By 2022 (Actual)</text>
	</g>
	<text transform="matrix(1 0 0 1 163.3263 154.7321)" class="st38 st39 st40">Affordable</text>
	<text transform="matrix(0.583 0 0 0.583 215.5094 151.069)" class="st38 st39 st40">b</text>
	<text transform="matrix(1 0 0 1 219.1457 154.7321)" class="st38 st39 st40"> </text>
	<text transform="matrix(1 0 0 1 86.731 154.7321)" class="st38 st36 st40">Market Rate </text>
</g>
</svg>
