<?xml version="1.0" encoding="utf-8"?>
<!-- Generator: Adobe Illustrator 27.0.0, SVG Export Plug-In . SVG Version: 6.00 Build 0)  -->
<svg version="1.1" xmlns="http://www.w3.org/2000/svg" xmlns:xlink="http://www.w3.org/1999/xlink" x="0px" y="0px"
	 viewBox="0 0 349.5 287.4" style="enable-background:new 0 0 349.5 287.4;" xml:space="preserve">
<style type="text/css">
	.st0{enable-background:new    ;}
	.st1{fill:#7151B7;}
	.st2{font-family:'URWDIN-Bold';}
	.st3{font-size:16px;}
	.st4{fill:none;stroke:#CCCCCC;stroke-width:0.4835;stroke-linecap:round;stroke-linejoin:round;stroke-miterlimit:10;}
	.st5{fill:none;}
	.st6{fill:none;stroke:#CCCCCC;stroke-width:0.5076;stroke-linecap:square;stroke-miterlimit:10;}
	.st7{fill:none;stroke:#CCCCCC;stroke-width:0.4856;stroke-linecap:square;stroke-miterlimit:10;}
	.st8{fill:none;stroke:#CCCCCC;stroke-width:0.4835;stroke-linecap:square;stroke-miterlimit:10;}
	.st9{fill:#B4A0D6;}
	.st10{fill:#9275C3;}
	.st11{fill:#FFFFFF;}
	.st12{font-family:'URWDIN-Demi';}
	.st13{font-size:11px;}
	.st14{fill:#545454;}
</style>
<g id="Layer_1">
	<g id="Layer_1_00000172432133822155342430000000070773593163023024_">
	</g>
	<g class="st0">
		<path class="st1" d="M16.7,21.4h7.2v2h-4.8v2.7h4v2h-4v2.8H24v2h-7.3V21.4z"/>
		<path class="st1" d="M30.2,27.5c0-0.9-0.4-1.3-1.2-1.3c-0.6,0-1.1,0.3-1.6,0.8l-1.6-1.1c0.7-1,1.9-1.5,3.4-1.5s2.6,0.5,3,1.5
			c0.2,0.5,0.3,1,0.3,2.1v4.9h-1.8l-0.1-0.4C30,32.9,29.4,33,28.4,33c-2,0-2.8-0.7-2.8-2.6c0-2,0.8-2.6,3.1-2.6h1.5V27.5z
			 M28.9,29.3c-0.9,0-1.2,0.3-1.2,1s0.3,0.9,1.2,0.9c0.9,0,1.2-0.3,1.2-1.3v-0.7h-1.2V29.3z"/>
		<path class="st1" d="M35.7,30.4c0.4,0.7,0.8,0.9,1.7,0.9c1,0,1.5-0.3,1.5-0.9c0-0.4-0.3-0.6-1-0.7c-1.5-0.2-1.8-0.2-2.4-0.5
			c-0.8-0.4-1.1-1-1.1-2c0-1.7,1.1-2.7,3.1-2.7c1.6,0,2.7,0.5,3.4,1.7l-1.7,1c-0.4-0.7-0.8-0.9-1.5-0.9s-1.1,0.3-1.1,0.8
			s0.3,0.6,1.3,0.7c2.5,0.2,3.2,0.8,3.2,2.6s-1.1,2.7-3.6,2.7c-1.8,0-2.9-0.6-3.5-1.7L35.7,30.4z"/>
		<path class="st1" d="M42.2,26.4v-1.8h0.9l0.1-2.3h2.2v2.3H47v1.8h-1.6v2.9c0,1.3,0.3,1.7,1.4,1.7H47v1.9h-0.3
			c-3.1,0-3.7-0.6-3.7-3.8v-2.7C43,26.4,42.2,26.4,42.2,26.4z"/>
		<path class="st1" d="M52,21.4h2.4l4,7.3v-7.3h2.4v11.4h-2.4l-4-7.3v7.3H52V21.4z"/>
		<path class="st1" d="M65.2,29.5c0,1.1,0.5,1.7,1.5,1.7c0.8,0,1.2-0.2,1.6-0.9l1.7,1c-0.7,1.2-1.7,1.7-3.6,1.7
			c-2.6,0-3.6-1.1-3.6-4v-0.5c0-1.5,0.2-2.3,0.7-3c0.6-0.8,1.5-1.2,2.9-1.2c2.6,0,3.6,1.2,3.6,4.1v0.8h-4.9v0.3H65.2z M67.9,27.7
			v-0.2c0-0.9-0.5-1.5-1.4-1.5c-0.8,0-1.4,0.5-1.4,1.5v0.2H67.9z"/>
		<path class="st1" d="M71.1,24.6h2.4l1.2,5.5l1.5-5.5h1.7l1.5,5.5l1.2-5.5H83l-2.4,8.3h-2L77,28.1l-1.5,4.8h-2L71.1,24.6z"/>
		<path class="st1" d="M89.6,28.8l-3.5-7.3h2.6l2.1,4.9l2.1-4.9h2.6L92,28.8v4.1h-2.5v-4.1H89.6z"/>
		<path class="st1" d="M95.5,28.1c0-2.6,1.1-3.7,3.7-3.7s3.6,1.1,3.6,3.7v1.2c0,2.6-1.1,3.7-3.7,3.7s-3.6-1.1-3.6-3.7V28.1z
			 M100.5,28.3c0-1.5-0.4-2-1.3-2c-1,0-1.3,0.6-1.3,2v0.9c0,1.5,0.4,2,1.3,2s1.3-0.6,1.3-2V28.3z"/>
		<path class="st1" d="M104.7,24.6h1.8l0.3,0.5c0.6-0.6,0.9-0.7,1.6-0.7c0.6,0,1.1,0.1,1.9,0.6l-1,1.9c-0.4-0.3-0.7-0.5-1.1-0.5
			c-0.8,0-1.1,0.7-1.1,2.5v4h-2.3v-8.3H104.7z"/>
		<path class="st1" d="M111.5,21.4h2.3V28l2.6-3.5h2.6l-2.9,3.5l3,4.8h-2.5l-1.8-3.1l-1,1.3v1.8h-2.3
			C111.5,32.8,111.5,21.4,111.5,21.4z"/>
		<path class="st1" d="M127,35c-2.2-2.9-2.9-4.8-2.9-7.6s0.7-4.7,2.9-7.6l1.7,1.1c-0.6,1.1-1,1.8-1.4,2.6c-0.5,1.1-0.8,2.6-0.8,3.9
			c0,1.4,0.3,2.9,0.9,4.2c0.4,0.8,0.7,1.4,1.3,2.4L127,35z"/>
		<path class="st1" d="M130,31.3l3.2-3.8c0.4-0.5,1.1-1.5,1.3-1.9s0.3-0.8,0.3-1.3c0-0.7-0.4-1-1.1-1c-0.6,0-0.9,0.2-1.1,0.7
			c-0.2,0.3-0.2,0.5-0.3,0.9l-2.3-0.2c0.1-2.2,1.3-3.3,3.7-3.3c2.2,0,3.4,1.1,3.4,3.2c0,0.9-0.2,1.6-0.8,2.5
			c-0.4,0.7-0.4,0.7-1.7,2.2l-1.5,1.7h4v2H130V31.3z"/>
		<path class="st1" d="M138.8,25.7c0-1.7,0.2-2.6,0.8-3.3c0.7-0.8,1.5-1.2,2.9-1.2c1.5,0,2.4,0.4,3,1.3c0.5,0.7,0.6,1.6,0.6,3.1v2.8
			c0,1.7-0.2,2.6-0.8,3.3c-0.7,0.8-1.5,1.2-2.9,1.2c-1.5,0-2.4-0.4-3-1.3c-0.4-0.7-0.6-1.6-0.6-3.1V25.7z M143.7,26
			c0-2.1-0.3-2.7-1.2-2.7s-1.2,0.7-1.2,2.7v2.4c0,2,0.3,2.7,1.2,2.7s1.2-0.6,1.2-2.7V26z"/>
		<path class="st1" d="M150.1,24l-1.8,0.7l-0.8-1.9l3.4-1.4h1.6v11.4H150V24H150.1z"/>
		<path class="st1" d="M160,25.5h0.4c0.5,0,1.4,0.3,1.9,0.6c0.8,0.6,1.1,1.4,1.1,3.1c0,1.6-0.2,2.4-0.9,3c-0.6,0.5-1.5,0.8-2.7,0.8
			c-1.3,0-2.3-0.3-2.9-1c-0.5-0.5-0.7-1.3-0.7-2.8s0.2-2.3,1-3.6l2.4-4.2h2.8L160,25.5C160,25.5,160,25.5,160,25.5z M158.6,29.2
			c0,1.4,0.3,1.8,1.2,1.8s1.2-0.5,1.2-1.8s-0.3-1.8-1.1-1.8C158.8,27.4,158.6,27.8,158.6,29.2z"/>
		<path class="st1" d="M166.5,19.7c2.2,2.9,2.9,4.8,2.9,7.6s-0.7,4.8-2.9,7.6l-1.7-1.1c0.6-1,1-1.8,1.4-2.6c0.5-1.1,0.8-2.6,0.8-3.9
			c0-1.4-0.3-2.9-0.9-4.2c-0.4-0.8-0.7-1.4-1.3-2.4L166.5,19.7z"/>
	</g>
	<g class="st0">
		<path class="st1" d="M24.7,49c0,1-0.3,1.6-0.8,2.2c-0.7,0.7-1.8,1.1-3.3,1.1c-1.6,0-2.7-0.4-3.4-1.4c-0.5-0.7-0.8-1.6-0.8-3.2
			v-2.5c0-1.8,0.2-2.7,0.9-3.4c0.8-0.8,1.7-1.2,3.2-1.2c2.6,0,3.8,1.1,4,3.4l-2.2,0c-0.1-1.1-0.6-1.6-1.7-1.6
			c-1.3,0-1.7,0.7-1.7,2.8v2.1c0,2.2,0.4,2.8,1.7,2.8c1.1,0,1.6-0.5,1.8-1.6L24.7,49z"/>
		<path class="st1" d="M26.6,40.6h7.2v2H29v2.7h4v2h-4v2.8h4.8v2h-7.3V40.6H26.6z"/>
		<path class="st1" d="M42.7,51.7c-0.7,0.4-1.5,0.6-2.7,0.6c-1.7,0-2.8-0.4-3.6-1.4c-0.6-0.7-0.8-1.6-0.8-3.2V45
			c0-1.7,0.3-2.6,1-3.4c0.8-0.8,1.7-1.2,3.4-1.2s2.8,0.4,3.6,1.4c0.6,0.7,0.8,1.6,0.8,3.2v2.7c0,1.3-0.1,1.9-0.4,2.6l1,0.8l-1.2,1.4
			L42.7,51.7z M39.3,49l1.2-1.4l1.3,1c0-0.3,0.1-0.6,0.1-1.2v-2.3c0-2.1-0.5-2.8-1.9-2.8s-1.9,0.7-1.9,2.8v2.3
			c0,2.1,0.5,2.8,1.9,2.8c0.3,0,0.5,0,0.8-0.1L39.3,49z"/>
		<path class="st1" d="M49.2,52.1h-2.5V40.6H51c1.5,0,2.4,0.2,3,0.8s0.8,1.3,0.8,2.5c0,2-0.6,2.9-2.1,3.3l2.5,4.7h-2.7l-2.1-4.5
			h-1.2V52.1z M50.9,45.6c1.1,0,1.6-0.4,1.6-1.5s-0.4-1.5-1.6-1.5h-1.7v3H50.9z"/>
		<path class="st1" d="M60.2,40.6h7.2v2h-4.8v2.7h4v2h-4v2.8h4.8v2h-7.3L60.2,40.6L60.2,40.6z"/>
		<path class="st1" d="M70.6,49.6c0.4,0.7,0.8,0.9,1.7,0.9c1,0,1.5-0.3,1.5-0.9c0-0.4-0.3-0.6-1-0.7c-1.5-0.2-1.8-0.2-2.4-0.5
			c-0.8-0.4-1.1-1-1.1-2c0-1.7,1.1-2.7,3.1-2.7c1.6,0,2.7,0.5,3.4,1.7l-1.7,1c-0.4-0.7-0.8-0.9-1.5-0.9s-1.1,0.3-1.1,0.8
			s0.3,0.6,1.3,0.7c2.5,0.2,3.2,0.8,3.2,2.6s-1.1,2.7-3.6,2.7c-1.8,0-2.9-0.6-3.5-1.7L70.6,49.6z"/>
		<path class="st1" d="M77.2,45.6v-1.8h0.9l0.1-2.3h2.2v2.3H82v1.8h-1.6v2.9c0,1.3,0.3,1.7,1.4,1.7H82v1.9h-0.3
			c-3.1,0-3.7-0.6-3.7-3.8v-2.7C78,45.6,77.2,45.6,77.2,45.6z"/>
		<path class="st1" d="M83.6,40.5H86v2.2h-2.3L83.6,40.5L83.6,40.5z M83.6,43.8H86v8.3h-2.3L83.6,43.8L83.6,43.8z"/>
		<path class="st1" d="M88.1,43.8h1.8l0.2,0.6c0.4-0.5,1.1-0.8,2-0.8s1.7,0.3,2.2,0.9c0.5-0.6,1.2-0.9,2.2-0.9
			c1.4,0,2.3,0.5,2.7,1.6c0.2,0.4,0.2,1.1,0.2,2.1V52H97v-4.5c0-1.4-0.3-2-1-2c-0.8,0-1.1,0.6-1.1,2.1V52h-2.3v-4.5c0-1.5-0.3-2-1-2
			c-0.8,0-1.1,0.6-1.1,2.2V52h-2.3L88.1,43.8L88.1,43.8z"/>
		<path class="st1" d="M105.6,46.7c0-0.9-0.4-1.3-1.2-1.3c-0.6,0-1.1,0.3-1.6,0.8l-1.6-1.1c0.7-1,1.9-1.5,3.4-1.5s2.6,0.5,3,1.5
			c0.2,0.5,0.3,1,0.3,2.1v4.9h-1.8l-0.1-0.4c-0.5,0.4-1.1,0.6-2.2,0.6c-2,0-2.8-0.7-2.8-2.6c0-2,0.8-2.6,3.1-2.6h1.5
			C105.6,47.1,105.6,46.7,105.6,46.7z M104.4,48.5c-0.9,0-1.2,0.3-1.2,1s0.3,0.9,1.2,0.9c0.9,0,1.2-0.3,1.2-1.3v-0.7L104.4,48.5
			L104.4,48.5z"/>
		<path class="st1" d="M109.4,45.6v-1.8h0.9l0.1-2.3h2.2v2.3h1.6v1.8h-1.6v2.9c0,1.3,0.3,1.7,1.4,1.7h0.2v1.9H114
			c-3.1,0-3.7-0.6-3.7-3.8v-2.7C110.3,45.6,109.4,45.6,109.4,45.6z"/>
		<path class="st1" d="M117.9,48.7c0,1.1,0.5,1.7,1.5,1.7c0.8,0,1.2-0.2,1.6-0.9l1.7,1c-0.7,1.2-1.7,1.7-3.6,1.7
			c-2.6,0-3.6-1.1-3.6-4v-0.5c0-1.5,0.2-2.3,0.7-3c0.6-0.8,1.5-1.2,2.9-1.2c2.6,0,3.6,1.2,3.6,4.1v0.8h-4.9v0.3H117.9z M120.6,46.9
			v-0.2c0-0.9-0.5-1.5-1.4-1.5c-0.8,0-1.4,0.5-1.4,1.5v0.2H120.6z"/>
		<path class="st1" d="M125.8,49.6c0.4,0.7,0.8,0.9,1.7,0.9c1,0,1.5-0.3,1.5-0.9c0-0.4-0.3-0.6-1-0.7c-1.5-0.2-1.8-0.2-2.4-0.5
			c-0.8-0.4-1.1-1-1.1-2c0-1.7,1.1-2.7,3.1-2.7c1.6,0,2.7,0.5,3.4,1.7l-1.7,1c-0.4-0.7-0.8-0.9-1.5-0.9s-1.1,0.3-1.1,0.8
			s0.3,0.6,1.3,0.7c2.5,0.2,3.2,0.8,3.2,2.6s-1.1,2.7-3.6,2.7c-1.8,0-2.9-0.6-3.5-1.7L125.8,49.6z"/>
		<path class="st1" d="M135.1,43.8h2.4l1.6,5.5l1.6-5.5h2.4l-2.8,8.3H138L135.1,43.8z"/>
		<path class="st1" d="M145.2,49.6c0.4,0.7,0.8,0.9,1.7,0.9c1,0,1.5-0.3,1.5-0.9c0-0.4-0.3-0.6-1-0.7c-1.5-0.2-1.8-0.2-2.4-0.5
			c-0.8-0.4-1.1-1-1.1-2c0-1.7,1.1-2.7,3.1-2.7c1.6,0,2.7,0.5,3.4,1.7l-1.7,1c-0.4-0.7-0.8-0.9-1.5-0.9s-1.1,0.3-1.1,0.8
			s0.3,0.6,1.3,0.7c2.5,0.2,3.2,0.8,3.2,2.6s-1.1,2.7-3.6,2.7c-1.8,0-2.9-0.6-3.5-1.7L145.2,49.6z"/>
		<path class="st1" d="M152.4,49.8h2.5V52h-2.5V49.8z"/>
		<path class="st1" d="M162.2,49.9l-0.7,2.1h-2.7l4.1-11.4h2.4l4.1,11.4h-2.7l-0.7-2.1H162.2z M164.3,43.5l-1.4,4.5h2.8L164.3,43.5z
			"/>
		<path class="st1" d="M177,50.5c-0.7,1.2-1.7,1.7-3.3,1.7c-1.3,0-2.4-0.5-2.9-1.4c-0.4-0.6-0.6-1.5-0.6-2.7v-0.4
			c0-1.4,0.2-2.3,0.7-3c0.6-0.8,1.5-1.2,2.7-1.2c1.6,0,2.6,0.5,3.2,1.7l-1.7,1c-0.4-0.6-0.7-0.8-1.3-0.8c-0.9,0-1.3,0.7-1.3,2.1v0.9
			c0,1.3,0.4,2,1.3,2c0.6,0,1-0.2,1.4-0.8L177,50.5z"/>
		<path class="st1" d="M178,45.6v-1.8h0.9l0.1-2.3h2.2v2.3h1.6v1.8h-1.6v2.9c0,1.3,0.3,1.7,1.4,1.7h0.2v1.9h-0.3
			c-3.1,0-3.7-0.6-3.7-3.8v-2.7C178.8,45.6,178,45.6,178,45.6z"/>
		<path class="st1" d="M186.7,43.8v4.5c0,1.5,0.3,2,1.1,2s1.1-0.6,1.1-2.2v-4.3h2.3v8.3h-1.6l-0.3-0.7c-0.4,0.6-1,0.9-2.1,0.9
			c-1.4,0-2.3-0.5-2.7-1.6c-0.2-0.4-0.2-1.1-0.2-2.1v-4.7h2.4V43.8z"/>
		<path class="st1" d="M197.5,46.7c0-0.9-0.4-1.3-1.2-1.3c-0.6,0-1.1,0.3-1.6,0.8l-1.6-1.1c0.7-1,1.9-1.5,3.4-1.5s2.6,0.5,3,1.5
			c0.2,0.5,0.3,1,0.3,2.1v4.9H198l-0.1-0.4c-0.5,0.4-1.1,0.6-2.2,0.6c-2,0-2.8-0.7-2.8-2.6c0-2,0.8-2.6,3.1-2.6h1.5L197.5,46.7
			L197.5,46.7z M196.3,48.5c-0.9,0-1.2,0.3-1.2,1s0.3,0.9,1.2,0.9s1.2-0.3,1.2-1.3v-0.7L196.3,48.5L196.3,48.5z"/>
		<path class="st1" d="M204.3,40.6v7.9c0,1.3,0.3,1.7,1.4,1.7h0.2v1.9h-0.3c-3,0-3.7-0.7-3.7-3.8v-7.6h2.4V40.6z"/>
		<path class="st1" d="M210.4,40.6h4c3.1,0,4.5,1.4,4.4,4.5v2.5c0.1,3.1-1.3,4.5-4.4,4.5h-4V40.6z M214,50.1c1.9,0,2.4-0.5,2.4-2.7
			v-2.1c0-2.2-0.5-2.7-2.4-2.7h-1.1v7.5H214z"/>
		<path class="st1" d="M223,48.7c0,1.1,0.5,1.7,1.5,1.7c0.8,0,1.2-0.2,1.6-0.9l1.7,1c-0.7,1.2-1.7,1.7-3.6,1.7c-2.6,0-3.6-1.1-3.6-4
			v-0.5c0-1.5,0.2-2.3,0.7-3c0.6-0.8,1.5-1.2,2.9-1.2c2.6,0,3.6,1.2,3.6,4.1v0.8H223V48.7z M225.7,46.9v-0.2c0-0.9-0.5-1.5-1.4-1.5
			c-0.8,0-1.4,0.5-1.4,1.5v0.2H225.7z"/>
		<path class="st1" d="M228.8,43.8h2.4l1.6,5.5l1.6-5.5h2.4l-2.8,8.3h-2.3L228.8,43.8z"/>
		<path class="st1" d="M239.9,48.7c0,1.1,0.5,1.7,1.5,1.7c0.8,0,1.2-0.2,1.6-0.9l1.7,1c-0.7,1.2-1.7,1.7-3.6,1.7
			c-2.6,0-3.6-1.1-3.6-4v-0.5c0-1.5,0.2-2.3,0.7-3c0.6-0.8,1.5-1.2,2.9-1.2c2.6,0,3.6,1.2,3.6,4.1v0.8h-4.9v0.3H239.9z M242.6,46.9
			v-0.2c0-0.9-0.5-1.5-1.4-1.5c-0.8,0-1.4,0.5-1.4,1.5v0.2H242.6z"/>
		<path class="st1" d="M248.9,40.6v7.9c0,1.3,0.3,1.7,1.4,1.7h0.2v1.9h-0.3c-3,0-3.7-0.7-3.7-3.8v-7.6h2.4V40.6z"/>
		<path class="st1" d="M251.4,47.3c0-2.6,1.1-3.7,3.7-3.7s3.6,1.1,3.6,3.7v1.2c0,2.6-1.1,3.7-3.7,3.7c-2.6,0-3.6-1.1-3.6-3.7
			L251.4,47.3L251.4,47.3z M256.3,47.5c0-1.5-0.4-2-1.3-2c-1,0-1.3,0.6-1.3,2v0.9c0,1.5,0.4,2,1.3,2c0.9,0,1.3-0.6,1.3-2V47.5z"/>
		<path class="st1" d="M260.6,43.8h1.8l0.2,0.4c0.6-0.4,1.2-0.6,2-0.6c2.2,0,3.1,1.1,3.1,3.7v1.2c0,2.6-0.9,3.7-3.1,3.7
			c-0.6,0-1.1-0.1-1.7-0.4v3.9h-2.3V43.8z M265.4,47.5c0-1.4-0.4-2-1.2-2c-0.9,0-1.3,0.5-1.3,1.6v1.8c0,1.1,0.4,1.6,1.3,1.6
			s1.2-0.6,1.2-2V47.5z"/>
		<path class="st1" d="M269.6,43.8h1.8l0.2,0.6c0.4-0.5,1.1-0.8,2-0.8s1.7,0.3,2.2,0.9c0.5-0.6,1.2-0.9,2.2-0.9
			c1.4,0,2.3,0.5,2.7,1.6c0.2,0.4,0.2,1.1,0.2,2.1V52h-2.3v-4.5c0-1.4-0.3-2-1-2c-0.8,0-1.1,0.6-1.1,2.1V52h-2.3v-4.5
			c0-1.5-0.3-2-1-2c-0.8,0-1.1,0.6-1.1,2.2V52h-2.3v-8.2H269.6z"/>
		<path class="st1" d="M285.1,48.7c0,1.1,0.5,1.7,1.5,1.7c0.8,0,1.2-0.2,1.6-0.9l1.7,1c-0.7,1.2-1.7,1.7-3.6,1.7
			c-2.6,0-3.6-1.1-3.6-4v-0.5c0-1.5,0.2-2.3,0.7-3c0.6-0.8,1.5-1.2,2.9-1.2c2.6,0,3.6,1.2,3.6,4.1v0.8H285L285.1,48.7L285.1,48.7z
			 M287.8,46.9v-0.2c0-0.9-0.5-1.5-1.4-1.5c-0.8,0-1.4,0.5-1.4,1.5v0.2H287.8z"/>
		<path class="st1" d="M291.8,43.8h1.7l0.2,0.6c0.6-0.6,1.2-0.8,2.2-0.8c1.4,0,2.3,0.6,2.7,1.6c0.2,0.5,0.2,1.1,0.2,2.1V52h-2.3
			v-4.5c0-1.5-0.3-2-1.2-2c-0.9,0-1.2,0.6-1.2,2.2V52h-2.3L291.8,43.8L291.8,43.8z"/>
		<path class="st1" d="M300.2,45.6v-1.8h0.9l0.1-2.3h2.2v2.3h1.6v1.8h-1.6v2.9c0,1.3,0.3,1.7,1.4,1.7h0.2v1.9h-0.3
			c-3.1,0-3.7-0.6-3.7-3.8v-2.7C301,45.6,300.2,45.6,300.2,45.6z"/>
	</g>
	<g class="st0">
		<path class="st1" d="M308.1,38.3c0-0.5-0.2-0.7-0.7-0.7c-0.4,0-0.7,0.1-0.9,0.5l-0.9-0.7c0.4-0.6,1.1-0.9,2-0.9s1.5,0.3,1.8,0.9
			c0.1,0.3,0.2,0.6,0.2,1.2v2.9h-1.1l-0.1-0.3c-0.3,0.3-0.7,0.4-1.3,0.4c-1.2,0-1.6-0.4-1.6-1.5c0-1.2,0.4-1.5,1.8-1.5h0.9
			L308.1,38.3L308.1,38.3z M307.4,39.3c-0.5,0-0.7,0.2-0.7,0.6c0,0.4,0.2,0.5,0.7,0.5s0.7-0.2,0.7-0.8v-0.4h-0.7V39.3z"/>
	</g>
	<text transform="matrix(1 0 0 1 308.4802 50.7734)" class="st1 st2 st3"> </text>
	<g class="st0">
		<path class="st1" d="M18.6,66.2h2.8c2.2,0,3.2,1,3.1,3.2v1.8c0.1,2.2-0.9,3.2-3.1,3.2h-2.8V66.2z M21.1,72.9
			c1.3,0,1.7-0.4,1.7-1.9v-1.5c0-1.5-0.4-1.9-1.7-1.9h-0.8v5.3H21.1z"/>
		<path class="st1" d="M25.5,68.4h1.7l0.8,3.9l1.1-3.9h1.2l1.1,3.9l0.8-3.9h1.7l-1.7,5.9h-1.4l-1-3.4l-1,3.4h-1.4L25.5,68.4z"/>
		<path class="st1" d="M36.3,71.9c0,0.8,0.4,1.2,1.1,1.2c0.5,0,0.9-0.2,1.2-0.6l1.2,0.7c-0.5,0.9-1.2,1.2-2.6,1.2
			c-1.8,0-2.6-0.8-2.6-2.8v-0.4c0-1,0.1-1.7,0.5-2.1c0.4-0.6,1.1-0.8,2.1-0.8c1.8,0,2.6,0.8,2.6,2.9v0.6h-3.5V71.9z M38.3,70.7
			L38.3,70.7c0-0.8-0.4-1.1-1-1.1s-1,0.4-1,1v0.1H38.3z"/>
		<path class="st1" d="M42.7,66.2v5.6c0,0.9,0.2,1.2,1,1.2h0.2v1.3h-0.2c-2.1,0-2.6-0.5-2.6-2.7v-5.4H42.7z"/>
		<path class="st1" d="M46.3,66.2v5.6c0,0.9,0.2,1.2,1,1.2h0.2v1.3h-0.2c-2.1,0-2.6-0.5-2.6-2.7v-5.4H46.3z"/>
		<path class="st1" d="M48.2,66.1h1.7v1.6h-1.7V66.1z M48.2,68.4h1.7v5.9h-1.7V68.4z"/>
		<path class="st1" d="M51.4,68.4h1.2l0.1,0.4c0.4-0.4,0.8-0.6,1.5-0.6c1,0,1.7,0.4,1.9,1.1c0.1,0.3,0.2,0.8,0.2,1.5v3.4h-1.7V71
			c0-1-0.2-1.4-0.8-1.4s-0.9,0.4-0.9,1.6v3.1h-1.7v-5.9H51.4z"/>
		<path class="st1" d="M61.2,74.1c-0.4,0.2-0.7,0.3-1.3,0.3c-1.5,0-2.2-0.8-2.2-2.7v-0.9c0-1.9,0.6-2.7,2.2-2.7
			c0.6,0,1.1,0.1,1.5,0.5l0.2-0.3h1.3V74c0,1-0.2,1.6-0.6,2.1c-0.4,0.5-1.2,0.8-2.1,0.8c-1.1,0-1.9-0.4-2.3-1.2l1.2-0.7
			c0.3,0.5,0.5,0.6,1,0.6c0.8,0,1.1-0.4,1.1-1.4C61.2,74.2,61.2,74.1,61.2,74.1z M59.4,71.7c0,1,0.3,1.5,0.9,1.5
			c0.6,0,0.9-0.4,0.9-1.1v-1.3c0-0.8-0.3-1.1-0.9-1.1c-0.6,0-0.9,0.4-0.9,1.5V71.7z"/>
		<path class="st1" d="M68.5,66.2v5.1c0,0.7,0,1,0.2,1.2c0.2,0.4,0.5,0.5,1.1,0.5s0.9-0.2,1.1-0.6c0.1-0.2,0.1-0.6,0.1-1.1v-5.1h1.8
			v5.1c0,1.2-0.1,1.8-0.5,2.2c-0.5,0.7-1.3,0.9-2.5,0.9c-1.3,0-2.1-0.3-2.6-1.1c-0.3-0.5-0.4-1-0.4-2.1v-5.1L68.5,66.2L68.5,66.2z"
			/>
		<path class="st1" d="M74.4,68.4h1.2l0.1,0.4c0.4-0.4,0.8-0.6,1.5-0.6c1,0,1.7,0.4,1.9,1.1c0.1,0.3,0.2,0.8,0.2,1.5v3.4h-1.7V71
			c0-1-0.2-1.4-0.8-1.4c-0.6,0-0.9,0.4-0.9,1.6v3.1h-1.7v-5.9H74.4z"/>
		<path class="st1" d="M80.9,66.1h1.7v1.6h-1.7V66.1z M80.9,68.4h1.7v5.9h-1.7V68.4z"/>
		<path class="st1" d="M83.6,69.7v-1.3h0.6l0.1-1.7h1.6v1.7h1.2v1.3h-1.2v2.1c0,0.9,0.2,1.2,1,1.2H87v1.3h-0.2
			c-2.2,0-2.6-0.5-2.6-2.7v-1.9H83.6z"/>
		<path class="st1" d="M89.1,72.6c0.3,0.5,0.6,0.6,1.2,0.6c0.7,0,1-0.2,1-0.6c0-0.3-0.2-0.5-0.7-0.5c-1-0.1-1.3-0.2-1.7-0.3
			c-0.5-0.3-0.8-0.7-0.8-1.5c0-1.2,0.8-1.9,2.2-1.9c1.2,0,1.9,0.4,2.4,1.2l-1.2,0.7c-0.3-0.5-0.5-0.6-1.1-0.6
			c-0.5,0-0.8,0.2-0.8,0.6c0,0.3,0.2,0.5,0.9,0.5c1.8,0.2,2.3,0.6,2.3,1.9s-0.8,1.9-2.5,1.9c-1.3,0-2.1-0.4-2.5-1.2L89.1,72.6z"/>
	</g>
	<line class="st4" x1="63.4" y1="80.4" x2="63.4" y2="185.1"/>
	<line class="st4" x1="109.7" y1="80.4" x2="109.7" y2="185.1"/>
	<line class="st4" x1="156" y1="80.4" x2="156" y2="185.1"/>
	<line class="st4" x1="202.4" y1="80.4" x2="202.4" y2="185.1"/>
	<line class="st4" x1="248.7" y1="80.4" x2="248.7" y2="185.1"/>
	<line class="st4" x1="295" y1="80.4" x2="295" y2="185.1"/>
	<rect x="17" y="80.4" class="st5" width="315.9" height="104.7"/>
	<rect x="17" y="80.4" class="st5" width="315.9" height="104.7"/>
	<rect x="17" y="80.4" class="st5" width="315.9" height="104.7"/>
	<rect x="17" y="80.4" class="st5" width="315.9" height="104.7"/>
	<line class="st6" x1="17" y1="80" x2="332.9" y2="80"/>
	<line class="st6" x1="17" y1="185.6" x2="332.9" y2="185.6"/>
	<line class="st7" x1="17" y1="80.4" x2="17" y2="185.1"/>
	<line class="st8" x1="332.9" y1="80.4" x2="332.9" y2="185.1"/>
	<g>
		<rect x="17" y="138.9" class="st9" width="70" height="28.4"/>
		<rect x="87.9" y="138.9" class="st10" width="30.9" height="28.4"/>
	</g>
	<g>
		<rect x="17" y="85.8" class="st9" width="137.4" height="28.4"/>
		<rect x="155.2" y="85.8" class="st10" width="162.7" height="28.4"/>
		<g class="st0">
			<path class="st11" d="M165.2,101.5l-0.5,1.6h-1.6l2.8-7.9h1.4l2.8,7.9h-1.6l-0.5-1.6H165.2z M166.7,96.9l-1.1,3.4h2.3L166.7,96.9
				z"/>
			<path class="st11" d="M170.5,98.5v-1.1h0.6v-0.6c0-1.2,0.5-1.6,1.8-1.6h0.6v1h-0.3c-0.7,0-0.8,0.1-0.8,0.7v0.5h0.9v1.1h-0.9v4.6
				h-1.4v-4.6H170.5z M173.9,98.5v-1.1h0.6v-0.6c0-1.2,0.5-1.6,1.9-1.6h0.6v1h-0.4c-0.7,0-0.8,0.1-0.8,0.7v0.5h1.2v1.1h-1.2v4.6
				h-1.4v-4.6H173.9z"/>
			<path class="st11" d="M178,99.8c0-1.8,0.7-2.5,2.4-2.5c1.7,0,2.4,0.7,2.4,2.5v0.8c0,1.8-0.7,2.5-2.4,2.5c-1.7,0-2.4-0.7-2.4-2.5
				V99.8z M181.5,99.9c0-1.1-0.3-1.5-1.1-1.5c-0.8,0-1.1,0.4-1.1,1.5v0.7c0,1.1,0.3,1.5,1.1,1.5c0.8,0,1.1-0.4,1.1-1.5V99.9z"/>
			<path class="st11" d="M184.3,97.4h1l0.2,0.4c0.4-0.4,0.7-0.5,1.2-0.5c0.4,0,0.7,0.1,1.2,0.4l-0.6,1.1c-0.3-0.2-0.5-0.3-0.7-0.3
				c-0.6,0-0.9,0.5-0.9,1.9v2.7h-1.4V97.4z"/>
			<path class="st11" d="M192.2,102.7L192.2,102.7c-0.5,0.4-0.8,0.5-1.5,0.5c-1.5,0-2.1-0.8-2.1-2.5v-0.8c0-1.8,0.6-2.5,2.1-2.5
				c0.4,0,0.7,0.1,1,0.2c0.1,0,0.1,0,0.2,0.1c0,0,0,0,0.1,0.1v-2.5h1.4v7.9h-1.1L192.2,102.7z M189.9,100.6c0,1.1,0.3,1.5,1,1.5
				s1-0.4,1-1.3v-1.1c0-0.9-0.3-1.3-1-1.3s-1,0.5-1,1.5V100.6z"/>
			<path class="st11" d="M197.8,99.4c0-0.7-0.3-1-1-1c-0.5,0-0.8,0.2-1.1,0.6l-0.9-0.7c0.5-0.7,1.2-1,2.2-1s1.7,0.3,2,0.9
				c0.2,0.3,0.2,0.7,0.2,1.4v3.4h-1.1l-0.1-0.3c-0.4,0.3-0.8,0.5-1.5,0.5c-1.4,0-1.9-0.5-1.9-1.7c0-1.4,0.5-1.8,2.1-1.8h1.1V99.4z
				 M196.8,100.6c-0.7,0-1,0.2-1,0.8c0,0.6,0.2,0.8,1,0.8c0.4,0,0.7-0.1,0.9-0.3c0.1-0.1,0.1-0.3,0.1-0.7v-0.6H196.8z"/>
			<path class="st11" d="M200.8,95.2h1.4v2.5c0.4-0.3,0.8-0.4,1.3-0.4c1.5,0,2.1,0.8,2.1,2.5v0.8c0,1.8-0.6,2.5-2.1,2.5
				c-0.7,0-1-0.1-1.5-0.5l-0.1,0.4h-1.1V95.2z M204.2,99.9c0-1.1-0.3-1.5-1-1.5s-1,0.4-1,1.3v1.1c0,0.9,0.3,1.3,1,1.3s1-0.5,1-1.5
				V99.9z"/>
			<path class="st11" d="M208.4,95.2v5.6c0,0.9,0.2,1.1,1,1.1h0.2v1.1h-0.3c-1.8,0-2.3-0.4-2.3-2.4v-5.5H208.4z"/>
			<path class="st11" d="M211.6,100.8c0,0.9,0.4,1.4,1.2,1.4c0.5,0,0.9-0.2,1.2-0.6l1,0.6c-0.5,0.8-1.1,1.1-2.3,1.1
				c-1.7,0-2.4-0.8-2.4-2.7v-0.4c0-2,0.7-2.8,2.4-2.8c1.7,0,2.4,0.8,2.4,2.8v0.5h-3.5V100.8z M213.8,99.6v-0.1
				c0-0.8-0.4-1.2-1.1-1.2c-0.7,0-1.1,0.4-1.1,1.2v0.1H213.8z"/>
		</g>
		<g class="st0">
			<path class="st11" d="M216.2,93.8h0.8v1.4c0.3-0.2,0.4-0.2,0.8-0.2c0.9,0,1.2,0.4,1.2,1.5V97c0,1-0.4,1.5-1.2,1.5
				c-0.4,0-0.6-0.1-0.9-0.3v0.2h-0.6v-4.6H216.2z M218.2,96.5c0-0.6-0.2-0.9-0.6-0.9s-0.6,0.2-0.6,0.8V97c0,0.5,0.2,0.8,0.6,0.8
				s0.6-0.3,0.6-0.9V96.5z"/>
		</g>
		<text transform="matrix(1 0 0 1 219.1458 103.0641)" class="st11 st12 st13"> </text>
		<g class="st0">
			<path class="st11" d="M92.4,95.2h1.1l2.3,4.8l2.3-4.8h1.1v7.9h-1.1v-5.6l-1.9,4h-0.7l-1.9-4v5.6h-1.1V95.2z"/>
			<path class="st11" d="M104.2,99.4c0-0.8-0.3-1.2-1.1-1.2c-0.5,0-0.9,0.2-1.2,0.6l-0.8-0.6c0.5-0.6,1.2-0.9,2.1-0.9
				c0.9,0,1.6,0.3,1.9,0.9c0.2,0.3,0.2,0.7,0.2,1.4v3.5h-0.9l-0.1-0.4c-0.4,0.4-0.8,0.5-1.6,0.5c-1.4,0-1.9-0.5-1.9-1.7
				c0-1.3,0.5-1.7,2.1-1.7h1.2V99.4z M103.1,100.5c-0.8,0-1.2,0.3-1.2,0.9c0,0.6,0.3,0.8,1.1,0.8c0.5,0,0.8-0.1,1-0.3
				c0.1-0.1,0.1-0.3,0.1-0.7v-0.7H103.1z"/>
			<path class="st11" d="M107,97.5h0.9l0.1,0.5c0.4-0.4,0.7-0.6,1.3-0.6c0.4,0,0.7,0.1,1.1,0.3l-0.5,0.9c-0.3-0.2-0.5-0.3-0.8-0.3
				c-0.7,0-1,0.6-1,2v2.7H107V97.5z"/>
			<path class="st11" d="M111.5,95.2h1.1v5.2l2.2-2.9h1.3l-1.9,2.4l2.1,3.2h-1.2l-1.5-2.4l-0.9,1.2v1.2h-1.1V95.2z"/>
			<path class="st11" d="M118.1,100.7c0,1,0.5,1.6,1.4,1.6c0.6,0,0.9-0.2,1.2-0.6l0.8,0.5c-0.5,0.7-1.1,1-2.2,1
				c-1.7,0-2.4-0.8-2.4-2.7v-0.4c0-1.9,0.7-2.7,2.3-2.7s2.3,0.8,2.3,2.7v0.4h-3.5V100.7z M120.6,99.7v-0.1c0-0.9-0.4-1.4-1.2-1.4
				c-0.5,0-0.8,0.2-1,0.5c-0.1,0.2-0.2,0.6-0.2,0.9v0.1H120.6z"/>
			<path class="st11" d="M122.7,98.4v-0.9h0.6l0.1-1.7h1.1v1.7h1.1v0.9h-1.1v2.7c0,0.8,0.2,1.1,0.9,1.1h0.2v0.9h-0.2
				c-1.7,0-2-0.4-2-2.1v-2.6H122.7z"/>
			<path class="st11" d="M130.5,103.1h-1.2v-7.9h2.8c1,0,1.5,0.2,1.9,0.6c0.4,0.4,0.6,0.9,0.6,1.7c0,1.3-0.5,2-1.6,2.2l1.7,3.4h-1.3
				l-1.6-3.3h-1.4V103.1z M132.1,98.8c0.9,0,1.4-0.4,1.4-1.3c0-0.9-0.4-1.3-1.4-1.3h-1.5v2.7H132.1z"/>
			<path class="st11" d="M139.2,99.4c0-0.8-0.3-1.2-1.1-1.2c-0.5,0-0.9,0.2-1.2,0.6l-0.8-0.6c0.5-0.6,1.2-0.9,2.1-0.9
				c0.9,0,1.6,0.3,1.9,0.9c0.2,0.3,0.2,0.7,0.2,1.4v3.5h-0.9l-0.1-0.4c-0.4,0.4-0.8,0.5-1.6,0.5c-1.4,0-1.9-0.5-1.9-1.7
				c0-1.3,0.5-1.7,2.1-1.7h1.2V99.4z M138.1,100.5c-0.8,0-1.2,0.3-1.2,0.9c0,0.6,0.3,0.8,1.1,0.8c0.5,0,0.8-0.1,1-0.3
				c0.1-0.1,0.1-0.3,0.1-0.7v-0.7H138.1z"/>
			<path class="st11" d="M141.6,98.4v-0.9h0.6l0.1-1.7h1.1v1.7h1.1v0.9h-1.1v2.7c0,0.8,0.2,1.1,0.9,1.1h0.2v0.9h-0.2
				c-1.7,0-2-0.4-2-2.1v-2.6H141.6z"/>
			<path class="st11" d="M146.7,100.7c0,1,0.5,1.6,1.4,1.6c0.6,0,0.9-0.2,1.2-0.6l0.8,0.5c-0.5,0.7-1.1,1-2.2,1
				c-1.7,0-2.4-0.8-2.4-2.7v-0.4c0-1.9,0.7-2.7,2.3-2.7s2.3,0.8,2.3,2.7v0.4h-3.5V100.7z M149.2,99.7v-0.1c0-0.9-0.4-1.4-1.2-1.4
				c-0.5,0-0.8,0.2-1,0.5c-0.1,0.2-0.2,0.6-0.2,0.9v0.1H149.2z"/>
		</g>
	</g>
</g>
<g id="Layer_2">
	<g class="st0">
		<path class="st14" d="M17.6,203.8h0.9l4.1,6.6v-6.6h0.9v8.2h-0.9l-4.1-6.6v6.6h-0.9V203.8z"/>
		<path class="st14" d="M26.6,206.3v3.2c0,0.6,0,0.9,0.2,1.2c0.2,0.5,0.6,0.7,1.1,0.7c1,0,1.3-0.6,1.3-2.2v-2.9h0.9v5.8h-0.7
			l-0.1-0.6c-0.3,0.5-0.8,0.8-1.6,0.8c-1,0-1.6-0.4-1.9-1.1c-0.1-0.3-0.2-0.8-0.2-1.5v-3.3H26.6z"/>
		<path class="st14" d="M32.1,206.3h0.7l0.1,0.6c0.3-0.5,0.8-0.8,1.5-0.8c0.8,0,1.4,0.3,1.7,0.9c0.3-0.7,0.9-0.9,1.7-0.9
			c1,0,1.6,0.4,1.9,1.1c0.1,0.3,0.2,0.8,0.2,1.5v3.3h-0.9v-3.2c0-0.6,0-0.9-0.1-1.2c-0.2-0.5-0.5-0.7-1.1-0.7
			c-0.9,0-1.3,0.6-1.3,2.1v3h-0.9v-3.2c0-1.4-0.3-1.9-1.2-1.9c-0.9,0-1.3,0.6-1.3,2.2v2.9h-0.9V206.3z"/>
		<path class="st14" d="M41.9,203.8h0.9v2.9c0.4-0.4,0.9-0.6,1.6-0.6c1.5,0,2.2,0.8,2.2,2.6v0.9c0,1.8-0.7,2.6-2.2,2.6
			c-0.6,0-1-0.1-1.4-0.3c0,0-0.2-0.1-0.3-0.3l-0.1,0.5h-0.7V203.8z M45.6,208.8c0-1.3-0.5-1.9-1.4-1.9c-1,0-1.4,0.6-1.4,1.8v0.9
			c0,1.2,0.5,1.8,1.4,1.8c0.9,0,1.4-0.6,1.4-1.9V208.8z"/>
		<path class="st14" d="M49.1,209.6c0,1.2,0.6,1.8,1.6,1.8c0.6,0,1-0.2,1.3-0.6l0.7,0.4c-0.5,0.6-1.1,0.9-2.1,0.9
			c-1.7,0-2.4-0.9-2.4-2.7v-0.5c0-1.9,0.7-2.8,2.4-2.8c1.6,0,2.4,0.9,2.4,2.8v0.4h-3.8V209.6z M52,208.6L52,208.6
			c0-0.5-0.1-1-0.3-1.2c-0.2-0.3-0.6-0.5-1.1-0.5c-0.6,0-1,0.2-1.2,0.6c-0.2,0.3-0.2,0.7-0.2,1.1v0.1H52z"/>
		<path class="st14" d="M54.7,206.3h0.7l0.1,0.5c0.3-0.5,0.7-0.7,1.4-0.7c0.4,0,0.7,0.1,1.1,0.3l-0.4,0.8c-0.3-0.2-0.5-0.3-0.8-0.3
			c-0.8,0-1.2,0.7-1.2,2.3v2.8h-0.9V206.3z"/>
		<path class="st14" d="M61.1,208.7c0-1.7,0.8-2.6,2.4-2.6c1.7,0,2.4,0.8,2.4,2.6v0.9c0,1.8-0.8,2.6-2.4,2.6c-1.6,0-2.4-0.8-2.4-2.6
			V208.7z M65,208.8c0-1.3-0.5-1.9-1.5-1.9c-1,0-1.5,0.6-1.5,1.9v0.8c0,1.3,0.5,1.8,1.5,1.8c1,0,1.5-0.6,1.5-1.8V208.8z"/>
		<path class="st14" d="M67.3,207v-0.8H68v-0.9c0-1.2,0.4-1.5,1.6-1.5h0.5v0.8h-0.3c-0.7,0-0.9,0.2-0.9,0.9v0.8h1.3v0.8h-1.3v5H68
			v-5H67.3z"/>
		<path class="st14" d="M75,203.8v5.2c0,0.8,0.1,1.2,0.3,1.6c0.3,0.5,0.8,0.7,1.6,0.7c0.8,0,1.3-0.3,1.6-0.8
			c0.2-0.3,0.2-0.7,0.2-1.5v-5.2h1v5.2c0,1.2-0.1,1.7-0.5,2.2c-0.5,0.7-1.2,1-2.3,1c-1.2,0-1.9-0.3-2.4-1.1c-0.3-0.5-0.4-1-0.4-2
			v-5.2H75z"/>
		<path class="st14" d="M81.8,206.3h0.7l0.1,0.6c0.3-0.5,0.8-0.8,1.6-0.8c1,0,1.7,0.4,2,1.1c0.1,0.3,0.2,0.8,0.2,1.5v3.3h-0.9v-3.2
			c0-1.4-0.4-1.9-1.3-1.9c-1,0-1.4,0.6-1.4,2.2v2.9h-0.9V206.3z"/>
		<path class="st14" d="M88.3,203.8h0.9v1.2h-0.9V203.8z M88.3,206.3h0.9v5.8h-0.9V206.3z"/>
		<path class="st14" d="M90.8,207v-0.8h0.7l0-1.9h0.9v1.9h1.1v0.8h-1.1v3.2c0,0.8,0.2,1.1,1,1.1h0.2v0.8h-0.2
			c-1.5,0-1.9-0.4-1.9-1.9V207H90.8z"/>
		<path class="st14" d="M95.5,210.8c0.4,0.4,0.8,0.6,1.6,0.6c1,0,1.5-0.3,1.5-1c0-0.3-0.1-0.6-0.4-0.7c-0.2-0.1-0.4-0.2-1.1-0.2
			c-0.8-0.1-1.2-0.2-1.4-0.5c-0.3-0.3-0.5-0.6-0.5-1.1c0-1.1,0.7-1.7,1.9-1.7c1,0,1.7,0.3,2.1,0.9l-0.7,0.4
			c-0.4-0.4-0.7-0.6-1.3-0.6c-0.7,0-1.1,0.3-1.1,0.9c0,0.3,0.1,0.5,0.4,0.7c0.2,0.1,0.4,0.2,0.9,0.2c0.9,0.1,1.3,0.2,1.6,0.5
			c0.3,0.2,0.5,0.7,0.5,1.3c0,1.1-0.8,1.7-2.3,1.7c-1.1,0-1.9-0.3-2.3-0.9L95.5,210.8z"/>
	</g>
	<g class="st0">
		<path class="st14" d="M18.7,192.7c0-1,0.1-1.6,0.5-2c0.4-0.5,0.9-0.7,1.6-0.7c0.8,0,1.3,0.3,1.7,0.8c0.3,0.4,0.4,1,0.4,1.9v2.2
			c0,1-0.1,1.6-0.5,2c-0.4,0.5-0.9,0.7-1.6,0.7c-0.8,0-1.4-0.3-1.7-0.8c-0.3-0.4-0.4-1-0.4-1.9V192.7z M22,192.8
			c0-1.5-0.4-2.1-1.2-2.1c-0.9,0-1.2,0.6-1.2,2.1v2c0,1.5,0.4,2.1,1.2,2.1c0.9,0,1.2-0.6,1.2-2.1V192.8z"/>
	</g>
	<g class="st0">
		<path class="st14" d="M53.7,191.6l-1.3,0.6l-0.3-0.7l1.8-0.8h0.6v7.5h-0.9V191.6z"/>
		<path class="st14" d="M57.9,197.2h0.9l-0.7,3h-0.7L57.9,197.2z"/>
		<path class="st14" d="M60.5,193.4c0-1,0.1-1.6,0.5-2c0.4-0.5,0.9-0.7,1.6-0.7c0.8,0,1.3,0.3,1.7,0.8c0.3,0.4,0.4,1,0.4,1.9v2.2
			c0,1-0.1,1.6-0.5,2c-0.4,0.5-0.9,0.7-1.6,0.7c-0.8,0-1.4-0.3-1.7-0.9c-0.3-0.4-0.4-1-0.4-1.9V193.4z M63.8,193.4
			c0-1.5-0.4-2.1-1.2-2.1c-0.9,0-1.2,0.6-1.2,2.1v2c0,1.5,0.4,2.1,1.2,2.1c0.9,0,1.2-0.6,1.2-2.1V193.4z"/>
		<path class="st14" d="M66.1,193.4c0-1,0.1-1.6,0.5-2c0.4-0.5,0.9-0.7,1.6-0.7c0.8,0,1.3,0.3,1.7,0.8c0.3,0.4,0.4,1,0.4,1.9v2.2
			c0,1-0.1,1.6-0.5,2c-0.4,0.5-0.9,0.7-1.6,0.7c-0.8,0-1.4-0.3-1.7-0.9c-0.3-0.4-0.4-1-0.4-1.9V193.4z M69.5,193.4
			c0-1.5-0.4-2.1-1.2-2.1c-0.9,0-1.2,0.6-1.2,2.1v2c0,1.5,0.4,2.1,1.2,2.1c0.9,0,1.2-0.6,1.2-2.1V193.4z"/>
		<path class="st14" d="M71.8,193.4c0-1,0.1-1.6,0.5-2c0.4-0.5,0.9-0.7,1.6-0.7c0.8,0,1.3,0.3,1.7,0.8c0.3,0.4,0.4,1,0.4,1.9v2.2
			c0,1-0.1,1.6-0.5,2c-0.4,0.5-0.9,0.7-1.6,0.7c-0.8,0-1.4-0.3-1.7-0.9c-0.3-0.4-0.4-1-0.4-1.9V193.4z M75.2,193.4
			c0-1.5-0.4-2.1-1.2-2.1c-0.9,0-1.2,0.6-1.2,2.1v2c0,1.5,0.4,2.1,1.2,2.1c0.9,0,1.2-0.6,1.2-2.1V193.4z"/>
	</g>
	<g class="st0">
		<path class="st14" d="M97,197.6l2.1-2.7c0.8-1,1.1-1.8,1.1-2.5c0-0.7-0.4-1.1-1.1-1.1c-0.7,0-1.1,0.4-1.3,1.1l-0.8-0.1
			c0.1-1.1,0.9-1.8,2.1-1.8c1.2,0,1.9,0.7,1.9,1.9c0,0.9-0.3,1.5-1.4,3l-1.5,2h3v0.7H97V197.6z"/>
		<path class="st14" d="M103.2,197.2h0.9l-0.7,3h-0.7L103.2,197.2z"/>
		<path class="st14" d="M105.8,193.4c0-1,0.1-1.6,0.5-2c0.4-0.5,0.9-0.7,1.6-0.7c0.8,0,1.3,0.3,1.7,0.8c0.3,0.4,0.4,1,0.4,1.9v2.2
			c0,1-0.1,1.6-0.5,2c-0.4,0.5-0.9,0.7-1.6,0.7c-0.8,0-1.4-0.3-1.7-0.9c-0.3-0.4-0.4-1-0.4-1.9V193.4z M109.1,193.4
			c0-1.5-0.4-2.1-1.2-2.1c-0.9,0-1.2,0.6-1.2,2.1v2c0,1.5,0.4,2.1,1.2,2.1c0.9,0,1.2-0.6,1.2-2.1V193.4z"/>
		<path class="st14" d="M111.4,193.4c0-1,0.1-1.6,0.5-2c0.4-0.5,0.9-0.7,1.6-0.7c0.8,0,1.3,0.3,1.7,0.8c0.3,0.4,0.4,1,0.4,1.9v2.2
			c0,1-0.1,1.6-0.5,2c-0.4,0.5-0.9,0.7-1.6,0.7c-0.8,0-1.4-0.3-1.7-0.9c-0.3-0.4-0.4-1-0.4-1.9V193.4z M114.8,193.4
			c0-1.5-0.4-2.1-1.2-2.1c-0.9,0-1.2,0.6-1.2,2.1v2c0,1.5,0.4,2.1,1.2,2.1c0.9,0,1.2-0.6,1.2-2.1V193.4z"/>
		<path class="st14" d="M117.1,193.4c0-1,0.1-1.6,0.5-2c0.4-0.5,0.9-0.7,1.6-0.7c0.8,0,1.3,0.3,1.7,0.8c0.3,0.4,0.4,1,0.4,1.9v2.2
			c0,1-0.1,1.6-0.5,2c-0.4,0.5-0.9,0.7-1.6,0.7c-0.8,0-1.4-0.3-1.7-0.9c-0.3-0.4-0.4-1-0.4-1.9V193.4z M120.4,193.4
			c0-1.5-0.4-2.1-1.2-2.1c-0.9,0-1.2,0.6-1.2,2.1v2c0,1.5,0.4,2.1,1.2,2.1c0.9,0,1.2-0.6,1.2-2.1V193.4z"/>
	</g>
	<g class="st0">
		<path class="st14" d="M146,193.9h0.6c0.8,0,1.4-0.5,1.4-1.3c0-0.8-0.4-1.3-1.2-1.3c-0.6,0-1,0.3-1.2,0.9l-0.8-0.1
			c0.1-1,0.8-1.6,2-1.6c1.3,0,2,0.7,2,2c0,0.8-0.3,1.3-1,1.6c0.8,0.4,1.2,0.9,1.2,1.9c0,1.4-0.8,2.1-2.2,2.1c-1.3,0-2-0.6-2.2-1.6
			l0.8-0.1c0.1,0.6,0.6,1,1.3,1c0.9,0,1.4-0.5,1.4-1.4c0-0.9-0.6-1.5-1.5-1.5H146V193.9z"/>
		<path class="st14" d="M151,197.2h0.9l-0.7,3h-0.7L151,197.2z"/>
		<path class="st14" d="M153.6,193.4c0-1,0.1-1.6,0.5-2c0.4-0.5,0.9-0.7,1.6-0.7c0.8,0,1.3,0.3,1.7,0.8c0.3,0.4,0.4,1,0.4,1.9v2.2
			c0,1-0.1,1.6-0.5,2c-0.4,0.5-0.9,0.7-1.6,0.7c-0.8,0-1.4-0.3-1.7-0.9c-0.3-0.4-0.4-1-0.4-1.9V193.4z M156.9,193.4
			c0-1.5-0.4-2.1-1.2-2.1c-0.9,0-1.2,0.6-1.2,2.1v2c0,1.5,0.4,2.1,1.2,2.1c0.9,0,1.2-0.6,1.2-2.1V193.4z"/>
		<path class="st14" d="M159.2,193.4c0-1,0.1-1.6,0.5-2c0.4-0.5,0.9-0.7,1.6-0.7c0.8,0,1.3,0.3,1.7,0.8c0.3,0.4,0.4,1,0.4,1.9v2.2
			c0,1-0.1,1.6-0.5,2c-0.4,0.5-0.9,0.7-1.6,0.7c-0.8,0-1.4-0.3-1.7-0.9c-0.3-0.4-0.4-1-0.4-1.9V193.4z M162.6,193.4
			c0-1.5-0.4-2.1-1.2-2.1c-0.9,0-1.2,0.6-1.2,2.1v2c0,1.5,0.4,2.1,1.2,2.1c0.9,0,1.2-0.6,1.2-2.1V193.4z"/>
		<path class="st14" d="M164.9,193.4c0-1,0.1-1.6,0.5-2c0.4-0.5,0.9-0.7,1.6-0.7c0.8,0,1.3,0.3,1.7,0.8c0.3,0.4,0.4,1,0.4,1.9v2.2
			c0,1-0.1,1.6-0.5,2c-0.4,0.5-0.9,0.7-1.6,0.7c-0.8,0-1.4-0.3-1.7-0.9c-0.3-0.4-0.4-1-0.4-1.9V193.4z M168.2,193.4
			c0-1.5-0.4-2.1-1.2-2.1c-0.9,0-1.2,0.6-1.2,2.1v2c0,1.5,0.4,2.1,1.2,2.1c0.9,0,1.2-0.6,1.2-2.1V193.4z"/>
	</g>
	<g class="st0">
		<path class="st14" d="M193.5,196.8h-3v-0.5l2.4-5.6h0.9l-2.3,5.4h2.1v-2.3h0.8v2.3h0.7v0.7h-0.7v1.4h-0.8V196.8z"/>
		<path class="st14" d="M196.7,197.2h0.9l-0.7,3h-0.7L196.7,197.2z"/>
		<path class="st14" d="M199.3,193.4c0-1,0.1-1.6,0.5-2c0.4-0.5,0.9-0.7,1.6-0.7c0.8,0,1.3,0.3,1.7,0.8c0.3,0.4,0.4,1,0.4,1.9v2.2
			c0,1-0.1,1.6-0.5,2c-0.4,0.5-0.9,0.7-1.6,0.7c-0.8,0-1.4-0.3-1.7-0.9c-0.3-0.4-0.4-1-0.4-1.9V193.4z M202.6,193.4
			c0-1.5-0.4-2.1-1.2-2.1c-0.9,0-1.2,0.6-1.2,2.1v2c0,1.5,0.4,2.1,1.2,2.1c0.9,0,1.2-0.6,1.2-2.1V193.4z"/>
		<path class="st14" d="M204.9,193.4c0-1,0.1-1.6,0.5-2c0.4-0.5,0.9-0.7,1.6-0.7c0.8,0,1.3,0.3,1.7,0.8c0.3,0.4,0.4,1,0.4,1.9v2.2
			c0,1-0.1,1.6-0.5,2c-0.4,0.5-0.9,0.7-1.6,0.7c-0.8,0-1.4-0.3-1.7-0.9c-0.3-0.4-0.4-1-0.4-1.9V193.4z M208.3,193.4
			c0-1.5-0.4-2.1-1.2-2.1c-0.9,0-1.2,0.6-1.2,2.1v2c0,1.5,0.4,2.1,1.2,2.1c0.9,0,1.2-0.6,1.2-2.1V193.4z"/>
		<path class="st14" d="M210.6,193.4c0-1,0.1-1.6,0.5-2c0.4-0.5,0.9-0.7,1.6-0.7c0.8,0,1.3,0.3,1.7,0.8c0.3,0.4,0.4,1,0.4,1.9v2.2
			c0,1-0.1,1.6-0.5,2c-0.4,0.5-0.9,0.7-1.6,0.7c-0.8,0-1.4-0.3-1.7-0.9c-0.3-0.4-0.4-1-0.4-1.9V193.4z M213.9,193.4
			c0-1.5-0.4-2.1-1.2-2.1c-0.9,0-1.2,0.6-1.2,2.1v2c0,1.5,0.4,2.1,1.2,2.1c0.9,0,1.2-0.6,1.2-2.1V193.4z"/>
	</g>
	<g class="st0">
		<path class="st14" d="M237.3,190.7h3.4v0.7H238l-0.3,2.4c0.3-0.2,0.7-0.3,1.1-0.3c0.7,0,1.3,0.3,1.6,0.7c0.3,0.4,0.4,0.9,0.4,1.6
			c0,0.8-0.1,1.3-0.5,1.7c-0.4,0.4-1,0.7-1.7,0.7c-1.2,0-1.9-0.6-2.1-1.6l0.8-0.1c0.1,0.6,0.6,1,1.2,1c0.9,0,1.3-0.6,1.3-1.6
			c0-1.2-0.4-1.7-1.3-1.7c-0.5,0-0.8,0.1-1.2,0.5l-0.6-0.1L237.3,190.7z"/>
		<path class="st14" d="M242.8,197.2h0.9l-0.7,3h-0.7L242.8,197.2z"/>
		<path class="st14" d="M245.3,193.4c0-1,0.1-1.6,0.5-2c0.4-0.5,0.9-0.7,1.6-0.7c0.8,0,1.3,0.3,1.7,0.8c0.3,0.4,0.4,1,0.4,1.9v2.2
			c0,1-0.1,1.6-0.5,2c-0.4,0.5-0.9,0.7-1.6,0.7c-0.8,0-1.4-0.3-1.7-0.9c-0.3-0.4-0.4-1-0.4-1.9V193.4z M248.7,193.4
			c0-1.5-0.4-2.1-1.2-2.1c-0.9,0-1.2,0.6-1.2,2.1v2c0,1.5,0.4,2.1,1.2,2.1c0.9,0,1.2-0.6,1.2-2.1V193.4z"/>
		<path class="st14" d="M251,193.4c0-1,0.1-1.6,0.5-2c0.4-0.5,0.9-0.7,1.6-0.7c0.8,0,1.3,0.3,1.7,0.8c0.3,0.4,0.4,1,0.4,1.9v2.2
			c0,1-0.1,1.6-0.5,2c-0.4,0.5-0.9,0.7-1.6,0.7c-0.8,0-1.4-0.3-1.7-0.9c-0.3-0.4-0.4-1-0.4-1.9V193.4z M254.4,193.4
			c0-1.5-0.4-2.1-1.2-2.1c-0.9,0-1.2,0.6-1.2,2.1v2c0,1.5,0.4,2.1,1.2,2.1c0.9,0,1.2-0.6,1.2-2.1V193.4z"/>
		<path class="st14" d="M256.7,193.4c0-1,0.1-1.6,0.5-2c0.4-0.5,0.9-0.7,1.6-0.7c0.8,0,1.3,0.3,1.7,0.8c0.3,0.4,0.4,1,0.4,1.9v2.2
			c0,1-0.1,1.6-0.5,2c-0.4,0.5-0.9,0.7-1.6,0.7c-0.8,0-1.4-0.3-1.7-0.9c-0.3-0.4-0.4-1-0.4-1.9V193.4z M260,193.4
			c0-1.5-0.4-2.1-1.2-2.1c-0.9,0-1.2,0.6-1.2,2.1v2c0,1.5,0.4,2.1,1.2,2.1c0.9,0,1.2-0.6,1.2-2.1V193.4z"/>
	</g>
	<g class="st0">
		<path class="st14" d="M283.8,193.8c0.2-0.1,0.5-0.2,0.8-0.2c0.6,0,1.1,0.3,1.5,0.7c0.2,0.3,0.4,0.9,0.4,1.6c0,0.9-0.2,1.4-0.5,1.8
			c-0.4,0.4-0.9,0.6-1.6,0.6c-0.7,0-1.3-0.2-1.7-0.7c-0.3-0.3-0.4-0.9-0.4-1.7c0-0.8,0.1-1.2,0.6-2.1l1.7-3.1h1L283.8,193.8z
			 M283.1,195.9c0,1.1,0.4,1.7,1.2,1.7c0.8,0,1.2-0.5,1.2-1.6c0-1.1-0.4-1.7-1.2-1.7C283.5,194.3,283.1,194.8,283.1,195.9z"/>
		<path class="st14" d="M288.2,197.2h0.9l-0.7,3h-0.7L288.2,197.2z"/>
		<path class="st14" d="M290.8,193.4c0-1,0.1-1.6,0.5-2c0.4-0.5,0.9-0.7,1.6-0.7c0.8,0,1.3,0.3,1.7,0.8c0.3,0.4,0.4,1,0.4,1.9v2.2
			c0,1-0.1,1.6-0.5,2c-0.4,0.5-0.9,0.7-1.6,0.7c-0.8,0-1.4-0.3-1.7-0.9c-0.3-0.4-0.4-1-0.4-1.9V193.4z M294.2,193.4
			c0-1.5-0.4-2.1-1.2-2.1c-0.9,0-1.2,0.6-1.2,2.1v2c0,1.5,0.4,2.1,1.2,2.1c0.9,0,1.2-0.6,1.2-2.1V193.4z"/>
		<path class="st14" d="M296.5,193.4c0-1,0.1-1.6,0.5-2c0.4-0.5,0.9-0.7,1.6-0.7c0.8,0,1.3,0.3,1.7,0.8c0.3,0.4,0.4,1,0.4,1.9v2.2
			c0,1-0.1,1.6-0.5,2c-0.4,0.5-0.9,0.7-1.6,0.7c-0.8,0-1.4-0.3-1.7-0.9c-0.3-0.4-0.4-1-0.4-1.9V193.4z M299.8,193.4
			c0-1.5-0.4-2.1-1.2-2.1c-0.9,0-1.2,0.6-1.2,2.1v2c0,1.5,0.4,2.1,1.2,2.1c0.9,0,1.2-0.6,1.2-2.1V193.4z"/>
		<path class="st14" d="M302.2,193.4c0-1,0.1-1.6,0.5-2c0.4-0.5,0.9-0.7,1.6-0.7c0.8,0,1.3,0.3,1.7,0.8c0.3,0.4,0.4,1,0.4,1.9v2.2
			c0,1-0.1,1.6-0.5,2c-0.4,0.5-0.9,0.7-1.6,0.7c-0.8,0-1.4-0.3-1.7-0.9c-0.3-0.4-0.4-1-0.4-1.9V193.4z M305.5,193.4
			c0-1.5-0.4-2.1-1.2-2.1c-0.9,0-1.2,0.6-1.2,2.1v2c0,1.5,0.4,2.1,1.2,2.1c0.9,0,1.2-0.6,1.2-2.1V193.4z"/>
	</g>
	<g class="st0">
		<path class="st1" d="M22.1,127h-1.2v-8h2.6c1,0,1.6,0.2,2.1,0.6c0.4,0.4,0.6,1,0.6,1.8c0,0.9-0.2,1.5-0.7,2c-0.4,0.4-1,0.5-2,0.5
			h-1.4V127z M23.5,123c1,0,1.5-0.5,1.5-1.5c0-1.1-0.4-1.5-1.5-1.5h-1.5v3H23.5z"/>
		<path class="st1" d="M27.5,121.3h0.9l0.1,0.5c0.4-0.4,0.7-0.6,1.3-0.6c0.4,0,0.7,0.1,1.2,0.3l-0.5,0.9c-0.3-0.2-0.5-0.3-0.8-0.3
			c-0.7,0-1,0.6-1,2v2.8h-1.1V121.3z"/>
		<path class="st1" d="M31.7,123.7c0-1.7,0.7-2.5,2.4-2.5c1.7,0,2.4,0.8,2.4,2.5v0.9c0,1.7-0.7,2.5-2.4,2.5c-1.7,0-2.4-0.8-2.4-2.5
			V123.7z M35.3,123.8c0-1.2-0.4-1.7-1.3-1.7c-0.9,0-1.3,0.5-1.3,1.7v0.7c0,1.2,0.4,1.7,1.3,1.7c0.9,0,1.3-0.5,1.3-1.7V123.8z"/>
		<path class="st1" d="M39.2,121.3v5.7c0,2-0.5,2.6-2.5,2.6v-0.9c1,0,1.4-0.4,1.3-1.5v-5.8H39.2z M38.1,118.9h1.1v1.3h-1.1V118.9z"
			/>
		<path class="st1" d="M42,124.6c0,1,0.5,1.6,1.4,1.6c0.6,0,0.9-0.2,1.2-0.6l0.8,0.5c-0.5,0.7-1.1,1-2.2,1c-1.7,0-2.4-0.8-2.4-2.7
			v-0.4c0-1.9,0.7-2.8,2.4-2.8c1.7,0,2.4,0.8,2.4,2.8v0.4H42V124.6z M44.5,123.6v-0.1c0-0.9-0.4-1.4-1.3-1.4c-0.5,0-0.8,0.2-1,0.5
			c-0.1,0.2-0.2,0.6-0.2,0.9v0.1H44.5z"/>
		<path class="st1" d="M51.4,126.1c-0.4,0.7-1.1,1-2.1,1c-1.6,0-2.3-0.9-2.3-2.7V124c0-1.9,0.7-2.8,2.3-2.8c0.9,0,1.6,0.3,2,1
			l-0.8,0.5c-0.3-0.4-0.6-0.6-1-0.6c-0.8,0-1.2,0.6-1.2,1.8v0.6c0,1.1,0.4,1.7,1.3,1.7c0.5,0,0.8-0.2,1.1-0.6L51.4,126.1z"/>
		<path class="st1" d="M52.3,122.2v-0.9H53l0.1-1.7h1.1v1.7h1.1v0.9h-1.1v2.7c0,0.8,0.2,1.1,1,1.1h0.2v0.9h-0.2
			c-1.7,0-2.1-0.4-2.1-2.1v-2.6H52.3z"/>
		<path class="st1" d="M57.6,124.6c0,1,0.5,1.6,1.4,1.6c0.6,0,0.9-0.2,1.2-0.6l0.8,0.5c-0.5,0.7-1.1,1-2.2,1c-1.7,0-2.4-0.8-2.4-2.7
			v-0.4c0-1.9,0.7-2.8,2.4-2.8c1.7,0,2.4,0.8,2.4,2.8v0.4h-3.6V124.6z M60.1,123.6v-0.1c0-0.9-0.4-1.4-1.3-1.4c-0.5,0-0.8,0.2-1,0.5
			c-0.1,0.2-0.2,0.6-0.2,0.9v0.1H60.1z"/>
		<path class="st1" d="M66.2,126.5C66.2,126.5,66.2,126.6,66.2,126.5c-0.1,0.1-0.2,0.1-0.2,0.2c-0.2,0.2-0.8,0.4-1.4,0.4
			c-1.5,0-2.2-0.8-2.2-2.5v-0.8c0-1.8,0.6-2.5,2.1-2.5c0.4,0,0.8,0.1,1.1,0.2c0,0,0.1,0.1,0.3,0.2V119h1.1v8h-0.9L66.2,126.5z
			 M63.6,124.5c0,1.2,0.4,1.7,1.2,1.7c0.8,0,1.2-0.5,1.2-1.5v-1c0-1-0.4-1.5-1.2-1.5c-0.8,0-1.2,0.5-1.2,1.7V124.5z"/>
		<path class="st1" d="M72.6,119v5c0,0.8,0.1,1.1,0.2,1.4c0.3,0.5,0.7,0.6,1.4,0.6c0.7,0,1.2-0.2,1.4-0.7c0.1-0.3,0.2-0.7,0.2-1.3
			v-5H77v5c0,1.2-0.1,1.7-0.5,2.1c-0.5,0.6-1.2,0.9-2.3,0.9c-1.2,0-1.9-0.3-2.4-1.1c-0.3-0.4-0.4-0.9-0.4-2v-5H72.6z"/>
		<path class="st1" d="M78.9,121.3h0.9l0.1,0.6c0.4-0.5,0.8-0.7,1.6-0.7c1,0,1.6,0.4,1.9,1.1c0.1,0.3,0.2,0.8,0.2,1.4v3.2h-1.1v-3.1
			c0-1.2-0.3-1.7-1.1-1.7c-0.9,0-1.2,0.5-1.2,1.9v2.9h-1.1V121.3z"/>
		<path class="st1" d="M85.2,118.9h1.1v1.3h-1.1V118.9z M85.2,121.3h1.1v5.7h-1.1V121.3z"/>
		<path class="st1" d="M87.7,122.2v-0.9h0.7l0.1-1.7h1.1v1.7h1.1v0.9h-1.1v2.7c0,0.8,0.2,1.1,1,1.1h0.2v0.9h-0.2
			c-1.7,0-2.1-0.4-2.1-2.1v-2.6H87.7z"/>
		<path class="st1" d="M92.5,125.6c0.4,0.4,0.7,0.6,1.4,0.6c0.9,0,1.3-0.3,1.3-0.8c0-0.3-0.1-0.5-0.3-0.6c-0.2-0.1-0.3-0.1-1-0.2
			c-0.8-0.1-1.1-0.2-1.4-0.5c-0.3-0.3-0.5-0.6-0.5-1.2c0-1.1,0.7-1.7,2-1.7c1,0,1.7,0.3,2.1,1l-0.8,0.5c-0.3-0.4-0.6-0.6-1.2-0.6
			c-0.6,0-1,0.3-1,0.8c0,0.2,0.1,0.4,0.3,0.6c0.2,0.1,0.3,0.1,0.8,0.2c0.9,0.1,1.3,0.2,1.6,0.4c0.3,0.2,0.5,0.7,0.5,1.3
			c0,1.2-0.8,1.7-2.3,1.7c-1.1,0-1.9-0.3-2.3-1L92.5,125.6z"/>
		<path class="st1" d="M99.9,119h1.1v2.7c0.4-0.3,0.8-0.5,1.4-0.5c1.5,0,2.1,0.8,2.1,2.5v0.8c0,1.8-0.6,2.5-2.2,2.5
			c-0.5,0-0.9-0.1-1.3-0.3c0,0-0.1-0.1-0.3-0.3l-0.1,0.4h-0.9V119z M103.5,123.8c0-1.2-0.4-1.7-1.2-1.7c-0.8,0-1.2,0.5-1.2,1.5v1
			c0,1,0.4,1.5,1.2,1.5c0.8,0,1.2-0.5,1.2-1.7V123.8z"/>
		<path class="st1" d="M105.5,121.3h1.2l1.5,4.4l1.3-4.4h1.2l-2.1,6.4c-0.6,1.6-0.9,1.8-2.5,1.9v-0.9c0.9,0,1-0.1,1.4-1l0.2-0.7
			L105.5,121.3z"/>
		<path class="st1" d="M113.6,126.2l2.2-2.8c0.8-1,1.2-1.8,1.2-2.5c0-0.7-0.4-1-1-1c-0.6,0-1.1,0.4-1.2,1.2l-1.1-0.1
			c0.1-1.3,0.9-2,2.3-2c1.4,0,2.2,0.7,2.2,2.1c0,0.6-0.1,1.1-0.5,1.6c-0.3,0.5-0.3,0.5-1.1,1.6l-1.4,1.8h3v1h-4.6V126.2z"/>
		<path class="st1" d="M119.8,121.9c0-1.1,0.1-1.7,0.5-2.2c0.4-0.5,1-0.8,1.8-0.8c1,0,1.6,0.3,2,0.9c0.3,0.4,0.4,1.1,0.4,2.1v2.2
			c0,1.1-0.2,1.7-0.5,2.2c-0.4,0.6-1,0.8-1.9,0.8c-0.9,0-1.5-0.3-1.9-0.9c-0.3-0.4-0.4-1.1-0.4-2.1V121.9z M123.3,122
			c0-1.5-0.3-2.1-1.2-2.1c-0.8,0-1.2,0.6-1.2,2.1v2c0,1.5,0.3,2.1,1.2,2.1c0.9,0,1.2-0.6,1.2-2.1V122z"/>
		<path class="st1" d="M127,122.3h0.6c0.8,0,1.3-0.5,1.3-1.2c0-0.8-0.4-1.2-1.1-1.2c-0.6,0-1,0.3-1.1,0.9l-1.1-0.1
			c0.1-1.2,0.9-1.8,2.2-1.8c1.4,0,2.2,0.8,2.2,2.1c0,0.9-0.3,1.3-1,1.7c0.8,0.4,1.2,1,1.2,2c0,1.5-0.8,2.3-2.4,2.3
			c-1.5,0-2.3-0.6-2.4-1.9l1.1-0.1c0.1,0.7,0.5,1,1.3,1c0.8,0,1.3-0.5,1.3-1.4c0-0.9-0.6-1.5-1.5-1.5H127V122.3z"/>
		<path class="st1" d="M131.8,121.9c0-1.1,0.1-1.7,0.5-2.2c0.4-0.5,1-0.8,1.8-0.8c1,0,1.6,0.3,2,0.9c0.3,0.4,0.4,1.1,0.4,2.1v2.2
			c0,1.1-0.2,1.7-0.5,2.2c-0.4,0.6-1,0.8-1.9,0.8c-0.9,0-1.5-0.3-1.9-0.9c-0.3-0.4-0.4-1.1-0.4-2.1V121.9z M135.4,122
			c0-1.5-0.3-2.1-1.2-2.1c-0.8,0-1.2,0.6-1.2,2.1v2c0,1.5,0.3,2.1,1.2,2.1c0.9,0,1.2-0.6,1.2-2.1V122z"/>
		<path class="st1" d="M142.7,128.4c-1.3-1.8-1.8-3.3-1.8-5.2c0-2,0.5-3.4,1.8-5.2l0.8,0.5c-0.4,0.6-0.6,1.1-0.9,1.7
			c-0.4,0.8-0.6,2-0.6,3c0,1.1,0.2,2.2,0.7,3.2c0.2,0.5,0.4,0.9,0.8,1.5L142.7,128.4z"/>
		<path class="st1" d="M150.7,125c-0.1,1.4-1,2.1-2.7,2.1c-1.1,0-1.8-0.3-2.3-1c-0.4-0.5-0.5-1.1-0.5-2.3v-1.7
			c0-1.2,0.2-1.9,0.6-2.4c0.5-0.6,1.2-0.8,2.1-0.8c1.6,0,2.5,0.7,2.6,2.1l-1.1,0.1c-0.1-0.8-0.6-1.2-1.5-1.2c-1.2,0-1.6,0.6-1.6,2.4
			v1.5c0,1.7,0.4,2.4,1.6,2.4c0.9,0,1.4-0.4,1.5-1.2L150.7,125z"/>
		<path class="st1" d="M152.5,119h4.8v1h-3.6v2.5h3.1v1h-3.1v2.6h3.6v1h-4.8V119z"/>
		<path class="st1" d="M163.5,126.5c-0.5,0.4-1.1,0.6-2,0.6c-1,0-1.8-0.3-2.3-1c-0.4-0.5-0.5-1.1-0.5-2.2V122c0-1.1,0.2-1.8,0.7-2.3
			c0.5-0.6,1.2-0.8,2.2-0.8c1.1,0,1.8,0.3,2.3,1c0.4,0.5,0.5,1.1,0.5,2.2v1.9c0,0.9-0.1,1.4-0.4,1.9l0.8,0.7l-0.6,0.7L163.5,126.5z
			 M161.5,124.9l0.6-0.7l1.1,0.8c0.1-0.4,0.1-0.6,0.1-1.2v-1.7c0-1.6-0.5-2.3-1.7-2.3c-1.2,0-1.7,0.7-1.7,2.3v1.7
			c0,1.6,0.5,2.3,1.7,2.3c0.4,0,0.8-0.1,1-0.3L161.5,124.9z"/>
		<path class="st1" d="M167.8,127h-1.2v-8h2.8c1,0,1.5,0.2,2,0.6c0.4,0.4,0.6,0.9,0.6,1.7c0,1.3-0.5,2-1.6,2.2l1.7,3.5h-1.3
			l-1.6-3.4h-1.4V127z M169.4,122.7c1,0,1.4-0.4,1.4-1.4c0-1-0.4-1.4-1.5-1.4h-1.6v2.7H169.4z"/>
		<path class="st1" d="M176,119h4.8v1h-3.6v2.5h3.1v1h-3.1v2.6h3.6v1H176V119z"/>
		<path class="st1" d="M182.8,125.6c0.4,0.4,0.7,0.6,1.4,0.6c0.9,0,1.3-0.3,1.3-0.8c0-0.3-0.1-0.5-0.3-0.6c-0.2-0.1-0.3-0.1-1-0.2
			c-0.8-0.1-1.1-0.2-1.4-0.5c-0.3-0.3-0.5-0.6-0.5-1.2c0-1.1,0.7-1.7,2-1.7c1,0,1.7,0.3,2.1,1l-0.8,0.5c-0.3-0.4-0.6-0.6-1.2-0.6
			c-0.6,0-1,0.3-1,0.8c0,0.2,0.1,0.4,0.3,0.6c0.2,0.1,0.3,0.1,0.8,0.2c0.9,0.1,1.3,0.2,1.6,0.4c0.3,0.2,0.5,0.7,0.5,1.3
			c0,1.2-0.8,1.7-2.3,1.7c-1.1,0-1.9-0.3-2.3-1L182.8,125.6z"/>
		<path class="st1" d="M187.7,122.2v-0.9h0.7l0.1-1.7h1.1v1.7h1.1v0.9h-1.1v2.7c0,0.8,0.2,1.1,1,1.1h0.2v0.9h-0.2
			c-1.7,0-2.1-0.4-2.1-2.1v-2.6H187.7z"/>
		<path class="st1" d="M192.1,125.7h1.2v1.3h-1.2V125.7z"/>
		<path class="st1" d="M195.9,117.9c1.3,1.8,1.8,3.3,1.8,5.2c0,2-0.5,3.4-1.8,5.2l-0.8-0.5c0.4-0.7,0.6-1.1,0.9-1.7
			c0.4-0.8,0.6-2,0.6-3c0-1.1-0.2-2.2-0.7-3.2c-0.2-0.5-0.4-0.9-0.8-1.5L195.9,117.9z"/>
	</g>
	<g class="st0">
		<path class="st1" d="M22.7,178.4l-0.6,1.7h-1.3l2.9-8h1.2l2.9,8h-1.3l-0.6-1.7H22.7z M24.3,173.5l-1.3,3.9h2.7L24.3,173.5z"/>
		<path class="st1" d="M33,179.2c-0.4,0.7-1.1,1-2.1,1c-1.6,0-2.3-0.9-2.3-2.7v-0.4c0-1.9,0.7-2.8,2.3-2.8c0.9,0,1.6,0.3,2,1
			l-0.8,0.5c-0.3-0.4-0.6-0.6-1.1-0.6c-0.8,0-1.2,0.6-1.2,1.8v0.6c0,1.1,0.4,1.7,1.3,1.7c0.5,0,0.8-0.2,1.1-0.6L33,179.2z"/>
		<path class="st1" d="M33.9,175.3v-0.9h0.7l0.1-1.7h1.1v1.7h1.1v0.9h-1.1v2.7c0,0.8,0.2,1.1,1,1.1h0.2v0.9h-0.2
			c-1.7,0-2.1-0.4-2.1-2.1v-2.6H33.9z"/>
		<path class="st1" d="M39.4,174.4v3.1c0,1.2,0.3,1.7,1.1,1.7c0.8,0,1.1-0.5,1.1-1.9v-2.9h1.1v5.7h-0.8l-0.1-0.6
			c-0.3,0.5-0.8,0.7-1.5,0.7c-1,0-1.6-0.4-1.8-1.1c-0.1-0.3-0.2-0.8-0.2-1.4v-3.2H39.4z"/>
		<path class="st1" d="M47.5,176.4c0-0.8-0.3-1.2-1.1-1.2c-0.5,0-0.9,0.2-1.3,0.6l-0.8-0.6c0.5-0.6,1.2-0.9,2.1-0.9
			c0.9,0,1.6,0.3,1.9,0.9c0.2,0.3,0.2,0.7,0.2,1.4v3.5h-0.9l-0.1-0.4c-0.4,0.4-0.8,0.5-1.6,0.5c-1.4,0-2-0.5-2-1.7
			c0-1.3,0.5-1.8,2.1-1.8h1.3V176.4z M46.4,177.5c-0.9,0-1.2,0.3-1.2,0.9c0,0.6,0.3,0.9,1.2,0.9c0.5,0,0.8-0.1,1-0.3
			c0.1-0.1,0.1-0.3,0.1-0.7v-0.7H46.4z"/>
		<path class="st1" d="M51.5,172.1v6c0,0.8,0.2,1.1,1,1.1h0.2v0.9h-0.3c-1.7,0-2.1-0.4-2.1-2.1v-5.9H51.5z"/>
		<path class="st1" d="M57.1,174.4v3.1c0,1.2,0.3,1.7,1.1,1.7c0.8,0,1.1-0.5,1.1-1.9v-2.9h1.1v5.7h-0.8l-0.1-0.6
			c-0.3,0.5-0.8,0.7-1.5,0.7c-1,0-1.6-0.4-1.8-1.1c-0.1-0.3-0.2-0.8-0.2-1.4v-3.2H57.1z"/>
		<path class="st1" d="M62.2,174.4H63l0.1,0.6c0.4-0.5,0.8-0.7,1.6-0.7c1,0,1.6,0.4,1.9,1.1c0.1,0.3,0.2,0.8,0.2,1.4v3.2h-1.1v-3.1
			c0-1.2-0.3-1.7-1.1-1.7c-0.9,0-1.2,0.5-1.2,1.9v2.9h-1.1V174.4z"/>
		<path class="st1" d="M68.5,172h1.1v1.3h-1.1V172z M68.5,174.4h1.1v5.7h-1.1V174.4z"/>
		<path class="st1" d="M71,175.3v-0.9h0.7l0.1-1.7h1.1v1.7h1.1v0.9h-1.1v2.7c0,0.8,0.2,1.1,1,1.1h0.2v0.9h-0.2
			c-1.7,0-2.1-0.4-2.1-2.1v-2.6H71z"/>
		<path class="st1" d="M75.8,178.7c0.4,0.4,0.7,0.6,1.4,0.6c0.9,0,1.3-0.3,1.3-0.8c0-0.3-0.1-0.5-0.3-0.6c-0.2-0.1-0.3-0.1-1-0.2
			c-0.8-0.1-1.1-0.2-1.4-0.5c-0.3-0.3-0.5-0.6-0.5-1.2c0-1.1,0.7-1.7,2-1.7c1,0,1.7,0.3,2.1,1l-0.8,0.5c-0.3-0.4-0.6-0.6-1.2-0.6
			c-0.6,0-1,0.3-1,0.8c0,0.2,0.1,0.4,0.3,0.6c0.2,0.1,0.3,0.1,0.8,0.2c0.9,0.1,1.3,0.2,1.6,0.4c0.3,0.2,0.5,0.7,0.5,1.3
			c0,1.2-0.8,1.7-2.3,1.7c-1.1,0-1.9-0.3-2.3-1L75.8,178.7z"/>
		<path class="st1" d="M83.2,172.1h1.1v2.7c0.4-0.3,0.8-0.5,1.4-0.5c1.5,0,2.1,0.8,2.1,2.5v0.8c0,1.8-0.6,2.5-2.2,2.5
			c-0.5,0-0.9-0.1-1.3-0.3c0,0-0.1-0.1-0.3-0.3l-0.1,0.4h-0.9V172.1z M86.8,176.9c0-1.2-0.4-1.7-1.2-1.7c-0.8,0-1.2,0.5-1.2,1.5v1
			c0,1,0.4,1.5,1.2,1.5c0.8,0,1.2-0.5,1.2-1.7V176.9z"/>
		<path class="st1" d="M88.8,174.4H90l1.5,4.4l1.3-4.4h1.2l-2.1,6.4c-0.6,1.6-0.9,1.8-2.5,1.9v-0.9c0.9,0,1-0.1,1.4-1l0.2-0.7
			L88.8,174.4z"/>
		<path class="st1" d="M96.9,179.3l2.2-2.8c0.8-1,1.2-1.8,1.2-2.5c0-0.7-0.4-1-1-1c-0.6,0-1.1,0.4-1.2,1.2L97,174
			c0.1-1.3,0.9-2,2.3-2c1.4,0,2.2,0.7,2.2,2.1c0,0.6-0.1,1.1-0.5,1.6c-0.3,0.5-0.3,0.5-1.1,1.6l-1.4,1.8h3v1h-4.6V179.3z"/>
		<path class="st1" d="M103.1,175c0-1.1,0.1-1.7,0.5-2.2c0.4-0.5,1-0.8,1.8-0.8c1,0,1.6,0.3,2,0.9c0.3,0.4,0.4,1.1,0.4,2.1v2.2
			c0,1.1-0.2,1.7-0.5,2.2c-0.4,0.6-1,0.8-1.9,0.8c-0.9,0-1.5-0.3-1.9-0.9c-0.3-0.4-0.4-1.1-0.4-2.1V175z M106.6,175.1
			c0-1.5-0.3-2.1-1.2-2.1c-0.8,0-1.2,0.6-1.2,2.1v2c0,1.5,0.3,2.1,1.2,2.1c0.9,0,1.2-0.6,1.2-2.1V175.1z"/>
		<path class="st1" d="M109,179.3l2.2-2.8c0.8-1,1.2-1.8,1.2-2.5c0-0.7-0.4-1-1-1c-0.6,0-1.1,0.4-1.2,1.2L109,174
			c0.1-1.3,0.9-2,2.3-2c1.4,0,2.2,0.7,2.2,2.1c0,0.6-0.1,1.1-0.5,1.6c-0.3,0.5-0.3,0.5-1.1,1.6l-1.4,1.8h3v1H109V179.3z"/>
		<path class="st1" d="M115,179.3l2.2-2.8c0.8-1,1.2-1.8,1.2-2.5c0-0.7-0.4-1-1-1c-0.6,0-1.1,0.4-1.2,1.2l-1.1-0.1
			c0.1-1.3,0.9-2,2.3-2c1.4,0,2.2,0.7,2.2,2.1c0,0.6-0.1,1.1-0.5,1.6c-0.3,0.5-0.3,0.5-1.1,1.6l-1.4,1.8h3v1H115V179.3z"/>
	</g>
	<rect x="18.9" y="232" class="st5" width="319.9" height="38.7"/>
	<g class="st0">
		<path class="st14" d="M20.6,232.2c0-0.2,0-0.4-0.1-0.5c-0.1-0.1-0.3-0.2-0.5-0.2c-0.3,0-0.5,0.1-0.7,0.3l-0.3-0.2
			c0.3-0.3,0.6-0.4,1.1-0.4c0.5,0,0.8,0.1,0.9,0.4c0.1,0.2,0.1,0.3,0.1,0.7v1.9h-0.4l0-0.2c-0.2,0.2-0.4,0.3-0.9,0.3
			c-0.8,0-1-0.2-1-0.9c0-0.7,0.3-0.9,1.1-0.9h0.7V232.2z M20,232.7c-0.5,0-0.7,0.2-0.7,0.5c0,0.4,0.2,0.5,0.7,0.5
			c0.3,0,0.5-0.1,0.6-0.2c0.1-0.1,0.1-0.2,0.1-0.4v-0.5H20z"/>
	</g>
	<g class="st0">
		<path class="st14" d="M23,232h2.6c0.7,0,1.1,0.1,1.5,0.4c0.4,0.3,0.5,0.8,0.5,1.4c0,0.7-0.3,1.2-0.8,1.6l0.1,0.1
			c0.3,0.2,0.4,0.3,0.6,0.5c0.2,0.3,0.3,0.7,0.3,1.2c0,0.7-0.2,1.2-0.6,1.5c-0.3,0.3-0.7,0.4-1.4,0.4H23V232z M25.6,235.1
			c0.4,0,0.7-0.1,0.9-0.3c0.2-0.2,0.4-0.6,0.4-1c0-0.4-0.2-0.8-0.4-1c-0.2-0.2-0.4-0.2-0.8-0.2h-1.7v2.4H25.6z M25.7,238.4
			c0.4,0,0.7-0.1,0.9-0.3c0.2-0.2,0.4-0.6,0.4-1c0-0.5-0.2-0.9-0.4-1.1c-0.2-0.2-0.4-0.2-0.8-0.2h-1.9v2.6H25.7z"/>
		<path class="st14" d="M32,235.8c0-0.4,0-0.6-0.2-0.8c-0.2-0.2-0.5-0.4-0.9-0.4c-0.5,0-0.9,0.2-1.2,0.5l-0.5-0.4
			c0.4-0.5,1-0.8,1.8-0.8c0.8,0,1.3,0.2,1.6,0.7c0.2,0.3,0.2,0.6,0.2,1.2v3.2h-0.6l-0.1-0.4c-0.3,0.3-0.7,0.4-1.5,0.4
			c-1.3,0-1.8-0.4-1.8-1.5c0-1.2,0.5-1.5,1.9-1.5H32V235.8z M30.9,236.8c-0.9,0-1.2,0.3-1.2,0.9c0,0.6,0.3,0.8,1.2,0.8
			c0.5,0,0.9-0.1,1-0.3c0.1-0.1,0.1-0.3,0.1-0.7v-0.8H30.9z"/>
		<path class="st14" d="M34.6,238c0.3,0.4,0.7,0.5,1.3,0.5c0.8,0,1.3-0.3,1.3-0.8c0-0.3-0.1-0.5-0.3-0.6c-0.2-0.1-0.3-0.1-0.9-0.2
			c-0.7-0.1-1-0.2-1.2-0.4c-0.3-0.2-0.4-0.5-0.4-1c0-1,0.6-1.5,1.7-1.5c0.8,0,1.4,0.2,1.8,0.8l-0.6,0.4c-0.3-0.4-0.6-0.5-1.2-0.5
			c-0.6,0-1,0.3-1,0.8c0,0.2,0.1,0.5,0.3,0.6c0.2,0.1,0.3,0.1,0.8,0.2c0.8,0.1,1.1,0.2,1.4,0.4c0.3,0.2,0.4,0.6,0.4,1.1
			c0,1-0.7,1.5-2,1.5c-0.9,0-1.6-0.3-2-0.8L34.6,238z"/>
		<path class="st14" d="M40,237c0,1,0.5,1.6,1.4,1.6c0.5,0,0.9-0.1,1.1-0.5l0.6,0.4c-0.4,0.5-0.9,0.8-1.8,0.8
			c-1.4,0-2.1-0.8-2.1-2.4v-0.4c0-1.7,0.6-2.4,2-2.4s2,0.8,2,2.4v0.4H40V237z M42.5,236.2L42.5,236.2c0-0.5-0.1-0.8-0.3-1.1
			c-0.2-0.3-0.5-0.4-1-0.4c-0.5,0-0.8,0.2-1.1,0.5c-0.1,0.2-0.2,0.6-0.2,0.9v0.1H42.5z"/>
		<path class="st14" d="M48,238.7C48,238.7,48,238.7,48,238.7c-0.1,0.1-0.1,0.1-0.2,0.2c-0.2,0.2-0.7,0.3-1.3,0.3
			c-1.3,0-1.9-0.7-1.9-2.2v-0.8c0-1.5,0.6-2.2,1.9-2.2c0.4,0,0.8,0.1,1.1,0.2c0,0,0.1,0.1,0.3,0.2V232h0.8v7.1h-0.6L48,238.7z
			 M45.4,236.9c0,1.1,0.4,1.6,1.2,1.6c0.8,0,1.2-0.5,1.2-1.5v-0.8c0-1-0.4-1.5-1.2-1.5c-0.8,0-1.2,0.5-1.2,1.6V236.9z"/>
		<path class="st14" d="M52.3,236.2c0-1.5,0.6-2.2,2.1-2.2c1.4,0,2.1,0.7,2.1,2.2v0.8c0,1.5-0.6,2.2-2.1,2.2c-1.4,0-2.1-0.7-2.1-2.2
			V236.2z M55.6,236.3c0-1.1-0.4-1.6-1.3-1.6c-0.9,0-1.3,0.5-1.3,1.6v0.7c0,1.1,0.4,1.6,1.3,1.6c0.9,0,1.3-0.5,1.3-1.6V236.3z"/>
		<path class="st14" d="M58,234.1h0.6l0.1,0.6c0.3-0.5,0.7-0.7,1.4-0.7c0.9,0,1.5,0.3,1.7,1c0.1,0.3,0.1,0.7,0.1,1.3v2.9h-0.8v-2.8
			c0-1.2-0.3-1.6-1.1-1.6c-0.9,0-1.2,0.5-1.2,1.9v2.5H58V234.1z"/>
		<path class="st14" d="M65.7,234.1h0.6l0.1,0.6c0.3-0.5,0.7-0.7,1.4-0.7c0.9,0,1.5,0.3,1.7,1c0.1,0.3,0.1,0.7,0.1,1.3v2.9h-0.8
			v-2.8c0-1.2-0.3-1.6-1.1-1.6c-0.9,0-1.2,0.5-1.2,1.9v2.5h-0.8V234.1z"/>
		<path class="st14" d="M72,237c0,1,0.5,1.6,1.4,1.6c0.5,0,0.9-0.1,1.1-0.5l0.6,0.4c-0.4,0.5-0.9,0.8-1.8,0.8
			c-1.4,0-2.1-0.8-2.1-2.4v-0.4c0-1.7,0.6-2.4,2-2.4s2,0.8,2,2.4v0.4H72V237z M74.5,236.2L74.5,236.2c0-0.5-0.1-0.8-0.3-1.1
			c-0.2-0.3-0.5-0.4-1-0.4c-0.5,0-0.8,0.2-1.1,0.5c-0.1,0.2-0.2,0.6-0.2,0.9v0.1H74.5z"/>
		<path class="st14" d="M76.2,234.1H77l1.1,3.9l1.3-3.9H80l1.3,3.9l1.1-3.9h0.8l-1.5,5H81l-1.3-3.8l-1.3,3.8h-0.6L76.2,234.1z"/>
		<path class="st14" d="M90,238.4c-0.4,0.5-0.9,0.8-1.7,0.8c-1.3,0-2-0.8-2-2.3v-0.4c0-1.7,0.6-2.5,2-2.5c0.8,0,1.3,0.3,1.7,0.8
			l-0.6,0.3c-0.3-0.4-0.5-0.5-1-0.5c-0.8,0-1.2,0.6-1.2,1.7v0.5c0,1,0.4,1.6,1.3,1.6c0.5,0,0.8-0.2,1.1-0.5L90,238.4z"/>
		<path class="st14" d="M91.1,236.2c0-1.5,0.6-2.2,2.1-2.2c1.4,0,2.1,0.7,2.1,2.2v0.8c0,1.5-0.6,2.2-2.1,2.2c-1.4,0-2.1-0.7-2.1-2.2
			V236.2z M94.4,236.3c0-1.1-0.4-1.6-1.3-1.6c-0.9,0-1.3,0.5-1.3,1.6v0.7c0,1.1,0.4,1.6,1.3,1.6c0.9,0,1.3-0.5,1.3-1.6V236.3z"/>
		<path class="st14" d="M96.8,234.1h0.6l0.1,0.6c0.3-0.5,0.7-0.7,1.4-0.7c0.9,0,1.5,0.3,1.7,1c0.1,0.3,0.1,0.7,0.1,1.3v2.9h-0.8
			v-2.8c0-1.2-0.3-1.6-1.1-1.6c-0.9,0-1.2,0.5-1.2,1.9v2.5h-0.8V234.1z"/>
		<path class="st14" d="M102.4,238c0.3,0.4,0.7,0.5,1.3,0.5c0.8,0,1.3-0.3,1.3-0.8c0-0.3-0.1-0.5-0.3-0.6c-0.2-0.1-0.3-0.1-0.9-0.2
			c-0.7-0.1-1-0.2-1.2-0.4c-0.3-0.2-0.4-0.5-0.4-1c0-1,0.6-1.5,1.7-1.5c0.8,0,1.4,0.2,1.8,0.8l-0.6,0.4c-0.3-0.4-0.6-0.5-1.2-0.5
			c-0.6,0-1,0.3-1,0.8c0,0.2,0.1,0.5,0.3,0.6c0.2,0.1,0.3,0.1,0.8,0.2c0.8,0.1,1.1,0.2,1.4,0.4c0.3,0.2,0.4,0.6,0.4,1.1
			c0,1-0.7,1.5-2,1.5c-0.9,0-1.6-0.3-2-0.8L102.4,238z"/>
		<path class="st14" d="M106.9,234.7v-0.7h0.6l0-1.6h0.7v1.6h1v0.7h-1v2.8c0,0.7,0.2,0.9,0.8,0.9h0.2v0.7h-0.2
			c-1.3,0-1.6-0.3-1.6-1.7v-2.7H106.9z"/>
		<path class="st14" d="M110.7,234.1h0.6l0.1,0.5c0.3-0.4,0.6-0.6,1.2-0.6c0.4,0,0.6,0.1,1,0.3l-0.3,0.7c-0.3-0.2-0.5-0.2-0.7-0.2
			c-0.7,0-1,0.6-1,2v2.4h-0.8V234.1z"/>
		<path class="st14" d="M115.4,234.1v2.8c0,0.5,0,0.8,0.1,1c0.2,0.4,0.5,0.6,1,0.6c0.8,0,1.2-0.5,1.2-1.9v-2.5h0.8v5h-0.6l-0.1-0.6
			c-0.3,0.4-0.7,0.6-1.4,0.6c-0.9,0-1.4-0.3-1.6-1c-0.1-0.3-0.1-0.7-0.1-1.3v-2.9H115.4z"/>
		<path class="st14" d="M123.8,238.4c-0.4,0.5-0.9,0.8-1.7,0.8c-1.3,0-2-0.8-2-2.3v-0.4c0-1.7,0.6-2.5,2-2.5c0.8,0,1.3,0.3,1.7,0.8
			l-0.6,0.3c-0.3-0.4-0.5-0.5-1-0.5c-0.8,0-1.2,0.6-1.2,1.7v0.5c0,1,0.4,1.6,1.3,1.6c0.5,0,0.8-0.2,1.1-0.5L123.8,238.4z"/>
		<path class="st14" d="M124.8,234.7v-0.7h0.6l0-1.6h0.7v1.6h1v0.7h-1v2.8c0,0.7,0.2,0.9,0.8,0.9h0.2v0.7h-0.2
			c-1.3,0-1.6-0.3-1.6-1.7v-2.7H124.8z"/>
		<path class="st14" d="M128.6,231.9h0.8v1.1h-0.8V231.9z M128.6,234.1h0.8v5h-0.8V234.1z"/>
		<path class="st14" d="M131,236.2c0-1.5,0.6-2.2,2.1-2.2c1.4,0,2.1,0.7,2.1,2.2v0.8c0,1.5-0.6,2.2-2.1,2.2c-1.4,0-2.1-0.7-2.1-2.2
			V236.2z M134.4,236.3c0-1.1-0.4-1.6-1.3-1.6c-0.9,0-1.3,0.5-1.3,1.6v0.7c0,1.1,0.4,1.6,1.3,1.6c0.9,0,1.3-0.5,1.3-1.6V236.3z"/>
		<path class="st14" d="M136.8,234.1h0.6l0.1,0.6c0.3-0.5,0.7-0.7,1.4-0.7c0.9,0,1.5,0.3,1.7,1c0.1,0.3,0.1,0.7,0.1,1.3v2.9h-0.8
			v-2.8c0-1.2-0.3-1.6-1.1-1.6c-0.9,0-1.2,0.5-1.2,1.9v2.5h-0.8V234.1z"/>
		<path class="st14" d="M144.2,236.2c0-1.5,0.6-2.2,2.1-2.2c1.4,0,2.1,0.7,2.1,2.2v0.8c0,1.5-0.6,2.2-2.1,2.2
			c-1.4,0-2.1-0.7-2.1-2.2V236.2z M147.6,236.3c0-1.1-0.4-1.6-1.3-1.6c-0.9,0-1.3,0.5-1.3,1.6v0.7c0,1.1,0.4,1.6,1.3,1.6
			c0.9,0,1.3-0.5,1.3-1.6V236.3z"/>
		<path class="st14" d="M149.3,234.1h0.8l1.4,4l1.4-4h0.8l-1.8,5h-0.7L149.3,234.1z"/>
		<path class="st14" d="M155.4,237c0,1,0.5,1.6,1.4,1.6c0.5,0,0.9-0.1,1.1-0.5l0.6,0.4c-0.4,0.5-0.9,0.8-1.8,0.8
			c-1.4,0-2.1-0.8-2.1-2.4v-0.4c0-1.7,0.6-2.4,2-2.4s2,0.8,2,2.4v0.4h-3.3V237z M157.9,236.2L157.9,236.2c0-0.5-0.1-0.8-0.3-1.1
			c-0.2-0.3-0.5-0.4-1-0.4c-0.5,0-0.8,0.2-1.1,0.5c-0.1,0.2-0.2,0.6-0.2,0.9v0.1H157.9z"/>
		<path class="st14" d="M160.2,234.1h0.6l0.1,0.5c0.3-0.4,0.6-0.6,1.2-0.6c0.4,0,0.6,0.1,1,0.3l-0.3,0.7c-0.3-0.2-0.5-0.2-0.7-0.2
			c-0.7,0-1,0.6-1,2v2.4h-0.8V234.1z"/>
		<path class="st14" d="M166.9,235.8c0-0.4,0-0.6-0.2-0.8c-0.2-0.2-0.5-0.4-0.9-0.4c-0.5,0-0.9,0.2-1.2,0.5l-0.5-0.4
			c0.4-0.5,1-0.8,1.8-0.8c0.8,0,1.3,0.2,1.6,0.7c0.2,0.3,0.2,0.6,0.2,1.2v3.2h-0.6l-0.1-0.4c-0.3,0.3-0.7,0.4-1.5,0.4
			c-1.3,0-1.8-0.4-1.8-1.5c0-1.2,0.5-1.5,1.9-1.5h1.2V235.8z M165.8,236.8c-0.9,0-1.2,0.3-1.2,0.9c0,0.6,0.3,0.8,1.2,0.8
			c0.5,0,0.9-0.1,1-0.3c0.1-0.1,0.1-0.3,0.1-0.7v-0.8H165.8z"/>
		<path class="st14" d="M170.2,232v5.5c0,0.7,0.2,0.9,0.8,0.9h0.3v0.7H171c-1.3,0-1.6-0.3-1.6-1.7V232H170.2z"/>
		<path class="st14" d="M173.1,232v5.5c0,0.7,0.2,0.9,0.8,0.9h0.3v0.7h-0.3c-1.3,0-1.6-0.3-1.6-1.7V232H173.1z"/>
		<path class="st14" d="M175.6,238.1h0.8v1h-0.8V238.1z"/>
	</g>
	<g class="st0">
		<path class="st14" d="M178.7,231.6h0.5v1.5c0.2-0.2,0.4-0.3,0.8-0.3c0.8,0,1.1,0.4,1.1,1.3v0.4c0,0.9-0.3,1.3-1.1,1.3
			c-0.3,0-0.5-0.1-0.7-0.2c0,0-0.1-0.1-0.2-0.1l0,0.3h-0.4V231.6z M180.6,234.1c0-0.6-0.2-0.9-0.7-0.9c-0.5,0-0.7,0.3-0.7,0.9v0.5
			c0,0.6,0.2,0.9,0.7,0.9c0.5,0,0.7-0.3,0.7-0.9V234.1z"/>
	</g>
	<g class="st0">
		<path class="st14" d="M182.9,237.5l-0.5,1.6h-0.9l2.6-7.1h0.8l2.6,7.1h-0.9l-0.5-1.6H182.9z M184.5,233l-1.3,3.8h2.7L184.5,233z"
			/>
		<path class="st14" d="M188,234.7v-0.7h0.6v-0.8c0-1,0.3-1.3,1.4-1.3h0.4v0.6h-0.2c-0.6,0-0.8,0.1-0.8,0.8v0.7h1v0.7h-1v4.4h-0.8
			v-4.4H188z M191,234.7v-0.7h0.6v-0.8c0-1,0.3-1.3,1.4-1.3h0.4v0.6h-0.3c-0.6,0-0.8,0.1-0.8,0.8v0.7h1.1v0.7h-1.1v4.4h-0.8v-4.4
			H191z"/>
		<path class="st14" d="M194.6,236.2c0-1.5,0.7-2.2,2.1-2.2c1.4,0,2.1,0.7,2.1,2.2v0.8c0,1.5-0.7,2.2-2.1,2.2
			c-1.4,0-2.1-0.7-2.1-2.2V236.2z M197.9,236.3c0-1.1-0.4-1.6-1.3-1.6c-0.9,0-1.3,0.5-1.3,1.6v0.7c0,1.1,0.4,1.6,1.3,1.6
			c0.9,0,1.3-0.5,1.3-1.6V236.3z"/>
		<path class="st14" d="M200.3,234.1h0.6l0.1,0.5c0.3-0.4,0.6-0.6,1.2-0.6c0.4,0,0.6,0.1,1,0.3l-0.3,0.7c-0.3-0.2-0.5-0.2-0.7-0.2
			c-0.7,0-1,0.6-1,2v2.4h-0.8V234.1z"/>
		<path class="st14" d="M207.4,238.7C207.3,238.7,207.3,238.7,207.4,238.7c-0.1,0.1-0.1,0.1-0.2,0.2c-0.2,0.2-0.7,0.3-1.3,0.3
			c-1.3,0-1.9-0.7-1.9-2.2v-0.8c0-1.5,0.6-2.2,1.9-2.2c0.4,0,0.8,0.1,1.1,0.2c0,0,0.1,0.1,0.3,0.2V232h0.8v7.1h-0.6L207.4,238.7z
			 M204.8,236.9c0,1.1,0.4,1.6,1.2,1.6c0.8,0,1.2-0.5,1.2-1.5v-0.8c0-1-0.4-1.5-1.2-1.5c-0.8,0-1.2,0.5-1.2,1.6V236.9z"/>
		<path class="st14" d="M212.5,235.8c0-0.4,0-0.6-0.2-0.8c-0.2-0.2-0.5-0.4-0.9-0.4c-0.5,0-0.9,0.2-1.2,0.5l-0.5-0.4
			c0.4-0.5,1-0.8,1.8-0.8c0.8,0,1.3,0.2,1.6,0.7c0.2,0.3,0.2,0.6,0.2,1.2v3.2h-0.6l-0.1-0.4c-0.3,0.3-0.7,0.4-1.5,0.4
			c-1.3,0-1.8-0.4-1.8-1.5c0-1.2,0.5-1.5,1.9-1.5h1.2V235.8z M211.4,236.8c-0.9,0-1.2,0.3-1.2,0.9c0,0.6,0.3,0.8,1.2,0.8
			c0.5,0,0.9-0.1,1-0.3c0.1-0.1,0.1-0.3,0.1-0.7v-0.8H211.4z"/>
		<path class="st14" d="M215.1,232h0.8v2.5c0.4-0.3,0.8-0.5,1.4-0.5c1.3,0,1.9,0.7,1.9,2.2v0.8c0,1.5-0.6,2.2-1.9,2.2
			c-0.5,0-0.9-0.1-1.2-0.3c0,0-0.1-0.1-0.3-0.2l0,0.4h-0.6V232z M218.3,236.3c0-1.1-0.4-1.6-1.2-1.6c-0.8,0-1.2,0.5-1.2,1.5v0.8
			c0,1,0.4,1.5,1.2,1.5c0.8,0,1.2-0.5,1.2-1.6V236.3z"/>
		<path class="st14" d="M221.5,232v5.5c0,0.7,0.2,0.9,0.8,0.9h0.3v0.7h-0.3c-1.3,0-1.6-0.3-1.6-1.7V232H221.5z"/>
		<path class="st14" d="M224.3,237c0,1,0.5,1.6,1.4,1.6c0.5,0,0.9-0.1,1.1-0.5l0.6,0.4c-0.4,0.5-0.9,0.8-1.8,0.8
			c-1.4,0-2.1-0.8-2.1-2.4v-0.4c0-1.7,0.6-2.4,2-2.4c1.4,0,2,0.8,2,2.4v0.4h-3.3V237z M226.8,236.2L226.8,236.2
			c0-0.5-0.1-0.8-0.3-1.1c-0.2-0.3-0.5-0.4-1-0.4c-0.5,0-0.8,0.2-1.1,0.5c-0.1,0.2-0.2,0.6-0.2,0.9v0.1H226.8z"/>
		<path class="st14" d="M231.8,234.1v2.8c0,0.5,0,0.8,0.1,1c0.2,0.4,0.5,0.6,1,0.6c0.8,0,1.2-0.5,1.2-1.9v-2.5h0.8v5h-0.6l-0.1-0.6
			c-0.3,0.4-0.7,0.6-1.4,0.6c-0.9,0-1.4-0.3-1.6-1c-0.1-0.3-0.1-0.7-0.1-1.3v-2.9H231.8z"/>
		<path class="st14" d="M236.6,234.1h0.6l0.1,0.6c0.3-0.5,0.7-0.7,1.4-0.7c0.9,0,1.5,0.3,1.7,1c0.1,0.3,0.1,0.7,0.1,1.3v2.9h-0.8
			v-2.8c0-1.2-0.3-1.6-1.1-1.6c-0.9,0-1.2,0.5-1.2,1.9v2.5h-0.8V234.1z"/>
		<path class="st14" d="M242.3,231.9h0.8v1.1h-0.8V231.9z M242.3,234.1h0.8v5h-0.8V234.1z"/>
		<path class="st14" d="M244.4,234.7v-0.7h0.6l0-1.6h0.8v1.6h1v0.7h-1v2.8c0,0.7,0.2,0.9,0.8,0.9h0.2v0.7h-0.2
			c-1.3,0-1.6-0.3-1.6-1.7v-2.7H244.4z"/>
		<path class="st14" d="M248.5,238c0.3,0.4,0.7,0.5,1.3,0.5c0.8,0,1.3-0.3,1.3-0.8c0-0.3-0.1-0.5-0.3-0.6c-0.2-0.1-0.3-0.1-0.9-0.2
			c-0.7-0.1-1-0.2-1.2-0.4c-0.3-0.2-0.4-0.5-0.4-1c0-1,0.6-1.5,1.7-1.5c0.8,0,1.4,0.2,1.8,0.8l-0.6,0.4c-0.3-0.4-0.6-0.5-1.2-0.5
			c-0.6,0-1,0.3-1,0.8c0,0.2,0.1,0.5,0.3,0.6c0.2,0.1,0.3,0.1,0.8,0.2c0.8,0.1,1.1,0.2,1.4,0.4c0.3,0.2,0.4,0.6,0.4,1.1
			c0,1-0.7,1.5-2,1.5c-0.9,0-1.6-0.3-2-0.8L248.5,238z"/>
		<path class="st14" d="M258.8,238.4c-0.4,0.5-0.9,0.8-1.7,0.8c-1.3,0-2-0.8-2-2.3v-0.4c0-1.7,0.6-2.5,2-2.5c0.8,0,1.3,0.3,1.7,0.8
			l-0.6,0.3c-0.3-0.4-0.5-0.5-1-0.5c-0.8,0-1.2,0.6-1.2,1.7v0.5c0,1,0.4,1.6,1.3,1.6c0.5,0,0.8-0.2,1.1-0.5L258.8,238.4z"/>
		<path class="st14" d="M259.8,236.2c0-1.5,0.7-2.2,2.1-2.2c1.4,0,2.1,0.7,2.1,2.2v0.8c0,1.5-0.7,2.2-2.1,2.2
			c-1.4,0-2.1-0.7-2.1-2.2V236.2z M263.2,236.3c0-1.1-0.4-1.6-1.3-1.6c-0.9,0-1.3,0.5-1.3,1.6v0.7c0,1.1,0.4,1.6,1.3,1.6
			c0.9,0,1.3-0.5,1.3-1.6V236.3z"/>
		<path class="st14" d="M266.3,234.1v2.8c0,0.5,0,0.8,0.1,1c0.2,0.4,0.5,0.6,1,0.6c0.8,0,1.2-0.5,1.2-1.9v-2.5h0.8v5h-0.6l-0.1-0.6
			c-0.3,0.4-0.7,0.6-1.4,0.6c-0.9,0-1.4-0.3-1.6-1c-0.1-0.3-0.1-0.7-0.1-1.3v-2.9H266.3z"/>
		<path class="st14" d="M271.1,234.1h0.6l0.1,0.6c0.3-0.5,0.7-0.7,1.4-0.7c0.9,0,1.5,0.3,1.7,1c0.1,0.3,0.1,0.7,0.1,1.3v2.9h-0.8
			v-2.8c0-1.2-0.3-1.6-1.1-1.6c-0.9,0-1.2,0.5-1.2,1.9v2.5h-0.8V234.1z"/>
		<path class="st14" d="M276.3,234.7v-0.7h0.6l0-1.6h0.7v1.6h1v0.7h-1v2.8c0,0.7,0.2,0.9,0.8,0.9h0.2v0.7h-0.2
			c-1.3,0-1.6-0.3-1.6-1.7v-2.7H276.3z"/>
		<path class="st14" d="M280.7,237c0,1,0.5,1.6,1.4,1.6c0.5,0,0.9-0.1,1.1-0.5l0.6,0.4c-0.4,0.5-0.9,0.8-1.8,0.8
			c-1.4,0-2.1-0.8-2.1-2.4v-0.4c0-1.7,0.6-2.4,2-2.4c1.4,0,2,0.8,2,2.4v0.4h-3.3V237z M283.2,236.2L283.2,236.2
			c0-0.5-0.1-0.8-0.3-1.1c-0.2-0.3-0.5-0.4-1-0.4c-0.5,0-0.8,0.2-1.1,0.5c-0.1,0.2-0.2,0.6-0.2,0.9v0.1H283.2z"/>
		<path class="st14" d="M288.7,238.7C288.7,238.7,288.7,238.7,288.7,238.7c-0.1,0.1-0.1,0.1-0.2,0.2c-0.2,0.2-0.7,0.3-1.3,0.3
			c-1.3,0-1.9-0.7-1.9-2.2v-0.8c0-1.5,0.6-2.2,1.9-2.2c0.4,0,0.8,0.1,1.1,0.2c0,0,0.1,0.1,0.3,0.2V232h0.8v7.1h-0.6L288.7,238.7z
			 M286.1,236.9c0,1.1,0.4,1.6,1.2,1.6c0.8,0,1.2-0.5,1.2-1.5v-0.8c0-1-0.4-1.5-1.2-1.5c-0.8,0-1.2,0.5-1.2,1.6V236.9z"/>
		<path class="st14" d="M292.7,234.7v-0.7h0.6l0-1.6h0.8v1.6h1v0.7h-1v2.8c0,0.7,0.2,0.9,0.8,0.9h0.2v0.7H295
			c-1.3,0-1.6-0.3-1.6-1.7v-2.7H292.7z"/>
		<path class="st14" d="M296.3,236.2c0-1.5,0.7-2.2,2.1-2.2c1.4,0,2.1,0.7,2.1,2.2v0.8c0,1.5-0.7,2.2-2.1,2.2
			c-1.4,0-2.1-0.7-2.1-2.2V236.2z M299.7,236.3c0-1.1-0.4-1.6-1.3-1.6c-0.9,0-1.3,0.5-1.3,1.6v0.7c0,1.1,0.4,1.6,1.3,1.6
			c0.9,0,1.3-0.5,1.3-1.6V236.3z"/>
		<path class="st14" d="M301.5,234.1h0.8l1.1,3.9l1.3-3.9h0.6l1.3,3.9l1.1-3.9h0.8l-1.5,5h-0.6l-1.3-3.8l-1.3,3.8H303L301.5,234.1z"
			/>
		<path class="st14" d="M312.4,235.8c0-0.4,0-0.6-0.2-0.8c-0.2-0.2-0.5-0.4-0.9-0.4c-0.5,0-0.9,0.2-1.2,0.5l-0.5-0.4
			c0.4-0.5,1-0.8,1.8-0.8c0.8,0,1.3,0.2,1.6,0.7c0.2,0.3,0.2,0.6,0.2,1.2v3.2h-0.6l-0.1-0.4c-0.3,0.3-0.7,0.4-1.5,0.4
			c-1.3,0-1.8-0.4-1.8-1.5c0-1.2,0.5-1.5,1.9-1.5h1.2V235.8z M311.3,236.8c-0.9,0-1.2,0.3-1.2,0.9c0,0.6,0.3,0.8,1.2,0.8
			c0.5,0,0.9-0.1,1-0.3c0.1-0.1,0.1-0.3,0.1-0.7v-0.8H311.3z"/>
		<path class="st14" d="M315,234.1h0.6l0.1,0.5c0.3-0.4,0.6-0.6,1.2-0.6c0.4,0,0.6,0.1,1,0.3l-0.3,0.7c-0.3-0.2-0.5-0.2-0.7-0.2
			c-0.7,0-1,0.6-1,2v2.4H315V234.1z"/>
		<path class="st14" d="M322,238.7C322,238.7,322,238.7,322,238.7c-0.1,0.1-0.1,0.1-0.2,0.2c-0.2,0.2-0.7,0.3-1.3,0.3
			c-1.3,0-1.9-0.7-1.9-2.2v-0.8c0-1.5,0.6-2.2,1.9-2.2c0.4,0,0.8,0.1,1.1,0.2c0,0,0.1,0.1,0.3,0.2V232h0.8v7.1h-0.6L322,238.7z
			 M319.4,236.9c0,1.1,0.4,1.6,1.2,1.6c0.8,0,1.2-0.5,1.2-1.5v-0.8c0-1-0.4-1.5-1.2-1.5c-0.8,0-1.2,0.5-1.2,1.6V236.9z"/>
	</g>
	<g class="st0">
		<path class="st14" d="M20,244h0.8v3.2h3.1V244h0.8v7.1h-0.8v-3.3h-3.1v3.3H20V244z"/>
		<path class="st14" d="M26.5,248.2c0-1.5,0.6-2.2,2.1-2.2c1.4,0,2.1,0.7,2.1,2.2v0.8c0,1.5-0.6,2.2-2.1,2.2c-1.4,0-2.1-0.7-2.1-2.2
			V248.2z M29.8,248.3c0-1.1-0.4-1.6-1.3-1.6c-0.9,0-1.3,0.5-1.3,1.6v0.7c0,1.1,0.4,1.6,1.3,1.6c0.9,0,1.3-0.5,1.3-1.6V248.3z"/>
		<path class="st14" d="M32.9,246.1v2.8c0,0.5,0,0.8,0.1,1c0.2,0.4,0.5,0.6,1,0.6c0.8,0,1.2-0.5,1.2-1.9v-2.5H36v5h-0.6l-0.1-0.6
			c-0.3,0.4-0.7,0.6-1.4,0.6c-0.9,0-1.4-0.3-1.6-1c-0.1-0.3-0.1-0.7-0.1-1.3v-2.9H32.9z"/>
		<path class="st14" d="M37.7,250c0.3,0.4,0.7,0.5,1.3,0.5c0.8,0,1.3-0.3,1.3-0.8c0-0.3-0.1-0.5-0.3-0.6c-0.2-0.1-0.3-0.1-0.9-0.2
			c-0.7-0.1-1-0.2-1.2-0.4c-0.3-0.2-0.4-0.5-0.4-1c0-1,0.6-1.5,1.7-1.5c0.8,0,1.4,0.2,1.8,0.8l-0.6,0.4c-0.3-0.4-0.6-0.5-1.2-0.5
			c-0.6,0-1,0.3-1,0.8c0,0.2,0.1,0.5,0.3,0.6c0.2,0.1,0.3,0.1,0.8,0.2c0.8,0.1,1.1,0.2,1.4,0.4c0.3,0.2,0.4,0.6,0.4,1.1
			c0,1-0.7,1.5-2,1.5c-0.9,0-1.6-0.3-2-0.8L37.7,250z"/>
		<path class="st14" d="M42.5,243.9h0.8v1.1h-0.8V243.9z M42.5,246.1h0.8v5h-0.8V246.1z"/>
		<path class="st14" d="M45,246.1h0.6l0.1,0.6c0.3-0.5,0.7-0.7,1.4-0.7c0.9,0,1.5,0.3,1.7,1c0.1,0.3,0.1,0.7,0.1,1.3v2.9h-0.8v-2.8
			c0-1.2-0.3-1.6-1.1-1.6c-0.9,0-1.2,0.5-1.2,1.9v2.5H45V246.1z"/>
		<path class="st14" d="M53.8,250.7c-0.3,0.3-0.8,0.5-1.4,0.5c-1.3,0-1.9-0.7-1.9-2.2v-0.8c0-1.5,0.6-2.2,1.9-2.2
			c0.7,0,1.1,0.2,1.5,0.5l0.1-0.5h0.6v5c0,1.6-0.7,2.3-2.1,2.3c-0.8,0-1.4-0.2-1.7-0.8l0.6-0.4c0.3,0.4,0.6,0.5,1.1,0.5
			c0.9,0,1.3-0.5,1.4-1.6L53.8,250.7z M51.3,248.9c0,1.1,0.4,1.6,1.2,1.6c0.8,0,1.2-0.5,1.2-1.5v-0.8c0-1-0.4-1.5-1.2-1.5
			c-0.8,0-1.2,0.5-1.2,1.6V248.9z"/>
		<path class="st14" d="M58.5,244h0.8l3.5,5.7V244h0.8v7.1h-0.8l-3.5-5.7v5.7h-0.8V244z"/>
		<path class="st14" d="M67.2,248.5L65,244h0.9l1.8,3.7l1.8-3.7h0.9l-2.2,4.6v2.6h-0.8V248.5z"/>
		<path class="st14" d="M73.2,250c0.3,0.4,0.7,0.5,1.3,0.5c0.8,0,1.3-0.3,1.3-0.8c0-0.3-0.1-0.5-0.3-0.6c-0.2-0.1-0.3-0.1-0.9-0.2
			c-0.7-0.1-1-0.2-1.2-0.4c-0.3-0.2-0.4-0.5-0.4-1c0-1,0.6-1.5,1.7-1.5c0.8,0,1.4,0.2,1.8,0.8l-0.6,0.4c-0.3-0.4-0.6-0.5-1.2-0.5
			c-0.6,0-1,0.3-1,0.8c0,0.2,0.1,0.5,0.3,0.6c0.2,0.1,0.3,0.1,0.8,0.2c0.8,0.1,1.1,0.2,1.4,0.4c0.3,0.2,0.4,0.6,0.4,1.1
			c0,1-0.7,1.5-2,1.5c-0.9,0-1.6-0.3-2-0.8L73.2,250z"/>
		<path class="st14" d="M77.9,243.9h0.8v1.1h-0.8V243.9z M77.9,246.1h0.8v5h-0.8V246.1z"/>
		<path class="st14" d="M80.4,246.1h0.6l0.1,0.6c0.3-0.5,0.7-0.7,1.4-0.7c0.9,0,1.5,0.3,1.7,1c0.1,0.3,0.1,0.7,0.1,1.3v2.9h-0.8
			v-2.8c0-1.2-0.3-1.6-1.1-1.6c-0.9,0-1.2,0.5-1.2,1.9v2.5h-0.8V246.1z"/>
		<path class="st14" d="M89.7,250.4c-0.4,0.5-0.9,0.8-1.7,0.8c-1.3,0-2-0.8-2-2.3v-0.4c0-1.7,0.6-2.5,2-2.5c0.8,0,1.3,0.3,1.7,0.8
			l-0.6,0.3c-0.3-0.4-0.5-0.5-1-0.5c-0.8,0-1.2,0.6-1.2,1.7v0.5c0,1,0.4,1.6,1.3,1.6c0.5,0,0.8-0.2,1.1-0.5L89.7,250.4z"/>
		<path class="st14" d="M91.5,249c0,1,0.5,1.6,1.4,1.6c0.5,0,0.9-0.1,1.1-0.5l0.6,0.4c-0.4,0.5-0.9,0.8-1.8,0.8
			c-1.4,0-2.1-0.8-2.1-2.4v-0.4c0-1.7,0.6-2.4,2-2.4s2,0.8,2,2.4v0.4h-3.3V249z M94,248.2L94,248.2c0-0.5-0.1-0.8-0.3-1.1
			c-0.2-0.3-0.5-0.4-1-0.4c-0.5,0-0.8,0.2-1.1,0.5c-0.1,0.2-0.2,0.6-0.2,0.9v0.1H94z"/>
		<path class="st14" d="M98,250.6l2-2.6c0.7-1,1.1-1.7,1.1-2.4c0-0.7-0.4-1-1.1-1c-0.6,0-1,0.4-1.2,1.1l-0.7-0.1
			c0.1-1.1,0.8-1.7,2-1.7c1.2,0,1.8,0.6,1.8,1.8c0,0.9-0.3,1.5-1.4,2.9l-1.4,1.9h2.8v0.7H98V250.6z"/>
		<path class="st14" d="M103.5,246.5c0-0.9,0.1-1.5,0.4-1.9c0.4-0.5,0.8-0.7,1.6-0.7c0.8,0,1.3,0.3,1.6,0.8c0.2,0.4,0.4,0.9,0.4,1.8
			v2.1c0,0.9-0.1,1.5-0.4,1.9c-0.4,0.5-0.8,0.7-1.6,0.7c-0.8,0-1.3-0.3-1.6-0.8c-0.2-0.4-0.4-0.9-0.4-1.8V246.5z M106.7,246.6
			c0-1.4-0.3-2-1.2-2c-0.8,0-1.2,0.6-1.2,2v1.9c0,1.4,0.3,2,1.2,2c0.8,0,1.2-0.6,1.2-2V246.6z"/>
		<path class="st14" d="M110.7,244.8l-1.2,0.5l-0.3-0.7l1.7-0.8h0.6v7.1h-0.8V244.8z"/>
		<path class="st14" d="M117,249.8h-2.9v-0.5l2.3-5.3h0.9l-2.2,5.1h2v-2.2h0.8v2.2h0.7v0.7h-0.7v1.3H117V249.8z"/>
		<path class="st14" d="M120,250.1h0.8v1H120V250.1z"/>
		<path class="st14" d="M125,249.7c0.3,0.5,0.9,0.8,1.8,0.8c1,0,1.6-0.5,1.6-1.3c0-0.4-0.2-0.7-0.4-0.9c-0.3-0.2-0.3-0.2-1.3-0.4
			c-1.5-0.4-2-0.9-2-2c0-1.2,0.8-1.9,2.2-1.9c1,0,1.7,0.3,2.1,0.9l-0.6,0.4c-0.3-0.4-0.8-0.6-1.5-0.6c-0.8,0-1.3,0.4-1.3,1.2
			c0,0.7,0.4,1.1,1.6,1.4c1,0.2,1.1,0.3,1.5,0.5c0.4,0.3,0.7,0.8,0.7,1.5c0,1.3-0.9,2-2.4,2c-1.2,0-2-0.3-2.4-1L125,249.7z"/>
		<path class="st14" d="M130.5,248.2c0-1.5,0.6-2.2,2.1-2.2c1.4,0,2.1,0.7,2.1,2.2v0.8c0,1.5-0.6,2.2-2.1,2.2
			c-1.4,0-2.1-0.7-2.1-2.2V248.2z M133.9,248.3c0-1.1-0.4-1.6-1.3-1.6c-0.9,0-1.3,0.5-1.3,1.6v0.7c0,1.1,0.4,1.6,1.3,1.6
			c0.9,0,1.3-0.5,1.3-1.6V248.3z"/>
		<path class="st14" d="M137,246.1v2.8c0,0.5,0,0.8,0.1,1c0.2,0.4,0.5,0.6,1,0.6c0.8,0,1.2-0.5,1.2-1.9v-2.5h0.8v5h-0.6l-0.1-0.6
			c-0.3,0.4-0.7,0.6-1.4,0.6c-0.9,0-1.4-0.3-1.6-1c-0.1-0.3-0.1-0.7-0.1-1.3v-2.9H137z"/>
		<path class="st14" d="M141.8,246.1h0.6l0.1,0.5c0.3-0.4,0.6-0.6,1.2-0.6c0.4,0,0.6,0.1,1,0.3l-0.3,0.7c-0.3-0.2-0.5-0.2-0.7-0.2
			c-0.7,0-1,0.6-1,2v2.4h-0.8V246.1z"/>
		<path class="st14" d="M149.2,250.4c-0.4,0.5-0.9,0.8-1.7,0.8c-1.3,0-2-0.8-2-2.3v-0.4c0-1.7,0.6-2.5,2-2.5c0.8,0,1.3,0.3,1.7,0.8
			l-0.6,0.3c-0.3-0.4-0.5-0.5-1-0.5c-0.8,0-1.2,0.6-1.2,1.7v0.5c0,1,0.4,1.6,1.3,1.6c0.5,0,0.8-0.2,1.1-0.5L149.2,250.4z"/>
		<path class="st14" d="M151.1,249c0,1,0.5,1.6,1.4,1.6c0.5,0,0.9-0.1,1.1-0.5l0.6,0.4c-0.4,0.5-0.9,0.8-1.8,0.8
			c-1.4,0-2.1-0.8-2.1-2.4v-0.4c0-1.7,0.6-2.4,2-2.4s2,0.8,2,2.4v0.4h-3.3V249z M153.6,248.2L153.6,248.2c0-0.5-0.1-0.8-0.3-1.1
			c-0.2-0.3-0.5-0.4-1-0.4c-0.5,0-0.8,0.2-1.1,0.5c-0.1,0.2-0.2,0.6-0.2,0.9v0.1H153.6z"/>
		<path class="st14" d="M156,250c0.3,0.4,0.7,0.5,1.3,0.5c0.8,0,1.3-0.3,1.3-0.8c0-0.3-0.1-0.5-0.3-0.6c-0.2-0.1-0.3-0.1-0.9-0.2
			c-0.7-0.1-1-0.2-1.2-0.4c-0.3-0.2-0.4-0.5-0.4-1c0-1,0.6-1.5,1.7-1.5c0.8,0,1.4,0.2,1.8,0.8l-0.6,0.4c-0.3-0.4-0.6-0.5-1.2-0.5
			c-0.6,0-1,0.3-1,0.8c0,0.2,0.1,0.5,0.3,0.6c0.2,0.1,0.3,0.1,0.8,0.2c0.8,0.1,1.1,0.2,1.4,0.4c0.3,0.2,0.4,0.6,0.4,1.1
			c0,1-0.7,1.5-2,1.5c-0.9,0-1.6-0.3-2-0.8L156,250z"/>
		<path class="st14" d="M161.1,246.1h0.8v1h-0.8V246.1z M161.1,250.1h0.8v1h-0.8V250.1z"/>
		<path class="st14" d="M166,244h4.1v0.7h-3.3v2.5h2.8v0.7h-2.8v3.2H166V244z"/>
		<path class="st14" d="M171.5,244h4.2v0.7h-3.3v2.5h2.9v0.7h-2.9v2.6h3.4v0.7h-4.2V244z"/>
		<path class="st14" d="M177.3,244h0.8v7.1h-0.8V244z"/>
		<path class="st14" d="M180.2,249.7c0.3,0.5,0.9,0.8,1.8,0.8c1,0,1.6-0.5,1.6-1.3c0-0.4-0.2-0.7-0.4-0.9c-0.3-0.2-0.3-0.2-1.3-0.4
			c-1.5-0.4-2-0.9-2-2c0-1.2,0.8-1.9,2.2-1.9c1,0,1.7,0.3,2.1,0.9l-0.6,0.4c-0.3-0.4-0.8-0.6-1.5-0.6c-0.8,0-1.3,0.4-1.3,1.2
			c0,0.7,0.4,1.1,1.6,1.4c1,0.2,1.1,0.3,1.5,0.5c0.4,0.3,0.7,0.8,0.7,1.5c0,1.3-0.9,2-2.4,2c-1.2,0-2-0.3-2.4-1L180.2,249.7z"/>
		<path class="st14" d="M189.9,252.3c-1.1-1.6-1.5-2.9-1.5-4.7s0.4-3.1,1.5-4.6l0.6,0.4c-0.3,0.6-0.5,1-0.7,1.4
			c-0.3,0.8-0.5,1.8-0.5,2.8c0,1.1,0.2,2.1,0.6,3c0.2,0.4,0.4,0.8,0.7,1.3L189.9,252.3z"/>
		<path class="st14" d="M192.3,244h2.3c1.7,0,2.6,0.9,2.6,2.7v1.7c0,1.8-0.8,2.7-2.6,2.7h-2.3V244z M194.4,250.4
			c1.3,0,1.9-0.6,1.9-2.1v-1.5c0-1.5-0.6-2.1-1.9-2.1h-1.3v5.8H194.4z"/>
		<path class="st14" d="M203.6,249.4c-0.1,1.1-0.9,1.8-2.3,1.8c-0.9,0-1.5-0.3-2-0.9c-0.3-0.5-0.4-1-0.4-2v-1.5
			c0-1.1,0.2-1.7,0.5-2.1c0.4-0.5,1-0.8,1.9-0.8c1.4,0,2.2,0.6,2.2,1.8l-0.8,0.1c-0.1-0.7-0.6-1.2-1.5-1.2c-1.1,0-1.6,0.6-1.6,2.3
			v1.4c0,1.6,0.4,2.3,1.6,2.3c0.9,0,1.4-0.4,1.5-1.2L203.6,249.4z"/>
		<path class="st14" d="M206.2,251.1h-0.8V244h2.3c0.9,0,1.4,0.2,1.8,0.6c0.4,0.4,0.5,0.9,0.5,1.6c0,0.8-0.2,1.3-0.6,1.7
			c-0.4,0.3-0.9,0.5-1.7,0.5h-1.5V251.1z M207.7,247.6c1,0,1.5-0.5,1.5-1.5s-0.5-1.5-1.5-1.5h-1.5v3H207.7z"/>
		<path class="st14" d="M210.5,250.1h0.9l-0.7,2.9h-0.7L210.5,250.1z"/>
		<path class="st14" d="M214.8,250.6l2-2.6c0.8-1,1.1-1.7,1.1-2.4c0-0.7-0.4-1-1.1-1c-0.6,0-1,0.4-1.2,1.1l-0.7-0.1
			c0.1-1.1,0.8-1.7,2-1.7c1.2,0,1.8,0.6,1.8,1.8c0,0.9-0.3,1.5-1.4,2.9l-1.4,1.9h2.8v0.7h-3.9V250.6z"/>
		<path class="st14" d="M220.4,246.5c0-0.9,0.1-1.5,0.4-1.9c0.4-0.5,0.8-0.7,1.6-0.7c0.8,0,1.3,0.3,1.6,0.8c0.2,0.4,0.4,0.9,0.4,1.8
			v2.1c0,0.9-0.1,1.5-0.4,1.9c-0.4,0.5-0.8,0.7-1.6,0.7c-0.8,0-1.3-0.3-1.6-0.8c-0.2-0.4-0.4-0.9-0.4-1.8V246.5z M223.6,246.6
			c0-1.4-0.3-2-1.2-2c-0.8,0-1.2,0.6-1.2,2v1.9c0,1.4,0.3,2,1.2,2c0.8,0,1.2-0.6,1.2-2V246.6z"/>
		<path class="st14" d="M227.5,244.8l-1.2,0.5l-0.3-0.7l1.7-0.8h0.6v7.1h-0.8V244.8z"/>
		<path class="st14" d="M232.7,246.9c0.2-0.1,0.4-0.2,0.7-0.2c0.6,0,1.1,0.2,1.4,0.7c0.2,0.3,0.3,0.8,0.3,1.6c0,0.8-0.1,1.4-0.5,1.7
			c-0.3,0.4-0.9,0.5-1.5,0.5c-0.7,0-1.3-0.2-1.6-0.6c-0.3-0.3-0.4-0.8-0.4-1.6c0-0.8,0.1-1.2,0.5-2l1.6-3h0.9L232.7,246.9z
			 M232.1,248.9c0,1.1,0.4,1.6,1.1,1.6c0.8,0,1.1-0.5,1.1-1.6s-0.4-1.6-1.1-1.6C232.4,247.3,232.1,247.8,232.1,248.9z"/>
		<path class="st14" d="M237.3,243c1.1,1.6,1.5,2.9,1.5,4.6c0,1.7-0.4,3.1-1.5,4.7l-0.6-0.4c0.3-0.5,0.5-1,0.7-1.4
			c0.3-0.8,0.5-1.8,0.5-2.8c0-1.1-0.2-2.1-0.6-3c-0.2-0.4-0.4-0.8-0.7-1.3L237.3,243z"/>
		<path class="st14" d="M244.1,251.1h-0.8V244h2.3c0.9,0,1.4,0.2,1.8,0.6c0.4,0.4,0.5,0.9,0.5,1.6c0,0.8-0.2,1.3-0.6,1.7
			c-0.4,0.3-0.9,0.5-1.7,0.5h-1.5V251.1z M245.6,247.6c1,0,1.5-0.5,1.5-1.5s-0.5-1.5-1.5-1.5h-1.5v3H245.6z"/>
		<path class="st14" d="M249.5,244h0.8v6.4h3.4v0.7h-4.2V244z"/>
		<path class="st14" d="M255.7,244v4.5c0,0.7,0.1,1.1,0.3,1.4c0.3,0.4,0.7,0.6,1.3,0.6c0.7,0,1.1-0.2,1.4-0.7
			c0.1-0.3,0.2-0.6,0.2-1.3V244h0.8v4.5c0,1-0.1,1.5-0.4,1.9c-0.4,0.6-1.1,0.8-2,0.8c-1,0-1.7-0.3-2.1-0.9c-0.3-0.4-0.3-0.8-0.3-1.8
			V244H255.7z"/>
		<path class="st14" d="M263.3,244.7h-2.1V244h4.9v0.7h-2v6.4h-0.8V244.7z"/>
		<path class="st14" d="M267.4,246.7c0-1,0.2-1.6,0.6-2c0.5-0.5,1-0.7,1.9-0.7c0.9,0,1.6,0.3,2,0.9c0.3,0.4,0.5,1,0.5,1.9v1.8
			c0,1-0.2,1.6-0.6,2c-0.5,0.5-1,0.7-1.9,0.7c-0.9,0-1.6-0.3-2-0.9c-0.3-0.5-0.5-1-0.5-1.9V246.7z M271.6,246.7
			c0-0.8-0.1-1.2-0.4-1.6c-0.3-0.4-0.7-0.6-1.3-0.6c-0.6,0-1.1,0.2-1.4,0.7c-0.2,0.4-0.3,0.8-0.3,1.5v1.6c0,0.8,0.1,1.2,0.4,1.6
			c0.3,0.4,0.7,0.6,1.3,0.6c0.6,0,1.1-0.2,1.4-0.7c0.2-0.4,0.3-0.8,0.3-1.5V246.7z"/>
		<path class="st14" d="M275.9,250.6l2-2.6c0.7-1,1.1-1.7,1.1-2.4c0-0.7-0.4-1-1.1-1c-0.6,0-1,0.4-1.2,1.1l-0.8-0.1
			c0.1-1.1,0.8-1.7,2-1.7c1.2,0,1.8,0.6,1.8,1.8c0,0.9-0.3,1.5-1.4,2.9l-1.4,1.9h2.8v0.7h-3.9V250.6z"/>
		<path class="st14" d="M281.3,250.6l2-2.6c0.8-1,1.1-1.7,1.1-2.4c0-0.7-0.4-1-1.1-1c-0.6,0-1,0.4-1.2,1.1l-0.7-0.1
			c0.1-1.1,0.8-1.7,2-1.7c1.2,0,1.8,0.6,1.8,1.8c0,0.9-0.3,1.5-1.4,2.9l-1.4,1.9h2.8v0.7h-3.9V250.6z"/>
		<path class="st14" d="M286.4,246.1h0.8l1.4,4l1.4-4h0.8l-1.8,5h-0.7L286.4,246.1z"/>
		<path class="st14" d="M292.7,247h0.6c0.8,0,1.3-0.5,1.3-1.2c0-0.8-0.4-1.2-1.1-1.2c-0.6,0-1,0.3-1.1,0.8l-0.7-0.1
			c0.1-1,0.8-1.5,1.9-1.5c1.2,0,1.9,0.7,1.9,1.9c0,0.8-0.2,1.2-0.9,1.6c0.8,0.4,1.1,0.9,1.1,1.8c0,1.3-0.7,2-2.1,2
			c-1.2,0-1.9-0.5-2-1.5l0.8-0.1c0.1,0.6,0.5,0.9,1.2,0.9c0.8,0,1.3-0.5,1.3-1.4s-0.6-1.5-1.4-1.5h-0.6V247z"/>
		<path class="st14" d="M301.3,252.3c-1.1-1.6-1.5-2.9-1.5-4.7s0.4-3.1,1.5-4.6l0.6,0.4c-0.3,0.6-0.5,1-0.7,1.4
			c-0.3,0.8-0.5,1.8-0.5,2.8c0,1.1,0.2,2.1,0.6,3c0.2,0.4,0.4,0.8,0.7,1.3L301.3,252.3z"/>
		<path class="st14" d="M303.8,244h2.3c1.7,0,2.6,0.9,2.6,2.7v1.7c0,1.8-0.8,2.7-2.6,2.7h-2.3V244z M305.9,250.4
			c1.3,0,1.9-0.6,1.9-2.1v-1.5c0-1.5-0.6-2.1-1.9-2.1h-1.3v5.8H305.9z"/>
		<path class="st14" d="M315.1,249.4c-0.1,1.1-0.9,1.8-2.3,1.8c-0.9,0-1.5-0.3-2-0.9c-0.3-0.5-0.4-1-0.4-2v-1.5
			c0-1.1,0.2-1.7,0.5-2.1c0.4-0.5,1-0.8,1.9-0.8c1.4,0,2.2,0.6,2.2,1.8l-0.8,0.1c-0.1-0.7-0.6-1.2-1.5-1.2c-1.1,0-1.6,0.6-1.6,2.3
			v1.4c0,1.6,0.4,2.3,1.6,2.3c0.9,0,1.4-0.4,1.5-1.2L315.1,249.4z"/>
		<path class="st14" d="M317.7,251.1h-0.8V244h2.3c0.9,0,1.4,0.2,1.8,0.6c0.4,0.4,0.5,0.9,0.5,1.6c0,0.8-0.2,1.3-0.6,1.7
			c-0.4,0.3-0.9,0.5-1.7,0.5h-1.5V251.1z M319.2,247.6c1,0,1.5-0.5,1.5-1.5s-0.5-1.5-1.5-1.5h-1.5v3H319.2z"/>
		<path class="st14" d="M322,250.1h0.9l-0.7,2.9h-0.7L322,250.1z"/>
	</g>
	<g class="st0">
		<path class="st14" d="M19.5,262.6l2-2.6c0.7-1,1.1-1.7,1.1-2.4c0-0.7-0.4-1-1.1-1c-0.6,0-1,0.4-1.2,1.1l-0.7-0.1
			c0.1-1.1,0.8-1.7,2-1.7c1.2,0,1.8,0.6,1.8,1.8c0,0.9-0.3,1.5-1.4,2.9l-1.4,1.9h2.8v0.7h-3.9V262.6z"/>
		<path class="st14" d="M25,258.5c0-0.9,0.1-1.5,0.4-1.9c0.4-0.5,0.8-0.7,1.6-0.7c0.8,0,1.3,0.3,1.6,0.8c0.2,0.4,0.4,0.9,0.4,1.8
			v2.1c0,0.9-0.1,1.5-0.4,1.9c-0.4,0.5-0.8,0.7-1.6,0.7c-0.8,0-1.3-0.3-1.6-0.8c-0.2-0.4-0.4-0.9-0.4-1.8V258.5z M28.2,258.6
			c0-1.4-0.3-2-1.2-2c-0.8,0-1.2,0.6-1.2,2v1.9c0,1.4,0.3,2,1.2,2c0.8,0,1.2-0.6,1.2-2V258.6z"/>
		<path class="st14" d="M30.3,262.6l2-2.6c0.7-1,1.1-1.7,1.1-2.4c0-0.7-0.4-1-1.1-1c-0.6,0-1,0.4-1.2,1.1l-0.7-0.1
			c0.1-1.1,0.8-1.7,2-1.7c1.2,0,1.8,0.6,1.8,1.8c0,0.9-0.3,1.5-1.4,2.9l-1.4,1.9h2.8v0.7h-3.9V262.6z"/>
		<path class="st14" d="M35.7,262.6l2-2.6c0.7-1,1.1-1.7,1.1-2.4c0-0.7-0.4-1-1.1-1c-0.6,0-1,0.4-1.2,1.1l-0.7-0.1
			c0.1-1.1,0.8-1.7,2-1.7c1.2,0,1.8,0.6,1.8,1.8c0,0.9-0.3,1.5-1.4,2.9l-1.4,1.9h2.8v0.7h-3.9V262.6z"/>
		<path class="st14" d="M41.9,255c1.1,1.6,1.5,2.9,1.5,4.6c0,1.7-0.4,3.1-1.5,4.7l-0.6-0.4c0.3-0.5,0.5-1,0.7-1.4
			c0.3-0.8,0.5-1.8,0.5-2.8c0-1.1-0.2-2.1-0.6-3c-0.2-0.4-0.4-0.8-0.7-1.3L41.9,255z"/>
		<path class="st14" d="M45.9,262.1h0.9l-0.7,2.9h-0.7L45.9,262.1z"/>
		<path class="st14" d="M51.1,261.5l-0.5,1.6h-0.9l2.6-7.1h0.8l2.6,7.1h-0.9l-0.5-1.6H51.1z M52.7,257l-1.3,3.8H54L52.7,257z"/>
		<path class="st14" d="M56.2,258.7v-0.7h0.6v-0.8c0-1,0.3-1.3,1.4-1.3h0.4v0.6h-0.2c-0.6,0-0.8,0.1-0.8,0.8v0.7h1v0.7h-1v4.4h-0.8
			v-4.4H56.2z M59.2,258.7v-0.7h0.6v-0.8c0-1,0.3-1.3,1.4-1.3h0.4v0.6h-0.3c-0.6,0-0.8,0.1-0.8,0.8v0.7h1.1v0.7h-1.1v4.4h-0.8v-4.4
			H59.2z"/>
		<path class="st14" d="M62.8,260.2c0-1.5,0.6-2.2,2.1-2.2c1.4,0,2.1,0.7,2.1,2.2v0.8c0,1.5-0.6,2.2-2.1,2.2c-1.4,0-2.1-0.7-2.1-2.2
			V260.2z M66.1,260.3c0-1.1-0.4-1.6-1.3-1.6c-0.9,0-1.3,0.5-1.3,1.6v0.7c0,1.1,0.4,1.6,1.3,1.6c0.9,0,1.3-0.5,1.3-1.6V260.3z"/>
		<path class="st14" d="M68.5,258.1h0.6l0.1,0.5c0.3-0.4,0.6-0.6,1.2-0.6c0.4,0,0.6,0.1,1,0.3l-0.3,0.7c-0.3-0.2-0.5-0.2-0.7-0.2
			c-0.7,0-1,0.6-1,2v2.4h-0.8V258.1z"/>
		<path class="st14" d="M75.6,262.7C75.5,262.7,75.5,262.7,75.6,262.7c-0.1,0.1-0.1,0.1-0.2,0.2c-0.2,0.2-0.7,0.3-1.3,0.3
			c-1.3,0-1.9-0.7-1.9-2.2v-0.8c0-1.5,0.6-2.2,1.9-2.2c0.4,0,0.8,0.1,1.1,0.2c0,0,0.1,0.1,0.3,0.2V256h0.8v7.1h-0.6L75.6,262.7z
			 M73,260.9c0,1.1,0.4,1.6,1.2,1.6c0.8,0,1.2-0.5,1.2-1.5v-0.8c0-1-0.4-1.5-1.2-1.5c-0.8,0-1.2,0.5-1.2,1.6V260.9z"/>
		<path class="st14" d="M80.7,259.8c0-0.4,0-0.6-0.2-0.8c-0.2-0.2-0.5-0.4-0.9-0.4c-0.5,0-0.9,0.2-1.2,0.5l-0.5-0.4
			c0.4-0.5,1-0.8,1.8-0.8c0.8,0,1.3,0.2,1.6,0.7c0.2,0.3,0.2,0.6,0.2,1.2v3.2h-0.6l-0.1-0.4c-0.3,0.3-0.7,0.4-1.5,0.4
			c-1.3,0-1.8-0.4-1.8-1.5c0-1.2,0.5-1.5,1.9-1.5h1.2V259.8z M79.6,260.8c-0.9,0-1.2,0.3-1.2,0.9c0,0.6,0.3,0.8,1.2,0.8
			c0.5,0,0.9-0.1,1-0.3c0.1-0.1,0.1-0.3,0.1-0.7v-0.8H79.6z"/>
		<path class="st14" d="M83.3,256h0.8v2.5c0.4-0.3,0.8-0.5,1.4-0.5c1.3,0,1.9,0.7,1.9,2.2v0.8c0,1.5-0.6,2.2-1.9,2.2
			c-0.5,0-0.9-0.1-1.2-0.3c0,0-0.1-0.1-0.3-0.2l0,0.4h-0.6V256z M86.5,260.3c0-1.1-0.4-1.6-1.2-1.6c-0.8,0-1.2,0.5-1.2,1.5v0.8
			c0,1,0.4,1.5,1.2,1.5c0.8,0,1.2-0.5,1.2-1.6V260.3z"/>
		<path class="st14" d="M89.7,256v5.5c0,0.7,0.2,0.9,0.8,0.9h0.3v0.7h-0.3c-1.3,0-1.6-0.3-1.6-1.7V256H89.7z"/>
		<path class="st14" d="M92.5,261c0,1,0.5,1.6,1.4,1.6c0.5,0,0.9-0.1,1.1-0.5l0.6,0.4c-0.4,0.5-0.9,0.8-1.8,0.8
			c-1.4,0-2.1-0.8-2.1-2.4v-0.4c0-1.7,0.6-2.4,2-2.4s2,0.8,2,2.4v0.4h-3.3V261z M95,260.2L95,260.2c0-0.5-0.1-0.8-0.3-1.1
			c-0.2-0.3-0.5-0.4-1-0.4c-0.5,0-0.8,0.2-1.1,0.5c-0.1,0.2-0.2,0.6-0.2,0.9v0.1H95z"/>
		<path class="st14" d="M99.4,256h0.8v3.2h3.1V256h0.8v7.1h-0.8v-3.3h-3.1v3.3h-0.8V256z"/>
		<path class="st14" d="M105.9,260.2c0-1.5,0.6-2.2,2.1-2.2c1.4,0,2.1,0.7,2.1,2.2v0.8c0,1.5-0.6,2.2-2.1,2.2
			c-1.4,0-2.1-0.7-2.1-2.2V260.2z M109.3,260.3c0-1.1-0.4-1.6-1.3-1.6c-0.9,0-1.3,0.5-1.3,1.6v0.7c0,1.1,0.4,1.6,1.3,1.6
			c0.9,0,1.3-0.5,1.3-1.6V260.3z"/>
		<path class="st14" d="M112.4,258.1v2.8c0,0.5,0,0.8,0.1,1c0.2,0.4,0.5,0.6,1,0.6c0.8,0,1.2-0.5,1.2-1.9v-2.5h0.8v5h-0.6l-0.1-0.6
			c-0.3,0.4-0.7,0.6-1.4,0.6c-0.9,0-1.4-0.3-1.6-1c-0.1-0.3-0.1-0.7-0.1-1.3v-2.9H112.4z"/>
		<path class="st14" d="M117.2,262c0.3,0.4,0.7,0.5,1.3,0.5c0.8,0,1.3-0.3,1.3-0.8c0-0.3-0.1-0.5-0.3-0.6c-0.2-0.1-0.3-0.1-0.9-0.2
			c-0.7-0.1-1-0.2-1.2-0.4c-0.3-0.2-0.4-0.5-0.4-1c0-1,0.6-1.5,1.7-1.5c0.8,0,1.4,0.2,1.8,0.8l-0.6,0.4c-0.3-0.4-0.6-0.5-1.2-0.5
			c-0.6,0-1,0.3-1,0.8c0,0.2,0.1,0.5,0.3,0.6c0.2,0.1,0.3,0.1,0.8,0.2c0.8,0.1,1.1,0.2,1.4,0.4c0.3,0.2,0.4,0.6,0.4,1.1
			c0,1-0.7,1.5-2,1.5c-0.9,0-1.6-0.3-2-0.8L117.2,262z"/>
		<path class="st14" d="M121.9,255.9h0.8v1.1h-0.8V255.9z M121.9,258.1h0.8v5h-0.8V258.1z"/>
		<path class="st14" d="M124.5,258.1h0.6l0.1,0.6c0.3-0.5,0.7-0.7,1.4-0.7c0.9,0,1.5,0.3,1.7,1c0.1,0.3,0.1,0.7,0.1,1.3v2.9h-0.8
			v-2.8c0-1.2-0.3-1.6-1.1-1.6c-0.9,0-1.2,0.5-1.2,1.9v2.5h-0.8V258.1z"/>
		<path class="st14" d="M133.2,262.7c-0.3,0.3-0.8,0.5-1.4,0.5c-1.3,0-1.9-0.7-1.9-2.2v-0.8c0-1.5,0.6-2.2,1.9-2.2
			c0.7,0,1.1,0.2,1.5,0.5l0.1-0.5h0.6v5c0,1.6-0.7,2.3-2.1,2.3c-0.8,0-1.4-0.2-1.7-0.8l0.6-0.4c0.3,0.4,0.6,0.5,1.1,0.5
			c0.9,0,1.3-0.5,1.4-1.6L133.2,262.7z M130.7,260.9c0,1.1,0.4,1.6,1.2,1.6c0.8,0,1.2-0.5,1.2-1.5v-0.8c0-1-0.4-1.5-1.2-1.5
			c-0.8,0-1.2,0.5-1.2,1.6V260.9z"/>
		<path class="st14" d="M138.8,263.1h-0.8V256h2.3c0.9,0,1.4,0.2,1.8,0.6c0.4,0.4,0.5,0.9,0.5,1.6c0,0.8-0.2,1.3-0.6,1.7
			c-0.4,0.3-0.9,0.5-1.7,0.5h-1.5V263.1z M140.2,259.6c1,0,1.5-0.5,1.5-1.5s-0.5-1.5-1.5-1.5h-1.5v3H140.2z"/>
		<path class="st14" d="M143.8,258.1h0.6l0.1,0.5c0.3-0.4,0.6-0.6,1.2-0.6c0.4,0,0.6,0.1,1,0.3l-0.3,0.7c-0.3-0.2-0.5-0.2-0.7-0.2
			c-0.7,0-1,0.6-1,2v2.4h-0.8V258.1z"/>
		<path class="st14" d="M147.5,260.2c0-1.5,0.6-2.2,2.1-2.2c1.4,0,2.1,0.7,2.1,2.2v0.8c0,1.5-0.6,2.2-2.1,2.2
			c-1.4,0-2.1-0.7-2.1-2.2V260.2z M150.9,260.3c0-1.1-0.4-1.6-1.3-1.6c-0.9,0-1.3,0.5-1.3,1.6v0.7c0,1.1,0.4,1.6,1.3,1.6
			c0.9,0,1.3-0.5,1.3-1.6V260.3z"/>
		<path class="st14" d="M156.4,262.7C156.4,262.7,156.4,262.7,156.4,262.7c-0.1,0.1-0.1,0.1-0.2,0.2c-0.2,0.2-0.7,0.3-1.3,0.3
			c-1.3,0-1.9-0.7-1.9-2.2v-0.8c0-1.5,0.6-2.2,1.9-2.2c0.4,0,0.8,0.1,1.1,0.2c0,0,0.1,0.1,0.3,0.2V256h0.8v7.1h-0.6L156.4,262.7z
			 M153.9,260.9c0,1.1,0.4,1.6,1.2,1.6c0.8,0,1.2-0.5,1.2-1.5v-0.8c0-1-0.4-1.5-1.2-1.5c-0.8,0-1.2,0.5-1.2,1.6V260.9z"/>
		<path class="st14" d="M159.6,258.1v2.8c0,0.5,0,0.8,0.1,1c0.2,0.4,0.5,0.6,1,0.6c0.8,0,1.2-0.5,1.2-1.9v-2.5h0.8v5h-0.6l-0.1-0.6
			c-0.3,0.4-0.7,0.6-1.4,0.6c-0.9,0-1.4-0.3-1.6-1c-0.1-0.3-0.1-0.7-0.1-1.3v-2.9H159.6z"/>
		<path class="st14" d="M168,262.4c-0.4,0.5-0.9,0.8-1.7,0.8c-1.3,0-2-0.8-2-2.3v-0.4c0-1.7,0.6-2.5,2-2.5c0.8,0,1.3,0.3,1.7,0.8
			l-0.6,0.3c-0.3-0.4-0.5-0.5-1-0.5c-0.8,0-1.2,0.6-1.2,1.7v0.5c0,1,0.4,1.6,1.3,1.6c0.5,0,0.8-0.2,1.1-0.5L168,262.4z"/>
		<path class="st14" d="M169,258.7v-0.7h0.6l0-1.6h0.7v1.6h1v0.7h-1v2.8c0,0.7,0.2,0.9,0.8,0.9h0.2v0.7h-0.2c-1.3,0-1.6-0.3-1.6-1.7
			v-2.7H169z"/>
		<path class="st14" d="M172.8,255.9h0.8v1.1h-0.8V255.9z M172.8,258.1h0.8v5h-0.8V258.1z"/>
		<path class="st14" d="M175.2,260.2c0-1.5,0.6-2.2,2.1-2.2c1.4,0,2.1,0.7,2.1,2.2v0.8c0,1.5-0.7,2.2-2.1,2.2
			c-1.4,0-2.1-0.7-2.1-2.2V260.2z M178.6,260.3c0-1.1-0.4-1.6-1.3-1.6c-0.9,0-1.3,0.5-1.3,1.6v0.7c0,1.1,0.4,1.6,1.3,1.6
			c0.9,0,1.3-0.5,1.3-1.6V260.3z"/>
		<path class="st14" d="M181,258.1h0.6l0.1,0.6c0.3-0.5,0.7-0.7,1.4-0.7c0.9,0,1.5,0.3,1.7,1c0.1,0.3,0.1,0.7,0.1,1.3v2.9h-0.8v-2.8
			c0-1.2-0.3-1.6-1.1-1.6c-0.9,0-1.2,0.5-1.2,1.9v2.5H181V258.1z"/>
		<path class="st14" d="M190.7,264.3c-1.1-1.6-1.5-2.9-1.5-4.7s0.4-3.1,1.5-4.6l0.6,0.4c-0.3,0.6-0.5,1-0.7,1.4
			c-0.3,0.8-0.5,1.8-0.5,2.8c0,1.1,0.2,2.1,0.6,3c0.2,0.4,0.4,0.8,0.7,1.3L190.7,264.3z"/>
		<path class="st14" d="M193.1,256h0.8v3.2h3.1V256h0.8v7.1H197v-3.3h-3.1v3.3h-0.8V256z"/>
		<path class="st14" d="M200.8,263.1h-0.8V256h2.3c0.9,0,1.4,0.2,1.8,0.6c0.4,0.4,0.5,0.9,0.5,1.6c0,0.8-0.2,1.3-0.6,1.7
			c-0.4,0.3-0.9,0.5-1.7,0.5h-1.5V263.1z M202.2,259.6c1,0,1.5-0.5,1.5-1.5s-0.5-1.5-1.5-1.5h-1.5v3H202.2z"/>
		<path class="st14" d="M206.1,256h2.3c1.7,0,2.6,0.9,2.6,2.7v1.7c0,1.8-0.8,2.7-2.6,2.7h-2.3V256z M208.3,262.4
			c1.3,0,1.9-0.6,1.9-2.1v-1.5c0-1.5-0.6-2.1-1.9-2.1h-1.3v5.8H208.3z"/>
		<path class="st14" d="M212.9,262.1h0.9l-0.7,2.9h-0.7L212.9,262.1z"/>
		<path class="st14" d="M217.2,262.6l2-2.6c0.7-1,1.1-1.7,1.1-2.4c0-0.7-0.4-1-1.1-1c-0.6,0-1,0.4-1.2,1.1l-0.8-0.1
			c0.1-1.1,0.8-1.7,2-1.7c1.2,0,1.8,0.6,1.8,1.8c0,0.9-0.3,1.5-1.4,2.9l-1.4,1.9h2.8v0.7h-3.9V262.6z"/>
		<path class="st14" d="M222.8,258.5c0-0.9,0.1-1.5,0.4-1.9c0.4-0.5,0.8-0.7,1.6-0.7c0.8,0,1.3,0.3,1.6,0.8c0.2,0.4,0.4,0.9,0.4,1.8
			v2.1c0,0.9-0.1,1.5-0.4,1.9c-0.4,0.5-0.8,0.7-1.6,0.7c-0.8,0-1.3-0.3-1.6-0.8c-0.2-0.4-0.4-0.9-0.4-1.8V258.5z M225.9,258.6
			c0-1.4-0.3-2-1.2-2c-0.8,0-1.2,0.6-1.2,2v1.9c0,1.4,0.3,2,1.2,2c0.8,0,1.2-0.6,1.2-2V258.6z"/>
		<path class="st14" d="M228,262.6l2-2.6c0.7-1,1.1-1.7,1.1-2.4c0-0.7-0.4-1-1.1-1c-0.6,0-1,0.4-1.2,1.1l-0.8-0.1
			c0.1-1.1,0.8-1.7,2-1.7c1.2,0,1.8,0.6,1.8,1.8c0,0.9-0.3,1.5-1.4,2.9l-1.4,1.9h2.8v0.7H228V262.6z"/>
		<path class="st14" d="M233.4,262.6l2-2.6c0.8-1,1.1-1.7,1.1-2.4c0-0.7-0.4-1-1.1-1c-0.6,0-1,0.4-1.2,1.1l-0.7-0.1
			c0.1-1.1,0.8-1.7,2-1.7c1.2,0,1.8,0.6,1.8,1.8c0,0.9-0.3,1.5-1.4,2.9l-1.4,1.9h2.8v0.7h-3.9V262.6z"/>
		<path class="st14" d="M239.7,255c1.1,1.6,1.5,2.9,1.5,4.6c0,1.7-0.4,3.1-1.5,4.7l-0.6-0.4c0.3-0.5,0.5-1,0.7-1.4
			c0.3-0.8,0.5-1.8,0.5-2.8c0-1.1-0.2-2.1-0.6-3c-0.2-0.4-0.4-0.8-0.7-1.3L239.7,255z"/>
	</g>
</g>
</svg>
