<?xml version="1.0" encoding="utf-8"?>
<!-- Generator: Adobe Illustrator 27.0.0, SVG Export Plug-In . SVG Version: 6.00 Build 0)  -->
<svg version="1.1" xmlns="http://www.w3.org/2000/svg" xmlns:xlink="http://www.w3.org/1999/xlink" x="0px" y="0px"
	 viewBox="0 0 349 450.3" style="enable-background:new 0 0 349 450.3;" xml:space="preserve">
<style type="text/css">
	.st0{fill:none;}
	.st1{fill:none;stroke:#CCCCCC;stroke-width:0.7354;stroke-linecap:round;stroke-linejoin:round;}
	.st2{fill:none;stroke:#CCCCCC;stroke-width:0.5029;stroke-linecap:round;stroke-linejoin:round;}
	.st3{fill:#AA93D0;}
	.st4{fill:none;stroke:#CCCCCC;stroke-width:0.5164;stroke-linecap:square;}
	.st5{fill:none;stroke:#CCCCCC;stroke-width:0.5165;stroke-linecap:square;}
	.st6{fill:none;stroke:#CCCCCC;stroke-width:0.4295;stroke-linecap:round;stroke-linejoin:round;}
	.st7{fill:none;stroke:#CCCCCC;stroke-width:0.4972;stroke-linecap:round;stroke-linejoin:round;}
	.st8{fill:none;stroke:#CCCCCC;stroke-width:0.4977;stroke-linecap:round;stroke-linejoin:round;}
	.st9{fill:none;stroke:#CCCCCC;stroke-width:0.4977;stroke-linecap:round;stroke-linejoin:round;stroke-dasharray:1.9683,1.9683;}
	.st10{fill:#71B0DE;}
	.st11{fill:#FFB809;}
	.st12{fill:none;stroke:#CCCCCC;stroke-width:0.5007;stroke-linecap:square;}
	.st13{fill:none;stroke:#CCCCCC;stroke-width:0.5008;stroke-linecap:square;}
	.st14{fill:#B6A3D7;}
	.st15{fill:#262626;}
	.st16{fill:#2178C3;}
	.st17{font-family:'URWDIN-Bold';}
	.st18{font-size:16px;}
	.st19{fill:#545454;}
	.st20{font-family:'URWDIN-Regular';}
	.st21{font-size:10px;}
	.st22{fill:none;stroke:#CCCCCC;stroke-width:0.6306;stroke-linecap:round;stroke-linejoin:round;stroke-miterlimit:10;}
	.st23{fill:none;stroke:#CCCCCC;stroke-width:0.4835;stroke-linecap:round;stroke-linejoin:round;stroke-miterlimit:10;}
	.st24{fill:#B4A0D6;}
	.st25{fill:#9275C3;}
	.st26{fill:none;stroke:#CCCCCC;stroke-width:0.5076;stroke-linecap:square;stroke-miterlimit:10;}
	.st27{fill:none;stroke:#CCCCCC;stroke-width:0.5;stroke-linecap:square;stroke-miterlimit:10;}
	.st28{fill:none;stroke:#CCCCCC;stroke-width:0.5083;stroke-linecap:square;stroke-miterlimit:10;}
	.st29{fill:none;stroke:#CCCCCC;stroke-width:0.5086;stroke-linecap:square;stroke-miterlimit:10;}
	.st30{fill:none;stroke:#CCCCCC;stroke-width:0.4856;stroke-linecap:square;stroke-miterlimit:10;}
	.st31{fill:none;stroke:#CCCCCC;stroke-width:0.4835;stroke-linecap:square;stroke-miterlimit:10;}
	.st32{fill:none;stroke:#CCCCCC;stroke-width:0.5234;stroke-linecap:round;stroke-linejoin:round;stroke-miterlimit:10;}
	.st33{fill:none;stroke:#CCCCCC;stroke-width:0.491;stroke-linecap:round;stroke-linejoin:round;stroke-miterlimit:10;}
	.st34{fill:#66A9DC;}
	.st35{fill:none;stroke:#CCCCCC;stroke-width:0.491;stroke-linecap:square;stroke-miterlimit:10;}
	.st36{font-size:11.3806px;}
	.st37{font-size:10.346px;}
	.st38{fill:none;stroke:#FFFFFF;stroke-width:2.0692;}
	.st39{font-family:'URWDIN-Medium';}
	.st40{font-size:11px;}
	.st41{fill:#7151B7;}
	.st42{fill:none;stroke:#CCCCCC;stroke-width:0.537;stroke-linecap:round;stroke-linejoin:round;stroke-miterlimit:10;}
	.st43{fill:none;stroke:#CCCCCC;stroke-width:0.5632;stroke-linecap:round;stroke-linejoin:round;stroke-miterlimit:10;}
	.st44{fill:none;stroke:#CCCCCC;stroke-width:0.6086;stroke-linecap:round;stroke-linejoin:round;stroke-miterlimit:10;}
	.st45{fill:none;stroke:#CCCCCC;stroke-width:0.6095;stroke-linecap:square;stroke-miterlimit:10;}
	.st46{fill:none;stroke:#FFFFFF;stroke-width:2.0985;}
	.st47{font-size:11.1441px;}
	.st48{fill:none;stroke:#FFFFFF;stroke-width:2.1007;}
	.st49{font-size:11.1674px;}
	.st50{fill:#FFFFFF;}
	.st51{font-family:'URWDIN-Demi';}
</style>
<g id="Layer_1">
</g>
<g id="Layer_2">
	<text transform="matrix(1 0 0 1 15.1954 31.6382)" class="st16 st17 st18">Ozone Park (2013)</text>
	<text transform="matrix(1 0 0 1 15.1954 50.8384)" class="st16 st17 st18">CEQR Estimates vs. Actual Development</text>
	<text transform="matrix(0.583 0 0 0.583 303.1915 42.5103)" class="st16 st17 st18">a</text>
	<text transform="matrix(1 0 0 1 308.1905 50.8384)" class="st16 st17 st18"> </text>
	<rect x="16.2" y="392.5" class="st0" width="319.9" height="38.7"/>
	<text transform="matrix(0.583 0 0 0.583 16.1592 396.2882)" class="st19 st20 st21">a</text>
	<text transform="matrix(1 0 0 1 19.2197 399.6183)" class="st19 st20 st21">Based on new construction overall. </text>
	<text transform="matrix(0.583 0 0 0.583 175.418 396.2882)" class="st19 st20 st21">b</text>
	<text transform="matrix(1 0 0 1 178.7119 399.6183)" class="st19 st20 st21">Affordable units counted toward </text>
	<text transform="matrix(1 0 0 1 16.1592 411.6183)" class="st19 st20 st21">Housing NY since 2014. Sources: EAS (DCP, 2013) PLUTO 22v3 (DCP, </text>
	<text transform="matrix(1 0 0 1 16.1592 423.6183)" class="st19 st20 st21">2022), Affordable Housing Production (HPD, 2022) </text>
	<line class="st27" x1="16.2" y1="81" x2="332" y2="81"/>
	<line class="st26" x1="16.2" y1="188.5" x2="332" y2="188.5"/>
	<line class="st28" x1="15.9" y1="348.2" x2="332.7" y2="348.2"/>
	<line class="st29" x1="15.7" y1="245.7" x2="332.7" y2="245.7"/>
	<line class="st32" x1="15.8" y1="81" x2="15.8" y2="188.5"/>
	<line class="st33" x1="83.4" y1="81" x2="83.4" y2="188.8"/>
	<line class="st33" x1="151.1" y1="81" x2="151.1" y2="188.8"/>
	<line class="st33" x1="218.7" y1="81" x2="218.7" y2="188.8"/>
	<line class="st33" x1="286.3" y1="81" x2="286.3" y2="188.8"/>
	<rect x="16.2" y="86" class="st34" width="287.4" height="28.2"/>
	<rect x="16.1" y="138.2" class="st34" width="300.7" height="28.2"/>
	<line class="st35" x1="331.8" y1="81" x2="331.8" y2="188.8"/>
	<text transform="matrix(1 0 0 1 14.4867 212.2483)" class="st19 st20 st36">Number of Developments</text>
	<text transform="matrix(1 0 0 1 15.2011 73.9545)" class="st16 st17 st36">Developments</text>
	<text transform="matrix(1 0 0 1 15.2557 373.2737)" class="st19 st20 st36">Number of Units</text>
	<text transform="matrix(1 0 0 1 15.4985 237.3601)" class="st16 st17 st36">Dwelling Units</text>
	<text transform="matrix(1 0 0 1 14.6433 199.7595)" class="st19 st20 st37">0 </text>
	<text transform="matrix(1 0 0 1 78.4386 200.0921)" class="st19 st20 st37">20 </text>
	<text transform="matrix(1 0 0 1 145.6472 200.7572)" class="st19 st20 st37">40 </text>
	<text transform="matrix(1 0 0 1 212.8258 200.0921)" class="st19 st20 st37">60 </text>
	<text transform="matrix(1 0 0 1 280.6996 200.0921)" class="st19 st20 st37">80 </text>
	<text transform="matrix(1 0 0 1 16.4171 359.3618)" class="st19 st20 st37">0 </text>
	<text transform="matrix(1 0 0 1 55.2304 359.8373)" class="st19 st20 st37">50 </text>
	<text transform="matrix(1 0 0 1 99.4016 359.9896)" class="st19 st20 st37">100 </text>
	<text transform="matrix(1 0 0 1 144.3225 359.9896)" class="st19 st20 st37">150 </text>
	<text transform="matrix(1 0 0 1 187.5882 359.9896)" class="st19 st20 st37">200 </text>
	<text transform="matrix(1 0 0 1 233.9738 359.9896)" class="st19 st20 st37">250 </text>
	<text transform="matrix(1 0 0 1 279.3695 359.9896)" class="st19 st20 st37">300 </text>
	<text transform="matrix(1 0 0 1 317.3197 360.515)" class="st19 st20 st37">350 </text>
	<g>
		<rect x="18.5" y="171.5" class="st0" width="298.2" height="14.5"/>
		<text transform="matrix(1 0 0 1 18.5014 179.3689)" class="st38 st39 st40">Projected &amp; Potential Sites by Build Year 2023(CEQR Est.)</text>
		<rect x="18.5" y="171.5" class="st0" width="298.2" height="14.5"/>
		<text transform="matrix(1 0 0 1 18.5014 179.3689)" class="st41 st39 st40">Projected &amp; Potential Sites by Build Year 2023(CEQR Est.)</text>
		<rect x="18.5" y="171.5" class="st0" width="298.2" height="14.5"/>
		<text transform="matrix(1 0 0 1 18.5014 179.3689)" class="st16 st39 st40">Projected &amp; Potential Sites by Build Year 2023(CEQR Est.)</text>
	</g>
	<g>
		<rect x="20.8" y="118.7" class="st0" width="200.4" height="46.1"/>
		<text transform="matrix(1 0 0 1 20.7868 126.5312)" class="st38 st39 st40">New Construction by 2022</text>
		<rect x="20.8" y="118.7" class="st0" width="200.4" height="46.1"/>
		<text transform="matrix(1 0 0 1 20.7868 126.5312)" class="st41 st39 st40">New Construction by 2022</text>
		<rect x="20.8" y="118.7" class="st0" width="200.4" height="46.1"/>
		<text transform="matrix(1 0 0 1 20.7868 126.5312)" class="st16 st39 st40">New Construction by 2022</text>
	</g>
	<line class="st42" x1="15.9" y1="246.2" x2="15.9" y2="348.1"/>
	<line class="st43" x1="61.2" y1="246.3" x2="61.2" y2="348.5"/>
	<line class="st44" x1="106.4" y1="246.3" x2="106.4" y2="348"/>
	<line class="st44" x1="151.7" y1="246.3" x2="151.7" y2="348"/>
	<line class="st44" x1="197" y1="246.3" x2="197" y2="348"/>
	<line class="st44" x1="242.2" y1="246.3" x2="242.2" y2="348"/>
	<line class="st44" x1="287.5" y1="246.3" x2="287.5" y2="348"/>
	<rect x="15.9" y="302" class="st34" width="302.4" height="28"/>
	<rect x="15.9" y="252" class="st34" width="182" height="28"/>
	<rect x="197.9" y="252" class="st11" width="8.1" height="28"/>
	<line class="st45" x1="332.8" y1="246.5" x2="332.8" y2="348.6"/>
	<g>
		<rect x="19.3" y="334.3" class="st0" width="141.6" height="14.7"/>
		<text transform="matrix(1.0021 0 0 1 19.3055 342.2878)" class="st46 st39 st47">By 2023 (CEQR Est.)</text>
		<rect x="19.3" y="334.3" class="st0" width="141.6" height="14.7"/>
		<text transform="matrix(1.0021 0 0 1 19.3055 342.2878)" class="st41 st39 st47">By 2023 (CEQR Est.)</text>
		<rect x="19.3" y="334.3" class="st0" width="141.6" height="14.7"/>
		<text transform="matrix(1.0021 0 0 1 19.3055 342.2878)" class="st16 st39 st47">By 2023 (CEQR Est.)</text>
	</g>
	<g>
		<rect x="18.2" y="284" class="st0" width="129" height="13.1"/>
		<text transform="matrix(1 0 0 1 18.1969 291.9516)" class="st48 st39 st49">By 2022 (Actual)</text>
		<rect x="18.2" y="284" class="st0" width="129" height="13.1"/>
		<text transform="matrix(1 0 0 1 18.1969 291.9516)" class="st41 st39 st49">By 2022 (Actual)</text>
		<rect x="18.2" y="284" class="st0" width="129" height="13.1"/>
		<text transform="matrix(1 0 0 1 18.1969 291.9516)" class="st16 st39 st49">By 2022 (Actual)</text>
	</g>
	<text transform="matrix(1 0 0 1 126.2647 268.9045)" class="st50 st39 st40">Market Rate </text>
	<text transform="matrix(1 0 0 1 209.4547 270.5672)" class="st11 st51 st40">Affordable</text>
	<text transform="matrix(0.583 0 0 0.583 261.6378 266.9041)" class="st11 st51 st40">b</text>
	<text transform="matrix(1 0 0 1 265.2741 270.5672)" class="st11 st51 st40"> </text>
</g>
</svg>
