<?xml version="1.0" encoding="UTF-8"?>
<svg viewBox="0 0 717.55 313.34" xmlns="http://www.w3.org/2000/svg">
<defs>
<style>.h,.i,.j,.k,.l,.m,.n{fill:none;}.o,.p,.q{fill:#231f20;}.r,.s,.t,.p,.i,.u,.v,.j,.k,.q,.l,.m,.n{stroke:#231f20;}.r,.s,.t,.u,.v{fill:#fff;}.r,.s,.p,.n{stroke-miterlimit:10;}.r,.u,.v{stroke-width:.49px;}.s,.t{stroke-width:.49px;}.t,.i,.u,.v,.j,.k,.q,.l,.m{stroke-linejoin:round;}.t,.i,.u,.j,.k,.q,.l{stroke-linecap:round;}.p,.i,.j,.k,.l,.m,.n{stroke-width:.5px;}.i{stroke-dasharray:0 0 1.01 3.02;}.w{clip-path:url(#j);}.x{clip-path:url(#k);}.y{clip-path:url(#g);}.a`{clip-path:url(#h);}.aa{clip-path:url(#i);}.ab{clip-path:url(#a);}.k{stroke-dasharray:0 0 1.01 3.03;}.q{stroke-width:.75px;}.l{stroke-dasharray:0 0 1.01 3.03;}</style>
<clipPath id="k">
<polygon class="h" points="609.73 74.47 679.09 193.2 541.8 193.2"/>
</clipPath>
<clipPath id="j">
<polygon class="h" points="393.02 131.18 462.39 249.9 325.09 249.9"/>
</clipPath>
<clipPath id="i">
<polygon class="h" points="203.84 131.18 273.21 249.9 135.92 249.9"/>
</clipPath>
<clipPath id="h">
<polygon class="h" points="610.79 177.11 541.42 58.38 678.71 58.38"/>
</clipPath>
<clipPath id="g">
<polygon class="h" points="393.5 177.5 324.14 58.77 461.43 58.77"/>
</clipPath>
<clipPath id="a">
<polygon class="h" points="69.62 176.92 0.25 58.19 137.54 58.19"/>
</clipPath>
</defs>
<path class="o" d="M5.4,46.05H3.34v-.7h4.93v.7h-2.04v6.44h-.83v-6.44Z"/>
<path class="o" d="M15.02,45.35h4.17v.7h-3.35v2.48h2.86v.7h-2.86v2.56h3.36v.7h-4.18v-7.14Z"/>
<path class="o" d="M30.76,50.81c-.07,1.13-.91,1.77-2.32,1.77-.91,0-1.55-.29-1.96-.9-.31-.46-.43-1.02-.43-2.02v-1.47c0-1.09,.15-1.68,.53-2.15,.43-.53,1.02-.77,1.87-.77,1.37,0,2.18,.65,2.24,1.8l-.76,.06c-.1-.75-.63-1.16-1.47-1.16-1.12,0-1.58,.65-1.58,2.26v1.38c0,1.63,.45,2.27,1.59,2.27,.86,0,1.41-.42,1.52-1.16l.77,.09Z"/>
<path class="o" d="M37.95,45.35h.83v3.18h3.06v-3.18h.83v7.14h-.83v-3.26h-3.06v3.26h-.83v-7.14Z"/>
<path class="o" d="M50.17,45.35h.8l3.52,5.72v-5.72h.81v7.14h-.8l-3.52-5.72v5.72h-.81v-7.14Z"/>
<path class="o" d="M62.62,48.04c0-1,.17-1.57,.59-2.04,.46-.51,1.05-.74,1.92-.74,.93,0,1.57,.27,2.03,.86,.34,.45,.48,.99,.48,1.92v1.76c0,1.01-.16,1.57-.59,2.04-.46,.51-1.05,.74-1.92,.74-.93,0-1.57-.27-2.02-.86-.35-.45-.49-1-.49-1.92v-1.76Zm4.19,.08c0-.79-.1-1.22-.39-1.59-.29-.39-.69-.57-1.29-.57-.64,0-1.07,.21-1.36,.66-.23,.37-.32,.77-.32,1.5v1.6c0,.79,.1,1.22,.39,1.59,.29,.39,.69,.57,1.29,.57,.64,0,1.07-.21,1.36-.66,.23-.37,.32-.77,.32-1.5v-1.6Z"/>
<path class="o" d="M79.5,50.81c-.07,1.13-.91,1.77-2.32,1.77-.91,0-1.55-.29-1.96-.9-.31-.46-.43-1.02-.43-2.02v-1.47c0-1.09,.15-1.68,.53-2.15,.43-.53,1.02-.77,1.87-.77,1.37,0,2.18,.65,2.24,1.8l-.76,.06c-.1-.75-.63-1.16-1.47-1.16-1.12,0-1.58,.65-1.58,2.26v1.38c0,1.63,.45,2.27,1.59,2.27,.86,0,1.41-.42,1.52-1.16l.77,.09Z"/>
<path class="o" d="M87.53,52.49h-.83v-7.14h2.45c.85,0,1.33,.15,1.7,.52,.35,.36,.51,.82,.51,1.47,0,1.17-.47,1.79-1.47,1.98l1.57,3.17h-.92l-1.47-3.08h-1.54v3.08Zm1.63-3.77c.93,0,1.37-.43,1.37-1.34s-.46-1.34-1.46-1.34h-1.55v2.68h1.64Z"/>
<path class="o" d="M98.96,50.93l-.54,1.56h-.9l2.61-7.14h.79l2.61,7.14h-.9l-.54-1.56h-3.13Zm1.57-4.52l-1.35,3.83h2.7l-1.35-3.83Z"/>
<path class="o" d="M111.3,46.05h-2.06v-.7h4.93v.7h-2.04v6.44h-.83v-6.44Z"/>
<path class="o" d="M120.92,45.35h.83v7.14h-.83v-7.14Z"/>
<path class="o" d="M133.78,50.81c-.07,1.13-.91,1.77-2.32,1.77-.91,0-1.55-.29-1.96-.9-.31-.46-.43-1.02-.43-2.02v-1.47c0-1.09,.15-1.68,.53-2.15,.43-.53,1.02-.77,1.87-.77,1.37,0,2.18,.65,2.24,1.8l-.76,.06c-.1-.75-.63-1.16-1.47-1.16-1.12,0-1.58,.65-1.58,2.26v1.38c0,1.63,.45,2.27,1.59,2.27,.86,0,1.41-.42,1.52-1.16l.77,.09Z"/>
<path class="o" d="M148.84,258.9h2.31v1.12c0,.96-.15,1.49-.53,1.95-.44,.52-1.08,.77-1.96,.77-.98,0-1.63-.29-2.07-.9-.32-.46-.44-1.01-.44-2.02v-1.46c0-1.1,.15-1.69,.55-2.16,.43-.52,1.04-.77,1.9-.77,1.42,0,2.25,.65,2.32,1.8l-.77,.06c-.1-.74-.65-1.16-1.53-1.16-1.17,0-1.64,.65-1.64,2.27v1.38c0,1.62,.48,2.26,1.67,2.26,.61,0,1.07-.2,1.35-.59,.24-.32,.33-.66,.33-1.26v-.62h-1.49v-.67Z"/>
<path class="o" d="M159.2,262.64h-.83v-7.14h2.45c.85,0,1.33,.15,1.7,.52,.35,.36,.51,.82,.51,1.47,0,1.17-.47,1.79-1.47,1.98l1.57,3.17h-.92l-1.47-3.08h-1.54v3.08Zm1.63-3.77c.93,0,1.37-.43,1.37-1.34s-.46-1.34-1.46-1.34h-1.55v2.68h1.64Z"/>
<path class="o" d="M170.63,261.08l-.54,1.56h-.9l2.61-7.14h.79l2.61,7.14h-.9l-.54-1.56h-3.13Zm1.57-4.52l-1.35,3.83h2.7l-1.35-3.83Z"/>
<path class="o" d="M181.7,261.26c.3,.5,.92,.77,1.76,.77,1.04,0,1.64-.47,1.64-1.28,0-.39-.16-.73-.43-.92q-.27-.19-1.32-.45c-1.47-.37-2.04-.94-2.04-2.03,0-1.22,.82-1.94,2.19-1.94,.96,0,1.68,.32,2.06,.9l-.63,.41c-.29-.4-.8-.62-1.46-.62-.84,0-1.35,.45-1.35,1.2s.42,1.09,1.64,1.4c.96,.23,1.13,.3,1.48,.54,.44,.3,.67,.8,.67,1.47,0,1.3-.87,2.02-2.45,2.02-1.16,0-1.97-.35-2.41-1.05l.65-.42Z"/>
<path class="o" d="M192.9,261.26c.3,.5,.92,.77,1.76,.77,1.04,0,1.64-.47,1.64-1.28,0-.39-.16-.73-.43-.92q-.27-.19-1.32-.45c-1.47-.37-2.04-.94-2.04-2.03,0-1.22,.82-1.94,2.19-1.94,.96,0,1.68,.32,2.06,.9l-.63,.41c-.29-.4-.8-.62-1.46-.62-.84,0-1.35,.45-1.35,1.2s.42,1.09,1.64,1.4c.96,.23,1.13,.3,1.48,.54,.44,.3,.67,.8,.67,1.47,0,1.3-.87,2.02-2.45,2.02-1.16,0-1.97-.35-2.41-1.05l.65-.42Z"/>
<path class="o" d="M204.88,262.64h-.83v-7.14h2.45c.85,0,1.33,.15,1.7,.52,.35,.36,.51,.82,.51,1.47,0,1.17-.47,1.79-1.47,1.98l1.57,3.17h-.92l-1.47-3.08h-1.54v3.08Zm1.63-3.77c.93,0,1.37-.43,1.37-1.34s-.46-1.34-1.46-1.34h-1.55v2.68h1.64Z"/>
<path class="o" d="M215.74,258.2c0-1,.17-1.57,.59-2.04,.46-.51,1.05-.74,1.92-.74,.93,0,1.57,.27,2.03,.86,.34,.45,.48,.99,.48,1.92v1.76c0,1.01-.16,1.57-.59,2.04-.46,.51-1.05,.74-1.92,.74-.93,0-1.57-.27-2.02-.86-.35-.45-.49-1-.49-1.92v-1.76Zm4.19,.08c0-.79-.1-1.22-.39-1.59-.29-.39-.69-.57-1.29-.57-.64,0-1.07,.21-1.36,.66-.23,.37-.32,.77-.32,1.5v1.6c0,.79,.1,1.22,.39,1.59,.29,.39,.69,.57,1.29,.57,.64,0,1.07-.21,1.36-.66,.23-.37,.32-.77,.32-1.5v-1.6Z"/>
<path class="o" d="M227.91,258.2c0-1,.17-1.57,.59-2.04,.46-.51,1.05-.74,1.92-.74,.93,0,1.57,.27,2.03,.86,.34,.45,.48,.99,.48,1.92v1.76c0,1.01-.16,1.57-.59,2.04-.46,.51-1.05,.74-1.92,.74-.93,0-1.57-.27-2.02-.86-.35-.45-.49-1-.49-1.92v-1.76Zm4.19,.08c0-.79-.1-1.22-.39-1.59-.29-.39-.69-.57-1.29-.57-.64,0-1.07,.21-1.36,.66-.23,.37-.32,.77-.32,1.5v1.6c0,.79,.1,1.22,.39,1.59,.29,.39,.69,.57,1.29,.57,.64,0,1.07-.21,1.36-.66,.23-.37,.32-.77,.32-1.5v-1.6Z"/>
<path class="o" d="M241.58,256.21h-2.06v-.7h4.93v.7h-2.04v6.44h-.83v-6.44Z"/>
<path class="o" d="M251.26,261.26c.3,.5,.92,.77,1.76,.77,1.04,0,1.64-.47,1.64-1.28,0-.39-.16-.73-.43-.92q-.27-.19-1.32-.45c-1.47-.37-2.04-.94-2.04-2.03,0-1.22,.82-1.94,2.19-1.94,.96,0,1.68,.32,2.06,.9l-.63,.41c-.29-.4-.8-.62-1.46-.62-.84,0-1.35,.45-1.35,1.2s.42,1.09,1.64,1.4c.96,.23,1.13,.3,1.48,.54,.44,.3,.67,.8,.67,1.47,0,1.3-.87,2.02-2.45,2.02-1.16,0-1.97-.35-2.41-1.05l.65-.42Z"/>
<path class="o" d="M340.02,258.99h2.31v1.12c0,.96-.15,1.49-.53,1.95-.44,.52-1.08,.77-1.96,.77-.98,0-1.63-.29-2.07-.9-.32-.46-.44-1.01-.44-2.02v-1.46c0-1.1,.15-1.69,.55-2.16,.43-.52,1.04-.77,1.9-.77,1.42,0,2.25,.65,2.32,1.8l-.77,.06c-.1-.74-.65-1.16-1.53-1.16-1.17,0-1.64,.65-1.64,2.27v1.38c0,1.62,.48,2.26,1.67,2.26,.61,0,1.07-.2,1.35-.59,.24-.32,.33-.66,.33-1.26v-.62h-1.49v-.67Z"/>
<path class="o" d="M350.38,262.73h-.83v-7.14h2.45c.85,0,1.33,.15,1.7,.52,.35,.36,.51,.82,.51,1.47,0,1.17-.47,1.79-1.47,1.98l1.57,3.17h-.92l-1.47-3.08h-1.54v3.08Zm1.63-3.77c.93,0,1.37-.43,1.37-1.34s-.46-1.34-1.46-1.34h-1.55v2.68h1.64Z"/>
<path class="o" d="M361.81,261.17l-.54,1.56h-.9l2.61-7.14h.79l2.61,7.14h-.9l-.54-1.56h-3.13Zm1.57-4.52l-1.35,3.83h2.7l-1.35-3.83Z"/>
<path class="o" d="M372.88,261.36c.3,.5,.92,.77,1.76,.77,1.04,0,1.64-.47,1.64-1.28,0-.39-.16-.73-.43-.92q-.27-.19-1.32-.45c-1.47-.37-2.04-.94-2.04-2.03,0-1.22,.82-1.94,2.19-1.94,.96,0,1.68,.32,2.06,.9l-.63,.41c-.29-.4-.8-.62-1.46-.62-.84,0-1.35,.45-1.35,1.2s.42,1.09,1.64,1.4c.96,.23,1.13,.3,1.48,.54,.44,.3,.67,.8,.67,1.47,0,1.3-.87,2.02-2.45,2.02-1.16,0-1.97-.35-2.41-1.05l.65-.42Z"/>
<path class="o" d="M384.08,261.36c.3,.5,.92,.77,1.76,.77,1.04,0,1.64-.47,1.64-1.28,0-.39-.16-.73-.43-.92q-.27-.19-1.32-.45c-1.47-.37-2.04-.94-2.04-2.03,0-1.22,.82-1.94,2.19-1.94,.96,0,1.68,.32,2.06,.9l-.63,.41c-.29-.4-.8-.62-1.46-.62-.84,0-1.35,.45-1.35,1.2s.42,1.09,1.64,1.4c.96,.23,1.13,.3,1.48,.54,.44,.3,.67,.8,.67,1.47,0,1.3-.87,2.02-2.45,2.02-1.16,0-1.97-.35-2.41-1.05l.65-.42Z"/>
<path class="o" d="M396.06,262.73h-.83v-7.14h2.45c.85,0,1.33,.15,1.7,.52,.35,.36,.51,.82,.51,1.47,0,1.17-.47,1.79-1.47,1.98l1.57,3.17h-.92l-1.47-3.08h-1.54v3.08Zm1.63-3.77c.93,0,1.37-.43,1.37-1.34s-.46-1.34-1.46-1.34h-1.55v2.68h1.64Z"/>
<path class="o" d="M406.92,258.29c0-1,.17-1.57,.59-2.04,.46-.51,1.05-.74,1.92-.74,.93,0,1.57,.27,2.03,.86,.34,.45,.48,.99,.48,1.92v1.76c0,1.01-.16,1.57-.59,2.04-.46,.51-1.05,.74-1.92,.74-.93,0-1.57-.27-2.02-.86-.35-.45-.49-1-.49-1.92v-1.76Zm4.19,.08c0-.79-.1-1.22-.39-1.59-.29-.39-.69-.57-1.29-.57-.64,0-1.07,.21-1.36,.66-.23,.37-.32,.77-.32,1.5v1.6c0,.79,.1,1.22,.39,1.59,.29,.39,.69,.57,1.29,.57,.64,0,1.07-.21,1.36-.66,.23-.37,.32-.77,.32-1.5v-1.6Z"/>
<path class="o" d="M419.09,258.29c0-1,.17-1.57,.59-2.04,.46-.51,1.05-.74,1.92-.74,.93,0,1.57,.27,2.03,.86,.34,.45,.48,.99,.48,1.92v1.76c0,1.01-.16,1.57-.59,2.04-.46,.51-1.05,.74-1.92,.74-.93,0-1.57-.27-2.02-.86-.35-.45-.49-1-.49-1.92v-1.76Zm4.19,.08c0-.79-.1-1.22-.39-1.59-.29-.39-.69-.57-1.29-.57-.64,0-1.07,.21-1.36,.66-.23,.37-.32,.77-.32,1.5v1.6c0,.79,.1,1.22,.39,1.59,.29,.39,.69,.57,1.29,.57,.64,0,1.07-.21,1.36-.66,.23-.37,.32-.77,.32-1.5v-1.6Z"/>
<path class="o" d="M432.76,256.3h-2.06v-.7h4.93v.7h-2.04v6.44h-.83v-6.44Z"/>
<path class="o" d="M442.44,261.36c.3,.5,.92,.77,1.76,.77,1.04,0,1.64-.47,1.64-1.28,0-.39-.16-.73-.43-.92q-.27-.19-1.32-.45c-1.47-.37-2.04-.94-2.04-2.03,0-1.22,.82-1.94,2.19-1.94,.96,0,1.68,.32,2.06,.9l-.63,.41c-.29-.4-.8-.62-1.46-.62-.84,0-1.35,.45-1.35,1.2s.42,1.09,1.64,1.4c.96,.23,1.13,.3,1.48,.54,.44,.3,.67,.8,.67,1.47,0,1.3-.87,2.02-2.45,2.02-1.16,0-1.97-.35-2.41-1.05l.65-.42Z"/>
<path class="o" d="M327.06,46.02h-2.06v-.7h4.93v.7h-2.04v6.44h-.83v-6.44Z"/>
<path class="o" d="M336.68,45.32h4.17v.7h-3.35v2.48h2.86v.7h-2.86v2.56h3.36v.7h-4.18v-7.14Z"/>
<path class="o" d="M352.42,50.77c-.07,1.13-.91,1.77-2.32,1.77-.91,0-1.55-.29-1.96-.9-.31-.46-.43-1.02-.43-2.02v-1.47c0-1.09,.15-1.68,.53-2.15,.43-.53,1.02-.77,1.87-.77,1.37,0,2.18,.65,2.24,1.8l-.76,.06c-.1-.75-.63-1.16-1.47-1.16-1.12,0-1.58,.65-1.58,2.26v1.38c0,1.63,.45,2.27,1.59,2.27,.86,0,1.41-.42,1.52-1.16l.77,.09Z"/>
<path class="o" d="M359.61,45.32h.83v3.18h3.06v-3.18h.83v7.14h-.83v-3.26h-3.06v3.26h-.83v-7.14Z"/>
<path class="o" d="M371.83,45.32h.8l3.52,5.72v-5.72h.81v7.14h-.8l-3.52-5.72v5.72h-.81v-7.14Z"/>
<path class="o" d="M384.28,48.01c0-1,.17-1.57,.59-2.04,.46-.51,1.05-.74,1.92-.74,.93,0,1.57,.27,2.03,.86,.34,.45,.48,.99,.48,1.92v1.76c0,1.01-.16,1.57-.59,2.04-.46,.51-1.05,.74-1.92,.74-.93,0-1.57-.27-2.02-.86-.35-.45-.49-1-.49-1.92v-1.76Zm4.19,.08c0-.79-.1-1.22-.39-1.59-.29-.39-.69-.57-1.29-.57-.64,0-1.07,.21-1.36,.66-.23,.37-.32,.77-.32,1.5v1.6c0,.79,.1,1.22,.39,1.59,.29,.39,.69,.57,1.29,.57,.64,0,1.07-.21,1.36-.66,.23-.37,.32-.77,.32-1.5v-1.6Z"/>
<path class="o" d="M401.16,50.77c-.07,1.13-.91,1.77-2.32,1.77-.91,0-1.55-.29-1.96-.9-.31-.46-.43-1.02-.43-2.02v-1.47c0-1.09,.15-1.68,.53-2.15,.43-.53,1.02-.77,1.87-.77,1.37,0,2.18,.65,2.24,1.8l-.76,.06c-.1-.75-.63-1.16-1.47-1.16-1.12,0-1.58,.65-1.58,2.26v1.38c0,1.63,.45,2.27,1.59,2.27,.86,0,1.41-.42,1.52-1.16l.77,.09Z"/>
<path class="o" d="M409.19,52.45h-.83v-7.14h2.45c.85,0,1.33,.15,1.7,.52,.35,.36,.51,.82,.51,1.47,0,1.17-.47,1.79-1.47,1.98l1.57,3.17h-.92l-1.47-3.08h-1.54v3.08Zm1.63-3.77c.93,0,1.37-.43,1.37-1.34s-.46-1.34-1.46-1.34h-1.55v2.68h1.64Z"/>
<path class="o" d="M420.62,50.89l-.54,1.56h-.9l2.61-7.14h.79l2.61,7.14h-.9l-.54-1.56h-3.13Zm1.57-4.52l-1.35,3.83h2.7l-1.35-3.83Z"/>
<path class="o" d="M432.96,46.02h-2.06v-.7h4.93v.7h-2.04v6.44h-.83v-6.44Z"/>
<path class="o" d="M442.58,45.32h.83v7.14h-.83v-7.14Z"/>
<path class="o" d="M455.44,50.77c-.07,1.13-.91,1.77-2.32,1.77-.91,0-1.55-.29-1.96-.9-.31-.46-.43-1.02-.43-2.02v-1.47c0-1.09,.15-1.68,.53-2.15,.43-.53,1.02-.77,1.87-.77,1.37,0,2.18,.65,2.24,1.8l-.76,.06c-.1-.75-.63-1.16-1.47-1.16-1.12,0-1.58,.65-1.58,2.26v1.38c0,1.63,.45,2.27,1.59,2.27,.86,0,1.41-.42,1.52-1.16l.77,.09Z"/>
<path class="o" d="M545.01,46.02h-2.06v-.7h4.93v.7h-2.04v6.44h-.83v-6.44Z"/>
<path class="o" d="M554.63,45.32h4.17v.7h-3.35v2.48h2.86v.7h-2.86v2.56h3.36v.7h-4.18v-7.14Z"/>
<path class="o" d="M570.37,50.77c-.07,1.13-.91,1.77-2.32,1.77-.91,0-1.55-.29-1.96-.9-.31-.46-.43-1.02-.43-2.02v-1.47c0-1.09,.15-1.68,.53-2.15,.43-.53,1.02-.77,1.87-.77,1.37,0,2.18,.65,2.24,1.8l-.76,.06c-.1-.75-.63-1.16-1.47-1.16-1.12,0-1.58,.65-1.58,2.26v1.38c0,1.63,.45,2.27,1.59,2.27,.86,0,1.41-.42,1.52-1.16l.77,.09Z"/>
<path class="o" d="M577.56,45.32h.83v3.18h3.06v-3.18h.83v7.14h-.83v-3.26h-3.06v3.26h-.83v-7.14Z"/>
<path class="o" d="M589.78,45.32h.8l3.52,5.72v-5.72h.81v7.14h-.8l-3.52-5.72v5.72h-.81v-7.14Z"/>
<path class="o" d="M602.23,48.01c0-1,.17-1.57,.59-2.04,.46-.51,1.05-.74,1.92-.74,.93,0,1.57,.27,2.03,.86,.34,.45,.48,.99,.48,1.92v1.76c0,1.01-.16,1.57-.59,2.04-.46,.51-1.05,.74-1.92,.74-.93,0-1.57-.27-2.02-.86-.35-.45-.49-1-.49-1.92v-1.76Zm4.19,.08c0-.79-.1-1.22-.39-1.59-.29-.39-.69-.57-1.29-.57-.64,0-1.07,.21-1.36,.66-.23,.37-.32,.77-.32,1.5v1.6c0,.79,.1,1.22,.39,1.59,.29,.39,.69,.57,1.29,.57,.64,0,1.07-.21,1.36-.66,.23-.37,.32-.77,.32-1.5v-1.6Z"/>
<path class="o" d="M619.11,50.77c-.07,1.13-.91,1.77-2.32,1.77-.91,0-1.55-.29-1.96-.9-.31-.46-.43-1.02-.43-2.02v-1.47c0-1.09,.15-1.68,.53-2.15,.43-.53,1.02-.77,1.87-.77,1.37,0,2.18,.65,2.24,1.8l-.76,.06c-.1-.75-.63-1.16-1.47-1.16-1.12,0-1.58,.65-1.58,2.26v1.38c0,1.63,.45,2.27,1.59,2.27,.86,0,1.41-.42,1.52-1.16l.77,.09Z"/>
<path class="o" d="M627.14,52.45h-.83v-7.14h2.45c.85,0,1.33,.15,1.7,.52,.35,.36,.51,.82,.51,1.47,0,1.17-.47,1.79-1.47,1.98l1.57,3.17h-.92l-1.47-3.08h-1.54v3.08Zm1.63-3.77c.93,0,1.37-.43,1.37-1.34s-.46-1.34-1.46-1.34h-1.55v2.68h1.64Z"/>
<path class="o" d="M638.57,50.89l-.54,1.56h-.9l2.61-7.14h.79l2.61,7.14h-.9l-.54-1.56h-3.13Zm1.57-4.52l-1.35,3.83h2.7l-1.35-3.83Z"/>
<path class="o" d="M650.91,46.02h-2.06v-.7h4.93v.7h-2.04v6.44h-.83v-6.44Z"/>
<path class="o" d="M660.53,45.32h.83v7.14h-.83v-7.14Z"/>
<path class="o" d="M673.39,50.77c-.07,1.13-.91,1.77-2.32,1.77-.91,0-1.55-.29-1.96-.9-.31-.46-.43-1.02-.43-2.02v-1.47c0-1.09,.15-1.68,.53-2.15,.43-.53,1.02-.77,1.87-.77,1.37,0,2.18,.65,2.24,1.8l-.76,.06c-.1-.75-.63-1.16-1.47-1.16-1.12,0-1.58,.65-1.58,2.26v1.38c0,1.63,.45,2.27,1.59,2.27,.86,0,1.41-.42,1.52-1.16l.77,.09Z"/>
<path class="o" d="M559.21,259.17h2.31v1.12c0,.96-.15,1.49-.53,1.95-.44,.52-1.08,.77-1.96,.77-.98,0-1.63-.29-2.07-.9-.32-.46-.44-1.01-.44-2.02v-1.46c0-1.1,.15-1.69,.55-2.16,.43-.52,1.04-.77,1.9-.77,1.42,0,2.25,.65,2.32,1.8l-.77,.06c-.1-.74-.65-1.16-1.53-1.16-1.17,0-1.64,.65-1.64,2.27v1.38c0,1.62,.48,2.26,1.67,2.26,.61,0,1.07-.2,1.35-.59,.24-.32,.33-.66,.33-1.26v-.62h-1.49v-.67Z"/>
<path class="o" d="M569.57,262.92h-.83v-7.14h2.45c.85,0,1.33,.15,1.7,.52,.35,.36,.51,.82,.51,1.47,0,1.17-.47,1.79-1.47,1.98l1.57,3.17h-.92l-1.47-3.08h-1.54v3.08Zm1.63-3.77c.93,0,1.37-.43,1.37-1.34s-.46-1.34-1.46-1.34h-1.55v2.68h1.64Z"/>
<path class="o" d="M581,261.36l-.54,1.56h-.9l2.61-7.14h.79l2.61,7.14h-.9l-.54-1.56h-3.13Zm1.57-4.52l-1.35,3.83h2.7l-1.35-3.83Z"/>
<path class="o" d="M592.07,261.54c.3,.5,.92,.77,1.76,.77,1.04,0,1.64-.47,1.64-1.28,0-.39-.16-.73-.43-.92q-.27-.19-1.32-.45c-1.47-.37-2.04-.94-2.04-2.03,0-1.22,.82-1.94,2.19-1.94,.96,0,1.68,.32,2.06,.9l-.63,.41c-.29-.4-.8-.62-1.46-.62-.84,0-1.35,.45-1.35,1.2s.42,1.09,1.64,1.4c.96,.23,1.13,.3,1.48,.54,.44,.3,.67,.8,.67,1.47,0,1.3-.87,2.02-2.45,2.02-1.16,0-1.97-.35-2.41-1.05l.65-.42Z"/>
<path class="o" d="M603.27,261.54c.3,.5,.92,.77,1.76,.77,1.04,0,1.64-.47,1.64-1.28,0-.39-.16-.73-.43-.92q-.27-.19-1.32-.45c-1.47-.37-2.04-.94-2.04-2.03,0-1.22,.82-1.94,2.19-1.94,.96,0,1.68,.32,2.06,.9l-.63,.41c-.29-.4-.8-.62-1.46-.62-.84,0-1.35,.45-1.35,1.2s.42,1.09,1.64,1.4c.96,.23,1.13,.3,1.48,.54,.44,.3,.67,.8,.67,1.47,0,1.3-.87,2.02-2.45,2.02-1.16,0-1.97-.35-2.41-1.05l.65-.42Z"/>
<path class="o" d="M615.25,262.92h-.83v-7.14h2.45c.85,0,1.33,.15,1.7,.52,.35,.36,.51,.82,.51,1.47,0,1.17-.47,1.79-1.47,1.98l1.57,3.17h-.92l-1.47-3.08h-1.54v3.08Zm1.63-3.77c.93,0,1.37-.43,1.37-1.34s-.46-1.34-1.46-1.34h-1.55v2.68h1.64Z"/>
<path class="o" d="M626.11,258.47c0-1,.17-1.57,.59-2.04,.46-.51,1.05-.74,1.92-.74,.93,0,1.57,.27,2.03,.86,.34,.45,.48,.99,.48,1.92v1.76c0,1.01-.16,1.57-.59,2.04-.46,.51-1.05,.74-1.92,.74-.93,0-1.57-.27-2.02-.86-.35-.45-.49-1-.49-1.92v-1.76Zm4.19,.08c0-.79-.1-1.22-.39-1.59-.29-.39-.69-.57-1.29-.57-.64,0-1.07,.21-1.36,.66-.23,.37-.32,.77-.32,1.5v1.6c0,.79,.1,1.22,.39,1.59,.29,.39,.69,.57,1.29,.57,.64,0,1.07-.21,1.36-.66,.23-.37,.32-.77,.32-1.5v-1.6Z"/>
<path class="o" d="M638.28,258.47c0-1,.17-1.57,.59-2.04,.46-.51,1.05-.74,1.92-.74,.93,0,1.57,.27,2.03,.86,.34,.45,.48,.99,.48,1.92v1.76c0,1.01-.16,1.57-.59,2.04-.46,.51-1.05,.74-1.92,.74-.93,0-1.57-.27-2.02-.86-.35-.45-.49-1-.49-1.92v-1.76Zm4.19,.08c0-.79-.1-1.22-.39-1.59-.29-.39-.69-.57-1.29-.57-.64,0-1.07,.21-1.36,.66-.23,.37-.32,.77-.32,1.5v1.6c0,.79,.1,1.22,.39,1.59,.29,.39,.69,.57,1.29,.57,.64,0,1.07-.21,1.36-.66,.23-.37,.32-.77,.32-1.5v-1.6Z"/>
<path class="o" d="M651.95,256.48h-2.06v-.7h4.93v.7h-2.04v6.44h-.83v-6.44Z"/>
<path class="o" d="M661.63,261.54c.3,.5,.92,.77,1.76,.77,1.04,0,1.64-.47,1.64-1.28,0-.39-.16-.73-.43-.92q-.27-.19-1.32-.45c-1.47-.37-2.04-.94-2.04-2.03,0-1.22,.82-1.94,2.19-1.94,.96,0,1.68,.32,2.06,.9l-.63,.41c-.29-.4-.8-.62-1.46-.62-.84,0-1.35,.45-1.35,1.2s.42,1.09,1.64,1.4c.96,.23,1.13,.3,1.48,.54,.44,.3,.67,.8,.67,1.47,0,1.3-.87,2.02-2.45,2.02-1.16,0-1.97-.35-2.41-1.05l.65-.42Z"/>
<polygon class="j" points="609.92 74.47 679.29 193.2 542 193.2"/>
<g class="x">
<line class="t" x1="643" x2="714.85" y1="256.39" y2="131.77"/>
<line class="t" x1="638.09" x2="709.94" y1="253.56" y2="128.94"/>
<line class="t" x1="633.18" x2="705.03" y1="250.73" y2="126.11"/>
<line class="t" x1="628.28" x2="700.13" y1="247.9" y2="123.28"/>
<line class="t" x1="623.37" x2="695.22" y1="245.07" y2="120.46"/>
<line class="t" x1="618.46" x2="690.31" y1="242.24" y2="117.63"/>
<line class="t" x1="613.55" x2="685.41" y1="239.41" y2="114.8"/>
<line class="t" x1="608.65" x2="680.5" y1="236.59" y2="111.97"/>
<line class="t" x1="603.74" x2="675.59" y1="233.76" y2="109.14"/>
<line class="t" x1="598.83" x2="670.68" y1="230.93" y2="106.31"/>
<line class="t" x1="593.93" x2="665.78" y1="228.1" y2="103.48"/>
<line class="t" x1="589.02" x2="660.87" y1="225.27" y2="100.65"/>
<line class="t" x1="584.11" x2="655.96" y1="222.44" y2="97.82"/>
<line class="t" x1="579.21" x2="651.06" y1="219.61" y2="94.99"/>
<line class="t" x1="574.3" x2="646.15" y1="216.78" y2="92.16"/>
<line class="t" x1="569.39" x2="641.24" y1="213.95" y2="89.33"/>
<line class="t" x1="564.48" x2="636.34" y1="211.12" y2="86.5"/>
<line class="t" x1="559.58" x2="631.43" y1="208.29" y2="83.68"/>
<line class="t" x1="554.67" x2="626.52" y1="205.46" y2="80.85"/>
<line class="t" x1="549.76" x2="621.61" y1="202.63" y2="78.02"/>
<line class="t" x1="544.86" x2="616.71" y1="199.8" y2="75.19"/>
</g>
<polyline class="j" points="610.54 131.68 610.78 131.25 611.04 131.68"/>
<line class="k" x1="612.57" x2="679.14" y1="134.3" y2="248.24"/>
<polyline class="j" points="679.9 249.55 680.15 249.98 679.65 249.98"/>
<line class="l" x1="676.62" x2="544.88" y1="249.98" y2="249.98"/>
<polyline class="j" points="543.36 249.98 542.86 249.98 543.11 249.54"/>
<line class="i" x1="544.61" x2="609.79" y1="246.92" y2="132.99"/>
<polygon class="n" points="393.4 131.18 462.77 249.9 325.48 249.9"/>
<g class="w">
<line class="s" x1="426.29" x2="498.14" y1="313.1" y2="188.48"/>
<line class="s" x1="421.38" x2="493.23" y1="310.27" y2="185.65"/>
<line class="s" x1="416.47" x2="488.32" y1="307.44" y2="182.82"/>
<line class="s" x1="411.57" x2="483.42" y1="304.61" y2="179.99"/>
<line class="s" x1="406.66" x2="478.51" y1="301.78" y2="177.16"/>
<line class="s" x1="401.75" x2="473.6" y1="298.95" y2="174.33"/>
<line class="s" x1="396.85" x2="468.7" y1="296.12" y2="171.5"/>
<line class="s" x1="391.94" x2="463.79" y1="293.29" y2="168.67"/>
<line class="s" x1="387.03" x2="458.88" y1="290.46" y2="165.85"/>
<line class="s" x1="382.12" x2="453.98" y1="287.63" y2="163.02"/>
<line class="s" x1="377.22" x2="449.07" y1="284.8" y2="160.19"/>
<line class="s" x1="372.31" x2="444.16" y1="281.97" y2="157.36"/>
<line class="s" x1="367.4" x2="439.25" y1="279.15" y2="154.53"/>
<line class="s" x1="362.5" x2="434.35" y1="276.32" y2="151.7"/>
<line class="s" x1="357.59" x2="429.44" y1="273.49" y2="148.87"/>
<line class="s" x1="352.68" x2="424.53" y1="270.66" y2="146.04"/>
<line class="s" x1="347.78" x2="419.63" y1="267.83" y2="143.21"/>
<line class="s" x1="342.87" x2="414.72" y1="265" y2="140.38"/>
<line class="s" x1="337.96" x2="409.81" y1="262.17" y2="137.55"/>
<line class="s" x1="333.05" x2="404.91" y1="259.34" y2="134.72"/>
<line class="s" x1="328.15" x2="400" y1="256.51" y2="131.89"/>
</g>
<polygon class="j" points="202.75 131.18 272.12 249.9 134.83 249.9"/>
<g class="aa">
<line class="t" x1="237.11" x2="308.96" y1="313.1" y2="188.48"/>
<line class="t" x1="232.2" x2="304.05" y1="310.27" y2="185.65"/>
<line class="t" x1="227.3" x2="299.15" y1="307.44" y2="182.82"/>
<line class="t" x1="222.39" x2="294.24" y1="304.61" y2="179.99"/>
<line class="t" x1="217.48" x2="289.33" y1="301.78" y2="177.16"/>
<line class="t" x1="212.57" x2="284.43" y1="298.95" y2="174.33"/>
<line class="t" x1="207.67" x2="279.52" y1="296.12" y2="171.5"/>
<line class="t" x1="202.76" x2="274.61" y1="293.29" y2="168.67"/>
<line class="t" x1="197.85" x2="269.7" y1="290.46" y2="165.85"/>
<line class="t" x1="192.95" x2="264.8" y1="287.63" y2="163.02"/>
<line class="t" x1="188.04" x2="259.89" y1="284.8" y2="160.19"/>
<line class="t" x1="183.13" x2="254.98" y1="281.97" y2="157.36"/>
<line class="t" x1="178.23" x2="250.08" y1="279.15" y2="154.53"/>
<line class="t" x1="173.32" x2="245.17" y1="276.32" y2="151.7"/>
<line class="t" x1="168.41" x2="240.26" y1="273.49" y2="148.87"/>
<line class="t" x1="163.5" x2="235.36" y1="270.66" y2="146.04"/>
<line class="t" x1="158.6" x2="230.45" y1="267.83" y2="143.21"/>
<line class="t" x1="153.69" x2="225.54" y1="265" y2="140.38"/>
<line class="t" x1="148.78" x2="220.63" y1="262.17" y2="137.55"/>
<line class="t" x1="143.88" x2="215.73" y1="259.34" y2="134.72"/>
<line class="t" x1="138.97" x2="210.82" y1="256.51" y2="131.89"/>
</g>
<polygon class="j" points="610.79 177.11 541.42 58.38 678.71 58.38"/>
<g class="a`">
<line class="u" x1="547.71" x2="620.52" y1="57.23" y2="181.29"/>
<line class="u" x1="552.55" x2="625.36" y1="54.39" y2="178.45"/>
<line class="u" x1="557.39" x2="630.2" y1="51.55" y2="175.61"/>
<line class="u" x1="562.23" x2="635.04" y1="48.71" y2="172.77"/>
<line class="u" x1="567.07" x2="639.88" y1="45.87" y2="169.93"/>
<line class="u" x1="571.91" x2="644.71" y1="43.03" y2="167.09"/>
<line class="u" x1="576.75" x2="649.55" y1="40.19" y2="164.25"/>
<line class="u" x1="581.58" x2="654.39" y1="37.35" y2="161.41"/>
<line class="u" x1="586.42" x2="659.23" y1="34.51" y2="158.57"/>
<line class="u" x1="591.26" x2="664.07" y1="31.67" y2="155.73"/>
<line class="u" x1="596.1" x2="668.91" y1="28.83" y2="152.89"/>
<line class="u" x1="600.94" x2="673.75" y1="25.99" y2="150.05"/>
<line class="u" x1="605.78" x2="678.59" y1="23.15" y2="147.21"/>
<line class="u" x1="610.62" x2="683.43" y1="20.31" y2="144.37"/>
<line class="u" x1="615.46" x2="688.27" y1="17.47" y2="141.53"/>
<line class="u" x1="620.3" x2="693.11" y1="14.63" y2="138.69"/>
<line class="u" x1="625.14" x2="697.94" y1="11.79" y2="135.85"/>
<line class="u" x1="629.97" x2="702.78" y1="8.95" y2="133.01"/>
<line class="u" x1="634.81" x2="707.62" y1="6.11" y2="130.17"/>
<line class="u" x1="639.65" x2="712.46" y1="3.27" y2="127.33"/>
<line class="u" x1="644.49" x2="717.3" y1=".43" y2="124.49"/>
</g>
<polygon class="m" points="393.5 177.5 324.14 58.77 461.43 58.77"/>
<g class="y">
<line class="r" x1="330.43" x2="403.24" y1="57.63" y2="181.69"/>
<line class="r" x1="335.27" x2="408.07" y1="54.79" y2="178.85"/>
<line class="r" x1="340.1" x2="412.91" y1="51.95" y2="176.01"/>
<line class="r" x1="344.94" x2="417.75" y1="49.11" y2="173.17"/>
<line class="r" x1="349.78" x2="422.59" y1="46.27" y2="170.33"/>
<line class="r" x1="354.62" x2="427.43" y1="43.43" y2="167.49"/>
<line class="r" x1="359.46" x2="432.27" y1="40.59" y2="164.65"/>
<line class="r" x1="364.3" x2="437.11" y1="37.75" y2="161.81"/>
<line class="r" x1="369.14" x2="441.95" y1="34.91" y2="158.97"/>
<line class="r" x1="373.98" x2="446.79" y1="32.07" y2="156.13"/>
<line class="r" x1="378.82" x2="451.63" y1="29.23" y2="153.29"/>
<line class="r" x1="383.66" x2="456.47" y1="26.39" y2="150.45"/>
<line class="r" x1="388.5" x2="461.3" y1="23.55" y2="147.61"/>
<line class="r" x1="393.33" x2="466.14" y1="20.71" y2="144.77"/>
<line class="r" x1="398.17" x2="470.98" y1="17.87" y2="141.93"/>
<line class="r" x1="403.01" x2="475.82" y1="15.03" y2="139.09"/>
<line class="r" x1="407.85" x2="480.66" y1="12.19" y2="136.25"/>
<line class="r" x1="412.69" x2="485.5" y1="9.35" y2="133.41"/>
<line class="r" x1="417.53" x2="490.34" y1="6.51" y2="130.57"/>
<line class="r" x1="422.37" x2="495.18" y1="3.67" y2="127.73"/>
<line class="v" x1="427.21" x2="500.02" y1=".83" y2="124.89"/>
</g>
<polygon class="j" points="69.62 176.92 0.25 58.19 137.54 58.19"/>
<g class="ab">
<line class="u" x1="6.54" x2="79.35" y1="57.04" y2="181.1"/>
<line class="u" x1="11.38" x2="84.19" y1="54.2" y2="178.26"/>
<line class="u" x1="16.22" x2="89.03" y1="51.36" y2="175.42"/>
<line class="u" x1="21.06" x2="93.87" y1="48.52" y2="172.58"/>
<line class="u" x1="25.9" x2="98.71" y1="45.68" y2="169.74"/>
<line class="u" x1="30.74" x2="103.55" y1="42.84" y2="166.9"/>
<line class="u" x1="35.58" x2="108.38" y1="40" y2="164.06"/>
<line class="u" x1="40.41" x2="113.22" y1="37.16" y2="161.22"/>
<line class="u" x1="45.25" x2="118.06" y1="34.32" y2="158.38"/>
<line class="u" x1="50.09" x2="122.9" y1="31.48" y2="155.54"/>
<line class="u" x1="54.93" x2="127.74" y1="28.64" y2="152.7"/>
<line class="u" x1="59.77" x2="132.58" y1="25.8" y2="149.86"/>
<line class="u" x1="64.61" x2="137.42" y1="22.96" y2="147.02"/>
<line class="u" x1="69.45" x2="142.26" y1="20.12" y2="144.18"/>
<line class="u" x1="74.29" x2="147.1" y1="17.28" y2="141.34"/>
<line class="u" x1="79.13" x2="151.94" y1="14.44" y2="138.5"/>
<line class="u" x1="83.97" x2="156.78" y1="11.6" y2="135.66"/>
<line class="u" x1="88.81" x2="161.61" y1="8.76" y2="132.82"/>
<line class="u" x1="93.64" x2="166.45" y1="5.92" y2="129.98"/>
<line class="u" x1="98.48" x2="171.29" y1="3.08" y2="127.14"/>
<line class="u" x1="103.32" x2="176.13" y1=".24" y2="124.3"/>
</g>
<line class="q" x1="1.54" x2="688" y1="249.75" y2="250.13"/>
<line class="n" x1="543.06" x2="543.06" y1="198.58" y2="250.35"/>
<line class="p" x1="610.57" x2="610.57" y1="198.58" y2="250.35"/>
<line class="p" x1="678.74" x2="678.74" y1="198.58" y2="250.35"/>
<polyline class="j" points="537.18 206.86 543.06 198.17 548.93 206.86"/>
<polyline class="j" points="604.51 206.86 610.38 198.17 616.26 206.86"/>
<polyline class="j" points="672.67 206.86 678.55 198.17 684.42 206.86"/>
</svg>
