<svg version="1.1" id="Layer_1" xmlns="http://www.w3.org/2000/svg" x="0" y="0" viewBox="0 0 414 52.8" style="enable-background:new 0 0 414 52.8" xml:space="preserve"><style>.st0{fill:#303030}.st1{fill:#d1d3d4}.st2{font-family:&apos;URWDIN-Bold&apos;}.st3{font-size:8px}.st4{font-family:&apos;URWDIN-Regular&apos;}.st5{font-size:5.7742px}</style><switch><g><path class="st0" d="M.6 39.5h97.1v10.3H.6z"/><path class="st1" d="M309.2 39.5h97.1v10.3h-97.1z"/><path class="st0" d="M309.2 39.5h25.5v10.3h-25.5zM309.2 27.3h25.5v10.3h-25.5zM309.2 15h25.5v10.3h-25.5zM309.2 2.7h25.5V13h-25.5zM406.5 42.1v-2.6h-2.6v.7h1.9v1.9z"/><path class="st0" d="M314.9 40.2h4.6v-.7h-4.6v.7zm7.4 0h4.6v-.7h-4.6v.7zm7.5 0h4.6v-.7h-4.6v.7zm7.4 0h4.6v-.7h-4.6v.7zm7.4 0h4.6v-.7h-4.6v.7zm7.4 0h4.6v-.7H352v.7zm7.4 0h4.6v-.7h-4.6v.7zm7.4 0h4.6v-.7h-4.6v.7zm7.4 0h4.6v-.7h-4.6v.7zm7.5 0h4.6v-.7h-4.6v.7zm7.4 0h4.6v-.7h-4.6v.7zm7.4 0h4.6v-.7h-4.6v.7zM312.1 39.5h-2.6v2.6h.7v-1.9h1.9zM309.5 43.5h.7v2.3h-.7zM309.5 47.2v2.6h2.6v-.7h-1.9v-1.9zM314.9 49.8h4.6v-.7h-4.6v.7zm7.4 0h4.6v-.7h-4.6v.7zm7.5 0h4.6v-.7h-4.6v.7zm7.4 0h4.6v-.7h-4.6v.7zm7.4 0h4.6v-.7h-4.6v.7zm7.4 0h4.6v-.7H352v.7zm7.4 0h4.6v-.7h-4.6v.7zm7.4 0h4.6v-.7h-4.6v.7zm7.4 0h4.6v-.7h-4.6v.7zm7.5 0h4.6v-.7h-4.6v.7zm7.4 0h4.6v-.7h-4.6v.7zm7.4 0h4.6v-.7h-4.6v.7zM403.9 49.8h2.6v-2.6h-.7v1.9h-1.9zM405.8 43.5h.7v2.3h-.7z"/><text transform="translate(340.518 15.546)"><tspan x="0" y="0" class="st0 st2 st3">25% </tspan><tspan x="18" y="0" class="st0 st2 st3">L</tspan><tspan x="22.2" y="0" class="st0 st2 st3">O</tspan><tspan x="27.4" y="0" class="st0 st2 st3">T C</tspan><tspan x="38.4" y="0" class="st0 st2 st3">O</tspan><tspan x="43.4" y="0" class="st0 st2 st3">VER</tspan><tspan x="58.1" y="0" class="st0 st2 st3">A</tspan><tspan x="62.9" y="0" class="st0 st2 st3">GE</tspan></text><text transform="translate(147.336 15.653)"><tspan x="0" y="0" class="st0 st2 st3">50% </tspan><tspan x="18" y="0" class="st0 st2 st3">L</tspan><tspan x="22.2" y="0" class="st0 st2 st3">O</tspan><tspan x="27.4" y="0" class="st0 st2 st3">T C</tspan><tspan x="38.4" y="0" class="st0 st2 st3">O</tspan><tspan x="43.4" y="0" class="st0 st2 st3">VER</tspan><tspan x="58.1" y="0" class="st0 st2 st3">A</tspan><tspan x="62.9" y="0" class="st0 st2 st3">GE</tspan></text><text transform="translate(-.31 15.435)"><tspan x="0" y="0" class="st0 st2 st3">100% </tspan><tspan x="22.3" y="0" class="st0 st2 st3">L</tspan><tspan x="26.5" y="0" class="st0 st2 st3">O</tspan><tspan x="31.7" y="0" class="st0 st2 st3">T C</tspan><tspan x="42.7" y="0" class="st0 st2 st3">O</tspan><tspan x="47.7" y="0" class="st0 st2 st3">VER</tspan><tspan x="62.4" y="0" class="st0 st2 st3">A</tspan><tspan x="67.2" y="0" class="st0 st2 st3">GE</tspan></text><text transform="translate(340.646 25.777)" class="st0 st4 st5">4 Story Building</text><text transform="translate(340.646 33.474)"><tspan x="0" y="0" class="st0 st4 st5">Floor</tspan><tspan x="13.4" y="0" class="st0 st4 st5"> </tspan><tspan x="14.4" y="0" class="st0 st4 st5">Area Ratio = 1.0</tspan></text><text transform="translate(202.577 26.184)" class="st0 st4 st5">2 Story Building</text><text transform="translate(202.577 33.881)"><tspan x="0" y="0" class="st0 st4 st5">Floor</tspan><tspan x="13.4" y="0" class="st0 st4 st5"> </tspan><tspan x="14.4" y="0" class="st0 st4 st5">Area Ratio = 1.0</tspan></text><text transform="translate(.332 25.798)" class="st0 st4 st5">1 Story Building</text><text transform="translate(.332 33.495)"><tspan x="0" y="0" class="st0 st4 st5">Floor</tspan><tspan x="13.4" y="0" class="st0 st4 st5"> </tspan><tspan x="14.4" y="0" class="st0 st4 st5">Area Ratio = 1.0</tspan></text><path class="st1" d="M147.9 39.5H245v10.3h-97.1z"/><path class="st0" d="M147.9 39.5h50.9v10.3h-50.9zM147.9 27.3h50.9v10.3h-50.9z"/><g><path class="st0" d="M153.6 40.2h4.6v-.7h-4.6v.7zm7.4 0h4.6v-.7H161v.7zm7.4 0h4.6v-.7h-4.6v.7zm7.4 0h4.6v-.7h-4.6v.7zm7.4 0h4.6v-.7h-4.6v.7zm7.4 0h4.6v-.7h-4.6v.7zm7.4 0h4.6v-.7H198v.7zm7.4 0h4.6v-.7h-4.6v.7zm7.5 0h4.6v-.7h-4.6v.7zm7.4 0h4.6v-.7h-4.6v.7zm7.4 0h4.6v-.7h-4.6v.7zm7.4 0h4.6v-.7h-4.6v.7zM150.8 39.5h-2.6v2.6h.7v-1.9h1.9zM148.2 43.5h.7v2.3h-.7zM148.2 47.3v2.6h2.6v-.7h-1.9v-1.9zM153.6 49.9h4.6v-.7h-4.6v.7zm7.4 0h4.6v-.7H161v.7zm7.4 0h4.6v-.7h-4.6v.7zm7.4 0h4.6v-.7h-4.6v.7zm7.4 0h4.6v-.7h-4.6v.7zm7.4 0h4.6v-.7h-4.6v.7zm7.4 0h4.6v-.7H198v.7zm7.4 0h4.6v-.7h-4.6v.7zm7.5 0h4.6v-.7h-4.6v.7zm7.4 0h4.6v-.7h-4.6v.7zm7.4 0h4.6v-.7h-4.6v.7zm7.4 0h4.6v-.7h-4.6v.7zM242.5 49.9h2.6v-2.6h-.7v1.9h-1.9zM244.4 43.5h.7v2.3h-.7zM245.1 42.1v-2.6h-2.6v.7h1.9v1.9z"/></g></g></switch></svg>