<svg xmlns="http://www.w3.org/2000/svg" viewBox="0 0 673.4 161" style="enable-background:new 0 0 673.4 161" xml:space="preserve"><style>.st0,.st1{fill:none;stroke:#000;stroke-width:2;stroke-miterlimit:10}.st1{stroke-width:.5}</style><g id="Layer_1"><path class="st0" d="M9.1 119v-11.4l117.3-76 69 28.8v10.4L78.7 145.9z"/><path class="st1" d="m9.1 107.6 69.1 28.3 117.2-75.5M78.7 145.9l-.5-10"/><path class="st0" d="m283.3 137.3 117-75.6v-22L366 26.3 248.6 102v21.6zM321.5 152l-2.1 1.4-2.3-1"/><path style="fill:none;stroke:#000;stroke-width:2;stroke-miterlimit:10;stroke-dasharray:4.9281,2.9569" d="M314.4 151.2 286.9 139"/><path class="st0" d="m285.5 138.4-2.2-1.1 2.1-1.3"/><path style="fill:none;stroke:#000;stroke-width:2;stroke-miterlimit:10;stroke-dasharray:5.1267,3.076" d="m287.9 134.3 109-70.4"/><path class="st0" d="m398.2 63.1 2.1-1.4 2.3.9"/><path style="fill:none;stroke:#000;stroke-width:2;stroke-miterlimit:10;stroke-dasharray:5.0487,3.0292" d="m405.4 63.7 28.7 11.1"/><path class="st0" d="m435.6 75.3 2.3.9-2.1 1.4"/><path style="fill:none;stroke:#000;stroke-width:2;stroke-miterlimit:10;stroke-dasharray:4.907,2.9442" d="m433.3 79.2-110.6 72"/><path class="st1" d="m248.6 102 34.7 14.6 117-76.9"/><path class="st1" d="m248.6 112.4 34.7 14.1 117-76.7M283.3 137.3v-20.7"/><path class="st0" d="M538.5 46.3 597.7 7l35.4 13.4v45l-58.8 40.7-35.8-13.8z"/><path style="fill:none;stroke:#000;stroke-width:2;stroke-miterlimit:10;stroke-dasharray:5,3" d="m538.5 92.3-59.3 35.8 69 28.3 120.3-76.1-35.4-14.9"/><path class="st1" d="m538.5 46.3 35.4 14.4 59.2-40.3"/><path class="st1" d="m538.5 56.5 35.4 14.7 59.2-39"/><path class="st1" d="m538.5 67.6 35.4 14.3 59.2-38.1"/><path class="st1" d="m538.5 78.9 35.4 14.2 59.2-38.8M573.9 60.7v43.6"/></g></svg>