<?xml version="1.0" encoding="utf-8"?>
<!-- Generator: Adobe Illustrator 27.0.0, SVG Export Plug-In . SVG Version: 6.00 Build 0)  -->
<svg version="1.1" id="Layer_1" xmlns="http://www.w3.org/2000/svg" xmlns:xlink="http://www.w3.org/1999/xlink" x="0px" y="0px"
	 viewBox="0 0 300 257.9" style="enable-background:new 0 0 300 257.9;" xml:space="preserve">
<style type="text/css">
	.st0{fill:none;}
	.st1{fill:#303030;}
	.st2{fill-rule:evenodd;clip-rule:evenodd;fill:#BCBEC0;}
	.st3{fill-rule:evenodd;clip-rule:evenodd;fill:#303030;}
</style>
<rect x="1.4" y="40.8" class="st0" width="144.1" height="82.3"/>
<path class="st1" d="M136.4,67.5h-10.3v-2.1h10.3V67.5z M119.9,67.5h-10.3v-2.1h10.3V67.5z M103.3,67.5H93.1v-2.1h10.3V67.5z
	 M86.9,67.5H76.6v-2.1h10.3V67.5z M70.5,67.5H60.1v-2.1h10.3v2.1H70.5z M53.9,67.5H43.6v-2.1h10.3V67.5z M37.4,67.5H27.2v-2.1h10.3
	V67.5z M21,67.5H10.7v-2.1H21V67.5z"/>
<path class="st1" d="M136.4,94.9h-10.3v-2.1h10.3V94.9z M119.9,94.9h-10.3v-2.1h10.3V94.9z M103.3,94.9H93.1v-2.1h10.3V94.9z
	 M86.9,94.9H76.6v-2.1h10.3V94.9z M70.5,94.9H60.1v-2.1h10.3v2.1H70.5z M53.9,94.9H43.6v-2.1h10.3V94.9z M37.4,94.9H27.2v-2.1h10.3
	V94.9z M21,94.9H10.7v-2.1H21V94.9z"/>
<path class="st1" d="M136.4,119.5h-10.3v-2.1h10.3V119.5z M119.9,119.5h-10.3v-2.1h10.3V119.5z M103.3,119.5H93.1v-2.1h10.3V119.5z
	 M86.9,119.5H76.6v-2.1h10.3V119.5z M70.5,119.5H60.1v-2.1h10.3v2.1H70.5z M53.9,119.5H43.6v-2.1h10.3V119.5z M37.4,119.5H27.2v-2.1
	h10.3V119.5z M21,119.5H10.7v-2.1H21V119.5z"/>
<rect x="155.9" y="232.9" class="st2" width="144.1" height="23.9"/>
<rect x="155.9" y="205.5" class="st2" width="144.1" height="23.9"/>
<rect x="1.4" y="232.9" class="st3" width="144.1" height="23.9"/>
<rect x="1.4" y="205.5" class="st3" width="144.1" height="23.9"/>
<rect x="1.4" y="177.9" class="st3" width="144.1" height="23.9"/>
<rect x="1.4" y="150.5" class="st3" width="144.1" height="23.9"/>
<rect x="1.4" y="123.1" class="st3" width="144.1" height="23.9"/>
<rect x="155.9" y="177.9" class="st2" width="144.1" height="23.9"/>
<rect x="155.9" y="150.5" class="st2" width="144.1" height="23.9"/>
<rect x="155.9" y="123.1" class="st2" width="144.1" height="23.9"/>
<rect x="155.7" y="95.7" class="st3" width="144.3" height="23.9"/>
<rect x="155.7" y="68.2" class="st3" width="144.3" height="23.9"/>
<rect x="155.7" y="40.8" class="st3" width="144.3" height="23.9"/>
<g>
	<rect x="103" y="41" class="st1" width="11.4" height="2.1"/>
	<rect x="67.7" y="41" class="st1" width="11.4" height="2.1"/>
	<rect x="85.4" y="41" class="st1" width="11.4" height="2.1"/>
	<polygon class="st1" points="143.2,47.8 145.2,47.8 145.2,41 138.5,41 138.5,43 143.2,43 	"/>
	<rect x="143.2" y="110.7" class="st1" width="2.1" height="8.9"/>
	<rect x="143.2" y="73.2" class="st1" width="2.1" height="12.1"/>
	<rect x="143.2" y="92" class="st1" width="2.1" height="12.1"/>
	<rect x="143.2" y="54.4" class="st1" width="2.1" height="12.1"/>
	<rect x="120.7" y="41" class="st1" width="11.4" height="2.1"/>
	<rect x="1.5" y="92" class="st1" width="2.1" height="12.1"/>
	<rect x="1.5" y="54.4" class="st1" width="2.1" height="12.1"/>
	<rect x="1.5" y="73.2" class="st1" width="2.1" height="12.1"/>
	<rect x="1.5" y="110.7" class="st1" width="2.1" height="8.9"/>
	<polygon class="st1" points="3.5,43 8.3,43 8.3,41 1.5,41 1.5,47.8 3.5,47.8 	"/>
	<rect x="32.2" y="41" class="st1" width="11.4" height="2.1"/>
	<rect x="49.9" y="41" class="st1" width="11.4" height="2.1"/>
	<rect x="14.6" y="41" class="st1" width="11.4" height="2.1"/>
</g>
<path class="st1" d="M236.7,16.6l-7,7V1.9H72.8V23h3.5V5.4H226v18.3l-7-7l-2.4,2.4l11.2,11.2L239,19.2L236.7,16.6z M227.8,25.4
	L227.8,25.4L227.8,25.4L227.8,25.4z"/>
</svg>
