<svg version="1.1" id="Layer_1" xmlns="http://www.w3.org/2000/svg" x="0" y="0" viewBox="0 0 624.8 284.8" style="enable-background:new 0 0 624.8 284.8" xml:space="preserve"><style>.st0{fill:none}.st1{fill:#303030}.st2{font-family:&apos;URWDIN-Regular&apos;}.st3{font-size:9.5px}.st4{font-size:8.5px}.st5{fill:none;stroke:#2d2d2d;stroke-width:.5;stroke-miterlimit:10}</style><switch><g><path class="st0" d="M216.3 3.1h192v15.1h-192z"/><text transform="translate(283.546 9.845)" class="st1 st2 st3">RESIDENTIAL</text><path class="st0" d="M58.7 274.4h192v15.1h-192z"/><text transform="translate(125.097 281.14)" class="st1 st2 st3">COMMERCIAL</text><path class="st0" d="M373.9 274.4h192v15.1h-192z"/><text transform="translate(431.122 281.14)" class="st1 st2 st3">MANUFACTURING</text><path class="st0" d="M8.2 110h25.2v10.3H8.2z"/><text transform="translate(15.789 116.103)" class="st1 st2 st4">R1</text><path class="st0" d="M68.3 110h25.2v10.3H68.3z"/><text transform="translate(75.879 116.103)" class="st1 st2 st4">R2</text><path class="st0" d="M135.4 110h25.2v10.3h-25.2z"/><text transform="translate(142.922 116.103)" class="st1 st2 st4">R3</text><path class="st0" d="M198.1 110h25.2v10.3h-25.2z"/><text transform="translate(205.626 116.103)" class="st1 st2 st4">R4</text><path class="st0" d="M262.5 110h25.2v10.3h-25.2z"/><text transform="translate(270.094 116.103)" class="st1 st2 st4">R5</text><path class="st0" d="M328.7 110h25.2v10.3h-25.2z"/><text transform="translate(336.26 116.103)" class="st1 st2 st4">R6</text><path class="st0" d="M399.1 110h25.2v10.3h-25.2z"/><text transform="translate(406.686 116.103)" class="st1 st2 st4">R7</text><path class="st0" d="M466 110h25.2v10.3H466z"/><text transform="translate(473.573 116.103)" class="st1 st2 st4">R8</text><path class="st0" d="M525.3 110h25.2v10.3h-25.2z"/><text transform="translate(532.835 116.103)" class="st1 st2 st4">R9</text><path class="st0" d="M585.1 110h25.2v10.3h-25.2z"/><text transform="translate(590.374 116.103)" class="st1 st2 st4">R10</text><path class="st5" d="M297.9 98.3v-43h-22.8v43h-.9v-43h-22.8v43h-1.7v1.9h49.6v-1.9h-1.4zm-42.1-39.6h5.5v5.6h-5.5v-5.6zm0 7.9h5.5v5.6h-5.5v-5.6zm0 7.9h5.5V80h-5.5v-5.5zm0 7.8h5.5v5.6h-5.5v-5.6zm9.7 16.9h-5.4v-8.8h5.4v8.8zm4.4-11.3h-5.5v-5.6h5.5v5.6zm0-7.9h-5.5v-5.6h5.5V80zm0-7.8h-5.5v-5.6h5.5v5.6zm0-7.9h-5.5v-5.6h5.5v5.6zm9.6-5.6h5.5v5.6h-5.5v-5.6zm0 7.9h5.5v5.6h-5.5v-5.6zm0 7.9h5.5V80h-5.5v-5.5zm0 7.8h5.5v5.6h-5.5v-5.6zm9.8 16.9h-5.4v-8.8h5.4v8.8zm4.3-11.3H288v-5.6h5.5v5.6zm0-7.9H288v-5.6h5.5V80zm0-7.8H288v-5.6h5.5v5.6zm0-7.9H288v-5.6h5.5v5.6zM38 98.3V86.5H25.1v-3.8H27L14.5 72.3l-6 5v-2.7H6.2v4.6L2 82.7h1.9v15.5H2.1v1.9h37.6v-1.9H38zm-27.4-8.4H6.2v-4.5h4.5v4.5zm6.3 9.3h-4.7v-7.7h4.7v7.7zm6-9.3h-4.5v-4.5h4.5v4.5zm7.3-1.1h2.3V91h-2.3v-2.2zm-3.5 0H29V91h-2.3v-2.2zm8.7 10.4h-7.7v-6.3h7.7v6.3zM36 91h-2.3v-2.3H36V91zM104.9 85.7h2.8l-13.1-8.4-13.1 8.4h2.8v12.6h-6.2V85.7h2.8l-13.1-8.4-13.1 8.4h2.8v12.6h-1.7v1.9h50.8v-1.9h-1.8V85.7zm-39.8 8.4h-3.9v-3.9h3.9v3.9zm9.8 5.1h-4.8v-9h4.8v9zm17-5.1H88v-3.9h3.9v3.9zm9.7 5.1h-4.8v-9h4.8v9zM170.3 98.3V73h-10.8v25.3h-.8V73H148v25.3h-.8V73h-10.8v25.3h-.8V73h-10.8v25.3h-1.4v1.9h48.5v-1.9h-1.6zm-43.9-22h2.9v4.6h-2.9v-4.6zm0 7.6h2.9v4.6h-2.9v-4.6zm5.8 15.3h-4v-7h4v7zm1.9-10.7h-2.9v-4.6h2.9v4.6zm0-7.6h-2.9v-4.6h2.9v4.6zm3.8-4.6h2.9v4.6h-2.9v-4.6zm0 7.6h2.9v4.6h-2.9v-4.6zm5.9 15.3h-4v-7h4v7zm1.8-10.7h-2.9v-4.6h2.9v4.6zm0-7.6h-2.9v-4.6h2.9v4.6zm3.9-4.6h2.9v4.6h-2.9v-4.6zm0 7.6h2.9v4.6h-2.9v-4.6zm5.8 15.3h-4v-7h4v7zm1.9-10.7h-2.9v-4.6h2.9v4.6zm0-7.6h-2.9v-4.6h2.9v4.6zm3.9-4.6h2.9v4.6h-2.9v-4.6zm0 7.6h2.9v4.6h-2.9v-4.6zm5.8 15.3h-4v-7h4v7zm1.8-10.7h-2.9v-4.6h2.9v4.6zm0-7.6h-2.9v-4.6h2.9v4.6zM234 98.3V64.8h-14.8v33.5H218V64.8h-14.8v33.5h-1.1V64.8h-14.8v33.5h-1.2v1.9H235.2v-1.9H234zm-44.1-30.5h3.8v5.6h-3.8v-5.6zm0 7.7h3.8V81h-3.8v-5.5zm0 7.6h3.8v5.6h-3.8v-5.6zm7.1 16h-4.5v-7.8h4.5v7.8zm2.6-10.4h-3.8v-5.6h3.8v5.6zm0-7.7h-3.8v-5.6h3.8V81zm0-7.6h-3.8v-5.6h3.8v5.6zm6.2-5.6h3.8v5.6h-3.8v-5.6zm0 7.7h3.8V81h-3.8v-5.5zm0 7.6h3.8v5.6h-3.8v-5.6zm7.1 16h-4.5v-7.8h4.5v7.8zm2.6-10.4h-3.8v-5.6h3.8v5.6zm0-7.7h-3.8v-5.6h3.8V81zm0-7.6h-3.8v-5.6h3.8v5.6zm6.3-5.5h3.8v5.6h-3.8v-5.6zm0 7.7h3.8v5.6h-3.8v-5.6zm0 7.6h3.8v5.6h-3.8v-5.6zm7.1 16h-4.5v-7.8h4.5v7.8zm2.6-10.4h-3.8v-5.6h3.8v5.6zm0-7.7h-3.8v-5.6h3.8v5.6zm0-7.6h-3.8v-5.6h3.8v5.6zM433.9 98.3V22.9h-46.2v75.3h-1.5v1.9h49.2v-1.9h-1.5zm-12.3-68.8h1.2v4.9h-1.2v-4.9zm0 8.1h1.2v4.9h-1.2v-4.9zm0 8.1h1.2v4.9h-1.2v-4.9zm0 8h1.2v4.9h-1.2v-4.9zm0 8.1h1.2v4.9h-1.2v-4.9zm0 8.1h1.2v4.9h-1.2v-4.9zm-11.3-40.4h1.2v4.9h-1.2v-4.9zm0 8.1h1.2v4.9h-1.2v-4.9zm0 8.1h1.2v4.9h-1.2v-4.9zm0 8h1.2v4.9h-1.2v-4.9zm0 8.1h1.2v4.9h-1.2v-4.9zm0 8.1h1.2v4.9h-1.2v-4.9zm0 8.1h1.2v4.9h-1.2V78zm-17-48.5h1.2v4.9h-1.2v-4.9zm0 8.1h1.2v4.9h-1.2v-4.9zm0 8.1h1.2v4.9h-1.2v-4.9zm0 8h1.2v4.9h-1.2v-4.9zm0 8.1h1.2v4.9h-1.2v-4.9zm0 8.1h1.2v4.9h-1.2v-4.9zm0 8.1h1.2v4.9h-1.2V78zm6.5 21.2h-6.1V88.4h6.1v10.8zm.3-16.3h-1.2V78h1.2v4.9zm0-8.2h-1.2v-4.9h1.2v4.9zm0-8h-1.2v-4.9h1.2v4.9zm0-8.1h-1.2v-4.9h1.2v4.9zm0-8.1h-1.2v-4.9h1.2v4.9zm0-8h-1.2v-4.9h1.2v4.9zm0-8.1h-1.2v-4.9h1.2v4.9zm5.7 48.5h-1.2V78h1.2v4.9zm0-8.2h-1.2v-4.9h1.2v4.9zm0-8h-1.2v-4.9h1.2v4.9zm0-8.1h-1.2v-4.9h1.2v4.9zm0-8.1h-1.2v-4.9h1.2v4.9zm0-8h-1.2v-4.9h1.2v4.9zm0-8.1h-1.2v-4.9h1.2v4.9zm8.1 64.8h-6.1V88.4h6.1v10.8zm3.2-16.3h-1.2V78h1.2v4.9zm0-8.2h-1.2v-4.9h1.2v4.9zm0-8h-1.2v-4.9h1.2v4.9zm0-8.1h-1.2v-4.9h1.2v4.9zm0-8.1h-1.2v-4.9h1.2v4.9zm0-8h-1.2v-4.9h1.2v4.9zm0-8.1h-1.2v-4.9h1.2v4.9zm4.5 43.6h1.2v4.9h-1.2V78zm6.5 21.2H422V88.4h6.1v10.8zm.3-16.3h-1.2V78h1.2v4.9zm0-8.2h-1.2v-4.9h1.2v4.9zm0-8h-1.2v-4.9h1.2v4.9zm0-8.1h-1.2v-4.9h1.2v4.9zm0-8.1h-1.2v-4.9h1.2v4.9zm0-8h-1.2v-4.9h1.2v4.9zm0-8.1h-1.2v-4.9h1.2v4.9zM500.3 98.3V32h-5.6v-8.7h-35V32h-5.6v66.3h-1.5v1.9h49.2v-1.9h-1.5zM488 37.6h1.2v4.9H488v-4.9zm0 8.1h1.2v4.9H488v-4.9zm0 8h1.2v4.9H488v-4.9zm0 8.1h1.2v4.9H488v-4.9zm0 8.1h1.2v4.9H488v-4.9zm-11.4-32.3h1.2v4.9h-1.2v-4.9zm0 8.1h1.2v4.9h-1.2v-4.9zm0 8h1.2v4.9h-1.2v-4.9zm0 8.1h1.2v4.9h-1.2v-4.9zm0 8.1h1.2v4.9h-1.2v-4.9zm0 8.1h1.2v4.9h-1.2V78zm-16.9-40.4h1.2v4.9h-1.2v-4.9zm0 8.1h1.2v4.9h-1.2v-4.9zm0 8h1.2v4.9h-1.2v-4.9zm0 8.1h1.2v4.9h-1.2v-4.9zm0 8.1h1.2v4.9h-1.2v-4.9zm0 8.1h1.2v4.9h-1.2V78zm6.5 21.2H460V88.4h6.1v10.8zm.3-16.3h-1.2V78h1.2v4.9zm0-8.2h-1.2v-4.9h1.2v4.9zm0-8h-1.2v-4.9h1.2v4.9zm0-8.1h-1.2v-4.9h1.2v4.9zm0-8.1h-1.2v-4.9h1.2v4.9zm0-8h-1.2v-4.9h1.2v4.9zm5.7 40.4H471V78h1.2v4.9zm0-8.2H471v-4.9h1.2v4.9zm0-8H471v-4.9h1.2v4.9zm0-8.1H471v-4.9h1.2v4.9zm0-8.1H471v-4.9h1.2v4.9zm0-8H471v-4.9h1.2v4.9zm8.1 56.7h-6.1V88.4h6.1v10.8zm3.2-16.3h-1.2V78h1.2v4.9zm0-8.2h-1.2v-4.9h1.2v4.9zm0-8h-1.2v-4.9h1.2v4.9zm0-8.1h-1.2v-4.9h1.2v4.9zm0-8.1h-1.2v-4.9h1.2v4.9zm0-8h-1.2v-4.9h1.2v4.9zM488 78h1.2v4.9H488V78zm6.7 21.2h-6.1V88.4h6.1v10.8zm.1-16.3h-1.2V78h1.2v4.9zm0-8.2h-1.2v-4.9h1.2v4.9zm0-8h-1.2v-4.9h1.2v4.9zm0-8.1h-1.2v-4.9h1.2v4.9zm0-8.1h-1.2v-4.9h1.2v4.9zm0-8h-1.2v-4.9h1.2v4.9zM556.2 98.3V9h-35.3v89.3h-2.4v1.9h40.1v-1.9h-2.4zm-12.7-83.6h1.2v5h-1.2v-5zm0 9.3h1.2v5h-1.2v-5zm0 9.4h1.2v5h-1.2v-5zm0 9.4h1.2v5h-1.2v-5zm0 9.4h1.2v5h-1.2v-5zm0 9.4h1.2v5h-1.2v-5zm0 9.4h1.2v5h-1.2v-5zm0 9.4h1.2v5h-1.2v-5zm-5.6-65.7h1.2v5h-1.2v-5zm0 9.3h1.2v5h-1.2v-5zm0 9.4h1.2v5h-1.2v-5zm0 9.4h1.2v5h-1.2v-5zm0 9.4h1.2v5h-1.2v-5zm0 9.4h1.2v5h-1.2v-5zm0 9.4h1.2v5h-1.2v-5zm0 9.4h1.2v5h-1.2v-5zm-5.7-65.7h1.2v5h-1.2v-5zm0 9.3h1.2v5h-1.2v-5zm0 9.4h1.2v5h-1.2v-5zm0 9.4h1.2v5h-1.2v-5zm0 9.4h1.2v5h-1.2v-5zm0 9.4h1.2v5h-1.2v-5zm0 9.4h1.2v5h-1.2v-5zm0 9.4h1.2v5h-1.2v-5zm-4.4 5h-1.2v-5h1.2v5zm0-9.4h-1.2v-5h1.2v5zm0-9.4h-1.2v-5h1.2v5zm0-9.3h-1.2v-5h1.2v5zm0-9.4h-1.2v-5h1.2v5zm0-9.4h-1.2v-5h1.2v5zm0-9.4h-1.2v-5h1.2v5zm0-9.4h-1.2v-5h1.2v5zm18.3 79.4h-15.7V88.8h15.7v10.3zm4.3-13.7h-1.2v-5h1.2v5zm0-9.4h-1.2v-5h1.2v5zm0-9.4h-1.2v-5h1.2v5zm0-9.3h-1.2v-5h1.2v5zm0-9.4h-1.2v-5h1.2v5zm0-9.4h-1.2v-5h1.2v5zm0-9.4h-1.2v-5h1.2v5zm0-9.4h-1.2v-5h1.2v5zM621.3 98.3V9h-45.5v89.2h-2.2v1.9H622.5v-1.9h-1.2zm-11.9-83.9h1.2v5h-1.2v-5zm0 9.4h1.2v5h-1.2v-5zm0 9.4h1.2v5h-1.2v-5zm0 9.4h1.2v5h-1.2v-5zm0 9.4h1.2v5h-1.2v-5zm0 9.4h1.2v5h-1.2v-5zm0 9.4h1.2v5h-1.2v-5zm-6-56.4h1.2v5h-1.2v-5zm0 9.4h1.2v5h-1.2v-5zm0 9.4h1.2v5h-1.2v-5zm0 9.4h1.2v5h-1.2v-5zm0 9.4h1.2v5h-1.2v-5zm0 9.4h1.2v5h-1.2v-5zm0 9.4h1.2v5h-1.2v-5zm0 9.3h1.2v5h-1.2v-5zm-5.7-65.7h1.2v5h-1.2v-5zm0 9.4h1.2v5h-1.2v-5zm0 9.4h1.2v5h-1.2v-5zm0 9.4h1.2v5h-1.2v-5zm0 9.4h1.2v5h-1.2v-5zm0 9.4h1.2v5h-1.2v-5zm0 9.4h1.2v5h-1.2v-5zm0 9.3h1.2v5h-1.2v-5zm-5.6-65.7h1.2v5h-1.2v-5zm0 9.4h1.2v5h-1.2v-5zm0 9.4h1.2v5h-1.2v-5zm0 9.4h1.2v5h-1.2v-5zm0 9.4h1.2v5h-1.2v-5zm0 9.4h1.2v5h-1.2v-5zm0 9.4h1.2v5h-1.2v-5zm0 9.3h1.2v5h-1.2v-5zm-11.4-65.7h1.2v5h-1.2v-5zm0 9.4h1.2v5h-1.2v-5zm0 9.4h1.2v5h-1.2v-5zm0 9.4h1.2v5h-1.2v-5zm0 9.4h1.2v5h-1.2v-5zm0 9.4h1.2v5h-1.2v-5zm0 9.4h1.2v5h-1.2v-5zm0 9.3h1.2v5h-1.2v-5zm5.8 19h-5V88.8h5v10.3zm1.1-13.9h-1.2v-5h1.2v5zm0-9.4h-1.2v-5h1.2v5zm0-9.4h-1.2v-5h1.2v5zm0-9.4h-1.2v-5h1.2v5zm0-9.4h-1.2v-5h1.2v5zm0-9.3h-1.2v-5h1.2v5zm0-9.4h-1.2v-5h1.2v5zm0-9.4h-1.2v-5h1.2v5zm18.6 79.6h-15.4V88.8h15.4v10.3zm3.2-19h1.2v5h-1.2v-5zm5.6 19h-5V88.8h5v10.3zm1.3-13.9h-1.2v-5h1.2v5zm0-9.4h-1.2v-5h1.2v5zm0-9.4h-1.2v-5h1.2v5zm0-9.4h-1.2v-5h1.2v5zm0-9.4h-1.2v-5h1.2v5zm0-9.3h-1.2v-5h1.2v5zm0-9.4h-1.2v-5h1.2v5zm0-9.4h-1.2v-5h1.2v5z"/><path class="st0" d="M81 252.1h25.2v10.3H81z"/><text transform="translate(88.6 258.135)" class="st1 st2 st4">C2</text><path class="st5" d="M117.1 238.2v-88.8h-47v88.8h-2.3v1.9H119.3v-1.9h-2.2zm-24.2.4H81.4v-19.3h11.5v19.3zm13.3 0H94.7v-19.3h11.5v19.3zm3.9-32.5H78.2v-9.9h31.9v9.9zm0-25.1H78.2v-21.1h31.9V181z"/><path class="st0" d="M18 252.1h25.2v10.3H18z"/><text transform="translate(25.615 258.135)" class="st1 st2 st4">C1</text><path class="st5" d="M54.2 199.9v-22.8H7.3v22.8h46.9zM42.9 181h5.7v5.7h-5.7V181zm0 9.4h5.7v5.7h-5.7v-5.7zm-15-9.4h5.7v5.7h-5.7V181zm0 9.4h5.7v5.7h-5.7v-5.7zM12.8 181h5.7v5.7h-5.7V181zm0 9.4h5.7v5.7h-5.7v-5.7zM7 201.1l-3.7 7.5h54.6l-3.3-7.5zM54.2 209.9H7.3v28.3H5.1v1.9h51.6v-1.9h-2.5v-28.3zm-33.1 12h-8.3v-8.8h8.3v8.8zm15.8 17.2H24.5v-17.5h12.4v17.5zm11.7-17.2h-8.3v-8.8h8.3v8.8z"/><path class="st0" d="M204.7 252.1h25.2v10.3h-25.2z"/><text transform="translate(212.34 258.135)" class="st1 st2 st4">C4</text><path class="st5" d="M240.3 238.2v-75.8h-46.9v75.8H191v1.9H242.5v-1.9h-2.2zm-40.5-68.3h9.8v9.8h-9.8v-9.8zm0 16.5h9.8v9.8h-9.8v-9.8zm22 52.7h-10.1V220h10.1v19.1zm12.9-25.8h-34.9V202h34.9v11.3zm0-17.1h-9.8v-9.8h9.8v9.8zm0-16.5h-9.8v-9.8h9.8v9.8zM177.3 238.2v-25.6h-16.9v-11.8h4.2v8.5h8.9v-29.1h-8.9v7.7h-4.2v-8.7h-28.2v58.9h-2.5v1.9H179.8v-1.9h-2.5zm-6.3-36.9h-1.4v3.7h-1v-3.7h-1.4v-.9h3.8v.9zm-3.6-17.7h3.5v.9h-2.5v.9h2.2v.9h-2.2v1h2.5v.9h-3.5v-4.6zm1.2 8.2h.9l2 4.6h-1.1l-.4-1h-1.9l-.4 1h-1l1.9-4.6zm-8.2-2.1h4.2v9.4h-4.2v-9.4zm-22.8-5.1h5.7v5.7h-5.7v-5.7zm0 11.6h5.7v5.7h-5.7v-5.7zm0 11.5h5.7v5.7h-5.7v-5.7zm0 11.5h5.7v5.7h-5.7v-5.7zm17.3 19.4h-16.7v-9.7h16.7v9.7zm0-13.7h-5.7v-5.7h5.7v5.7zm0-11.5h-5.7v-5.7h5.7v5.7zm0-11.5h-5.7v-5.7h5.7v5.7zm0-11.6h-5.7v-5.7h5.7v5.7zm16.6 41.7h-5.7v-5.7h5.7v5.7zm0-9.1h-5.7v-5.7h5.7v5.7z"/><path class="st5" d="m169 193-.6 1.5h1.3z"/><path class="st0" d="M265.1 252.1h25.2v10.3h-25.2z"/><text transform="translate(272.748 258.135)" class="st1 st2 st4">C5</text><path class="st0" d="M531.4 252.1h25.2v10.3h-25.2z"/><text transform="translate(538.256 258.135)" class="st1 st2 st4">M1</text><path class="st5" d="M557.7 238.9v-15.1h-2.4v-4.3h-24.5v4.3h-2.4v15.1H527v1.2h32v-1.2h-1.3zm-24.8-1.5h-.8v-2.9h.8v2.9zm0-4.8h-.8v-2.9h.8v2.9zm0-4.7h-.8V225h.8v2.9zm3.6 9.5h-.8v-2.9h.8v2.9zm0-4.8h-.8v-2.9h.8v2.9zm0-4.7h-.8V225h.8v2.9zm3.6 9.5h-.8v-2.9h.8v2.9zm0-4.8h-.8v-2.9h.8v2.9zm0-4.7h-.8V225h.8v2.9zm3.6 9.5h-.8v-2.9h.8v2.9zm0-4.8h-.8v-2.9h.8v2.9zm0-4.7h-.8V225h.8v2.9zm3.6 9.5h-.8v-2.9h.8v2.9zm0-4.8h-.8v-2.9h.8v2.9zm0-4.7h-.8V225h.8v2.9zm3.6 9.5h-.8v-2.9h.8v2.9zm0-4.8h-.8v-2.9h.8v2.9zm0-4.7h-.8V225h.8v2.9zm3.6 9.5h-.8v-2.9h.8v2.9zm0-4.8h-.8v-2.9h.8v2.9zm0-4.7h-.8V225h.8v2.9z"/><path class="st0" d="M580.8 252.1h30.7v10.3h-30.7z"/><text transform="translate(582.44 258.135)"><tspan x="0" y="0" class="st1 st2 st4">M</tspan><tspan x="6.9" y="0" class="st1 st2 st4">2</tspan><tspan x="10.7" y="0" class="st1 st2 st4"> </tspan><tspan x="11.9" y="0" class="st1 st2 st4">/</tspan><tspan x="15.2" y="0" class="st1 st2 st4" style="letter-spacing:-1"> </tspan><tspan x="15.9" y="0" class="st1 st2 st4">M3</tspan></text><path class="st5" d="M619.6 237.8v-47.5h-2.4v5.2h-16.8v19.3h-3v-3.7h-22.7v3.7h-3v23h-2.4v2.2h52.4v-2.2h-2.1zm-43.2-1.8h-1.1v-4.2h1.1v4.2zm0-6.9h-1.1v-4.2h1.1v4.2zm0-7h-1.1v-4.2h1.1v4.2zm5.3 13.9h-1.1v-4.2h1.1v4.2zm0-6.9h-1.1v-4.2h1.1v4.2zm0-7h-1.1v-4.2h1.1v4.2zm5.4 13.9H586v-4.2h1.1v4.2zm0-6.9H586v-4.2h1.1v4.2zm0-7H586v-4.2h1.1v4.2zm5.7 13.9h-1.1v-4.2h1.1v4.2zm0-6.9h-1.1v-4.2h1.1v4.2zm0-7h-1.1v-4.2h1.1v4.2zm5.4 13.9h-1.1v-4.2h1.1v4.2zm0-6.9h-1.1v-4.2h1.1v4.2zm0-7h-1.1v-4.2h1.1v4.2zM605 236h-1.2v-4.8h1.2v4.8zm0-8h-1.2v-4.8h1.2v4.8zm0-8h-1.2v-4.8h1.2v4.8zm0-8h-1.2v-4.8h1.2v4.8zm0-8h-1.2v-4.8h1.2v4.8zm5.6 32h-1.2v-4.8h1.2v4.8zm0-8h-1.2v-4.8h1.2v4.8zm0-8h-1.2v-4.8h1.2v4.8zm0-8h-1.2v-4.8h1.2v4.8zm0-8h-1.2v-4.8h1.2v4.8zm5.5 32h-1.2v-4.8h1.2v4.8zm0-8h-1.2v-4.8h1.2v4.8zm0-8h-1.2v-4.8h1.2v4.8zm0-8h-1.2v-4.8h1.2v4.8zm0-8h-1.2v-4.8h1.2v4.8z"/><path class="st0" d="M478.1 252.1h25.2v10.3h-25.2z"/><text transform="translate(485.712 258.135)" class="st1 st2 st4">C8</text><path class="st0" d="M403 252.1h25.2v10.3H403z"/><text transform="translate(410.652 258.135)" class="st1 st2 st4">C7</text><path class="st5" d="M455.5 239.6c.1-.2.2-.4.2-.6 0-.3-.1-.5-.2-.6v-.4h-4.1v-24.2c-.2-3.9-1.8-7.6-4.5-10.3-.5-.5-1.1-1-1.6-1.3-.1-.1-.2-.2-.3-.2-5.5-4-12.9-3.9-18.4.2l-.1.1c-.5.4-1 .8-1.4 1.2l-4.3 4.3c-3.3 3.4-5.4 5.5-5.7 5.7l-.2.2c-3.2 3.2-6.6 6.7-9.7 9.8-5.1 5.1-13.5 5.5-18.7.7-2.7-2.5-4.3-5.9-4.3-9.5-.1-3.7 1.3-7.1 3.9-9.7 0 0 1.4-1.6 4.3-2.9.8-.4 2.3-.8 3.1-.9 1.4-.2 2.8-.1 4.1.1 2.3.4 4.4 1.4 6.2 2.8.9.8 1.9 1.7 2.7 2.5.5.5 1 .9 1.5 1.4l.4.4 1.6-1.2c-1.3-1.3-4.1-4-5.3-5-1.7-1.3-3.7-2.2-6-2.8-4.3-.9-8.8 0-12.4 2.6-.1 0-.3.2-1 .9-.3.2-.5.5-.7.7-2.9 2.9-4.6 6.7-4.6 10.9V238h-4.6v1.9h.7c.2.1.4.2.6.2h78c.3 0 .5-.1.6-.2h.2v-.3zm-9.9-34.4c2.2 2.3 3.5 5.3 3.6 8.5v24.2h-3.6v-32.7zm-5.8-3.6c1.3.4 2.6 1 3.6 1.7v34.6h-3.6v-36.3zm-5.8-.4c1.2-.1 2.4-.1 3.6 0V238H434v-36.8zm-5.8 2.3c1.1-.8 2.4-1.4 3.6-1.8v36.2h-3.6v-34.4zm-5.8 5.4c1.2-1.1 2.4-2.3 3.6-3.6v32.6h-3.6v-29zm-5.7 5.9c.3-.4 1-1.1 1.9-2l1.7-1.7v26.7h-3.6v-23zm-5.8 5.8 1.6-1.6 2.1-2.1v20.9H411v-17.2zm-5.8 5.8c.2-.2.4-.3.5-.5.2-.2.4-.3.6-.5.8-.9 1.7-1.8 2.5-2.6v15.1h-3.6v-11.5zm-5.7 2.9c1.2-.3 2.4-.8 3.6-1.5v10.1h-3.6v-8.6zm-5.9.4c.6.1 1.2.1 1.8.1.6 0 1.3-.1 1.9-.1v8.2h-3.6v-8.2zm-5.7-1.8c1.2.7 2.3 1.1 3.6 1.4v8.5h-3.6v-9.9zm-5.7-5.6c.7 1.1 1.5 2.1 2.4 3.1.4.4.8.8 1.2 1.1V238h-3.6v-15.7z"/><path class="st5" d="m410.8 212.3.9.9-.5.5-.8-.8-.6-.6c-.3-.3-.9-.2-1.1.2-.4 1-1.1 2.1-2.1 3.1s-2.1 1.7-3.2 2.1c-.5.2-.6.8-.2 1.1l.6.6 1.7 1.8c.3.3.7.3.9 0l5.7-5.7c.3-.3.3-.7 0-.9l-.3-.3.5-.5.2.2c.3.3.8.3 1.1 0l5.5-5.5c.3-.3.3-.8 0-1.1l-.1-.1.7-.7.2.2c.3.3.7.3 1 0l5.2-5.3c.1-.1.2-.2.2-.4.5-1.4-1.9-1.4-3.3-1.3-.6 0-1.2.4-1.5.9-.2.3-.5.6-.7.8-1 1-1.9 1.2-3 1.9-.4.2-.4.8-.1 1.1l.5.5.9.9-.7.7-.9-.9-.5-.5c-.4-.4-1.1-.3-1.3.3-.4 1-1.1 2-2.1 3s-2 1.7-3 2.1c-.5.2-.7.9-.3 1.3l.5.4z"/><path class="st0" d="M327.8 252.1H353v10.3h-25.2z"/><text transform="translate(335.43 258.135)" class="st1 st2 st4">C6</text><g><path class="st5" d="M363.7 238.2v-77.1h-4.3v-4.6h-4.2v-3.9h-30v3.9H321v4.6h-4.3v77.1h-2.3v1.9H365.9v-1.9h-2.2zm-42.1-68.4h4.9v4.9h-4.9v-4.9zm0 7.7h4.9v4.9h-4.9v-4.9zm0 7.5h4.9v4.9h-4.9V185zm0 7.7h4.9v4.9h-4.9v-4.9zm0 7.6h4.9v4.9h-4.9v-4.9zm0 7.6h4.9v4.9h-4.9v-4.9zm0 7.7h4.9v4.9h-4.9v-4.9zm7.5 23.4H323v-11.7h6.1V239zm5.5-18.5h-4.9v-4.9h4.9v4.9zm0-7.7h-4.9v-4.9h4.9v4.9zm0-7.6h-4.9v-4.9h4.9v4.9zm0-7.7h-4.9v-4.9h4.9v4.9zm0-7.6h-4.9V185h4.9v4.9zm0-7.5h-4.9v-4.9h4.9v4.9zm0-7.7h-4.9v-4.9h4.9v4.9zm8.7 64.3h-6.1v-11.7h6.1V239zm-.6-61.5v4.9h-4.9v-4.9h4.9zm-4.9-2.8v-4.9h4.9v4.9h-4.9zm4.9 10.3v4.9h-4.9V185h4.9zm0 7.7v4.9h-4.9v-4.9h4.9zm0 7.6v4.9h-4.9v-4.9h4.9zm0 7.6v4.9h-4.9v-4.9h4.9zm0 7.7v4.9h-4.9v-4.9h4.9zm-2.5-48.6c-2.8 0-5.1-2.3-5.1-5.1s2.3-5.1 5.1-5.1 5.1 2.3 5.1 5.1-2.3 5.1-5.1 5.1zm10.6 53.5h-4.9v-4.9h4.9v4.9zm0-7.7h-4.9v-4.9h4.9v4.9zm0-7.6h-4.9v-4.9h4.9v4.9zm0-7.7h-4.9v-4.9h4.9v4.9zm0-7.6h-4.9V185h4.9v4.9zm0-7.5h-4.9v-4.9h4.9v4.9zm0-7.7h-4.9v-4.9h4.9v4.9zm6.7 64.3h-6.1v-11.7h6.1V239zm1.4-18.5H354v-4.9h4.9v4.9zm0-7.7H354v-4.9h4.9v4.9zm0-7.6H354v-4.9h4.9v4.9zm0-7.7H354v-4.9h4.9v4.9zm0-7.6H354V185h4.9v4.9zm0-7.5H354v-4.9h4.9v4.9zm0-7.7H354v-4.9h4.9v4.9z"/><path class="st5" d="m342.8 160.4-2.1 1.5c-.1-.1-.3-.1-.4-.1-.1 0-.2 0-.3.1l-2.6-2.1-.4.5 2.6 2.1v.1c0 .4.3.8.8.8.4 0 .8-.3.8-.8l2.2-1.5-.6-.6z"/></g><path class="st5" d="M367.4 98.3V44.5h-24.2v4.9h2.7v48.9h-.9v-48h-13.6v48h-1.2v-48h-14v-.4 48.4h-1.4v1.9h53.9v-1.9h-1.3zm-38.9-45.8V56h-4.8v-3.5h4.8zm-5.7 4.8H318v-.9h4.8v.9zm0 2v3.5H318v-3.5h4.8zm0 3.9v.9H318v-.9h4.8zm0 2.9v3.5H318v-3.5h4.8zm0 4v.8H318v-.8h4.8zm0 2.8v3.4H318v-3.4h4.8zm0 3.9v.9H318v-.9h4.8zm0 2.9V83H318v-3.3h4.8zm.9 0h4.8V83h-4.8v-3.3zm0-2v-.9h4.8v.9h-4.8zm0-1.3V73h4.8v3.4h-4.8zm0-5.5v-.8h4.8v.8h-4.8zm0-1.2v-3.5h4.8v3.5h-4.8zm0-5.6v-.9h4.8v.9h-4.8zm0-1.3v-3.5h4.8v3.5h-4.8zm0-5.5v-.9h4.8v.9h-4.8zm-.9-4.8V56H318v-3.5h4.8zm-4.8 31h4.8v1H318v-1zm8 15.7h-5.4v-9.3h5.4v9.3zm-2.3-14.7v-1h4.8v1h-4.8zm20-32V56h-4.8v-3.5h4.8zm-5.7 4.8h-4.8v-.9h4.8v.9zm0 2v3.5h-4.8v-3.5h4.8zm0 3.9v.9h-4.8v-.9h4.8zm0 2.9v3.5h-4.8v-3.5h4.8zm0 4v.8h-4.8v-.8h4.8zm0 2.8v3.4h-4.8v-3.4h4.8zm0 3.9v.9h-4.8v-.9h4.8zm0 2.9V83h-4.8v-3.3h4.8zm.9 0h4.8V83h-4.8v-3.3zm0-2v-.9h4.8v.9h-4.8zm0-1.3V73h4.8v3.4h-4.8zm0-5.5v-.8h4.8v.8h-4.8zm0-1.2v-3.5h4.8v3.5h-4.8zm0-5.6v-.9h4.8v.9h-4.8zm0-1.3v-3.5h4.8v3.5h-4.8zm0-5.5v-.9h4.8v.9h-4.8zm-.9-4.8V56h-4.8v-3.5h4.8zm-4.7 31h4.8v1h-4.8v-1zm7.9 15.7h-5.4v-9.3h5.4v9.3zm-2.3-14.7v-1h4.8v1h-4.8zm23.8-36.3h.9v4h-.9v-4zm0 7.1h.9v4h-.9v-4zm0 7h.9v4h-.9v-4zm0 7h.9v4h-.9v-4zm0 7h.9v4h-.9v-4zm0 7h.9v4h-.9v-4zm-4.8-35.1h.9v4h-.9v-4zm0 7.1h.9v4h-.9v-4zm0 7h.9v4h-.9v-4zm0 7h.9v4h-.9v-4zm0 7h.9v4h-.9v-4zm0 7h.9v4h-.9v-4zm-5-35.1h.9v4h-.9v-4zm0 7.1h.9v4h-.9v-4zm0 7h.9v4h-.9v-4zm0 7h.9v4h-.9v-4zm0 7h.9v4h-.9v-4zm0 7h.9v4h-.9v-4zm-4.7-35.1h.9v4h-.9v-4zm0 7.1h.9v4h-.9v-4zm0 7h.9v4h-.9v-4zm0 7h.9v4h-.9v-4zm0 7h.9v4h-.9v-4zm0 7h.9v4h-.9v-4zm5.8 15.9h-6.1v-8.9h6.1v8.9zm9.8 0h-6.1v-8.9h6.1v8.9zM300.2 238.2v-67.3h-5.7v-16.1h-10.9V153h-4.1v-11.7h-1.7V153h-4.1v1.8h-11.5v16.1h-5.7v67.3h-3.9v1.9H304v-1.9h-3.8zM288.7 214v-5.1h5.1v5.1h-5.1zm5.2 2.9v5.1h-5.1v-5.1h5.1zm-5.2-11v-5.1h5.1v5.1h-5.1zm0-8v-5.1h5.1v5.1h-5.1zm0-8v-5.1h5.1v5.1h-5.1zm0-8v-5.1h5.1v5.1h-5.1zM266.1 159H291v2.3h-24.9V159zm0 4.6H291v2.3h-24.9v-2.3zm0 4.7H291v2.3h-24.9v-2.3zm5.6 37.6v-5.1h5.1v5.1h-5.1zm5.2 2.9v5.1h-5.1v-5.1h5.1zm-5.2-10.9v-5.1h5.1v5.1h-5.1zm0-8v-5.1h5.1v5.1h-5.1zm0-8v-5.1h5.1v5.1h-5.1zm-3.5 57.1h-6.1v-11.7h6.1V239zm.2-17h-5.1v-5.1h5.1v5.1zm0-8h-5.1v-5.1h5.1v5.1zm0-8.1h-5.1v-5.1h5.1v5.1zm0-8h-5.1v-5.1h5.1v5.1zm0-8h-5.1v-5.1h5.1v5.1zm0-8h-5.1v-5.1h5.1v5.1zm3.3 35h5.1v5.1h-5.1v-5.1zm9.6 22.1h-6.1v-11.7h6.1V239zm4.1-17h-5.1v-5.1h5.1v5.1zm0-8h-5.1v-5.1h5.1v5.1zm0-8.1h-5.1v-5.1h5.1v5.1zm0-8h-5.1v-5.1h5.1v5.1zm0-8h-5.1v-5.1h5.1v5.1zm0-8h-5.1v-5.1h5.1v5.1zm9 57.1h-6.1v-11.7h6.1V239z"/><g><path class="st5" d="M507.9 229.4h-1.5l-1-2.3c-.6-.8-1-1.1-1.8-1.1h-6.8c-.7 0-1.2.3-1.8 1.1l-1 2.3h-1.5c-.2 0-.7 1.2.9 1.3l-.5 1.3v5c0 .3.3.6.6.6h2.1c.3 0 .6-.3.6-.6v-1.4h7.9v1.4c0 .3.3.6.6.6h2.1c.3 0 .6-.3.6-.6v-5l-.5-1.3c1.7 0 1.2-1.3 1-1.3zm-12.7 4.7c-.6 0-1-.5-1-1 0-.6.4-1 1-1 .5 0 1 .4 1 1s-.5 1-1 1zm7.1-.1H498c-.2 0-.5-.2-.5-.5s.2-.5.5-.5h4.3c.3 0 .5.2.5.5 0 .2-.2.5-.5.5zm-7.4-3.9c.3-.7.6-1.4 1-2.2.2-.4.5-.7.9-.8h6.8c.4 0 .7.4.9.8.4.8.7 1.5 1 2.2h-10.6zm10.3 4c-.5 0-1-.5-1-1 0-.6.5-1 1-1 .6 0 1 .4 1 1s-.4 1-1 1zM488.9 229.4h-1.5l-1-2.3c-.6-.8-1-1.1-1.8-1.1h-6.8c-.7 0-1.2.3-1.8 1.1l-1 2.3h-1.5c-.2 0-.7 1.2.9 1.3l-.5 1.3v5c0 .3.3.6.6.6h2.1c.3 0 .6-.3.6-.6v-1.4h7.9v1.4c0 .3.3.6.6.6h2.1c.3 0 .6-.3.6-.6v-5l-.5-1.3c1.7 0 1.2-1.3 1-1.3zm-12.7 4.7c-.6 0-1-.5-1-1 0-.6.4-1 1-1 .5 0 1 .4 1 1s-.5 1-1 1zm7.1-.1H479c-.2 0-.5-.2-.5-.5s.2-.5.5-.5h4.3c.3 0 .5.2.5.5 0 .2-.2.5-.5.5zm-7.4-3.9c.3-.7.6-1.4 1-2.2.2-.4.5-.7.9-.8h6.8c.4 0 .7.4.9.8.4.8.7 1.5 1 2.2h-10.6zm10.3 4c-.5 0-1-.5-1-1 0-.6.5-1 1-1 .6 0 1 .4 1 1s-.4 1-1 1zM465.6 238.2h50.3v1.9h-50.3zM474.5 214l-.5 1.3v5c0 .3.3.6.6.6h2.1c.3 0 .6-.3.6-.6v-1.4h7.9v1.4c0 .3.3.6.6.6h2.1c.3 0 .6-.3.6-.6v-5l-.5-1.3c1.6 0 1.2-1.3.9-1.3h-1.5l-1-2.3c-.6-.8-1-1.1-1.8-1.1h-6.8c-.7 0-1.2.3-1.8 1.1l-1 2.3h-1.5c-.2 0-.7 1.3 1 1.3zm8.8 3.3H479c-.2 0-.5-.2-.5-.5s.2-.5.5-.5h4.3c.3 0 .5.2.5.5s-.2.5-.5.5zm3.9-.8c0 .5-.4 1-1 1-.5 0-1-.5-1-1 0-.6.5-1 1-1 .6 0 1 .4 1 1zm-10.3-5.3c.2-.4.5-.7.9-.8h6.8c.4 0 .7.4.9.8.4.8.7 1.5 1 2.2h-10.6c.3-.7.6-1.4 1-2.2zm-.7 4.3c.5 0 1 .4 1 1 0 .5-.5 1-1 1-.6 0-1-.5-1-1 0-.6.4-1 1-1z"/><path class="st5" d="M512.8 221.5v-17.4h-44.2v17.4h-3v1.9h3v14.8h2.6v-14.8h39v14.8h2.6v-14.8h3v-1.9h-3zm-2.6 0h-39v-14.8h39v14.8z"/></g><path class="st0" d="M139.5 252.3h25.2v10.1h-25.2z"/><text transform="translate(147.106 258.378)" class="st1 st2 st4">C3</text></g></switch></svg>