<svg version="1.1" id="Layer_1" xmlns="http://www.w3.org/2000/svg" x="0" y="0" viewBox="0 0 712 336.1" style="enable-background:new 0 0 712 336.1" xml:space="preserve"><style>.st0,.st1,.st3,.st4,.st5,.st6{fill:#fff;stroke:#303030;stroke-width:.75;stroke-linejoin:round;stroke-miterlimit:10}.st1,.st3,.st4,.st5,.st6{stroke-miterlimit:9.9996}.st3,.st4,.st5,.st6{fill:#808285;stroke-miterlimit:10}.st4,.st5,.st6{fill:#767676}.st5,.st6{fill:#303030}.st6{fill:#010101}</style><switch><g><g id="Layer_1_00000062884759605632970060000010483077771766818957_"><path class="st0" d="M60.1 115.2h11.6v76.7H60.1zM71.7 191.8l2.2-8.1.4-68.6h-2.6zM127.6 103.1h11.6v76.7h-11.6z"/><path class="st1" d="m67.7 122-5.6 1.8-27.2-80.6 5.4-5.1z"/><path class="st0" d="m37.4 37.3 8.1-1.2-19.4 22.1-10.8 4z"/><path transform="rotate(-18.096 62.839 102.315)" class="st1" d="M59.9 64.1h5.8v76.5h-5.8z"/><path transform="rotate(-18.096 46.096 107.936)" class="st1" d="M43.2 69.7H49v76.5h-5.8z"/><path class="st0" d="M65.3 102.3H142l-11.1 35.5H48.4zM40.3 99.4l-14-41.2 19.2-22.1 12.8 43zM54.2 214.5l3.5-8.1.6-68.6h-4.1z"/><path class="st0" d="M130.9 138.7v-.9l11.1-34.9v10.5l-.3.7-.3 58.1-2.2 7.6-.1-57-5.7 18.5-.3 68-2.3 8.4v-79z"/><path class="st0" d="m15.6 62 11.1-3.6 25.9 79.4h78.3V218h-11.6v-68.6H54.2v65.1H42.6V144.6z"/><path class="st0" d="M45.8 196.8h11.6v76.7H45.8z"/><path class="st0" d="m57.4 273.5 2.3-8.1.3-68.6h-2.6zM113.4 184.8H125v76.7h-11.6z"/><path class="st1" d="m53.4 203.7-5.6 1.8-26.1-82.1 5.6-1.8z"/><path style="fill:#fff;stroke:#303030;stroke-width:.75;stroke-linecap:round;stroke-linejoin:round;stroke-miterlimit:10" d="m23.1 118.9 8.2-1.1-19.4 22.1-10.8 4z"/><path transform="rotate(-18.096 48.6 184.003)" class="st1" d="M45.7 145.7h5.8v76.5h-5.8z"/><path transform="rotate(-18.096 31.858 189.623)" class="st1" d="M29 151.4h5.8v76.5H29z"/><path class="st0" d="M51 184h76.7l-11 35.5H34.2zM26.1 181.1l-14-41.2 19.2-22.1 12.8 43zM40 296.2l3.5-8.2.6-68.5H40zM116.7 220.3v-.8l11-34.9v10.5l-.2.7-.3 58.1-2.3 7.6-.1-57-5.6 18.5-.4 68-2.2 8.4v-79.1z"/><path class="st0" d="m1.4 143.7 11-3.6 26 79.4h78.3V299.7h-11.6v-68.6H40v65.1H28.4V226.3zM619.9 133.9h11.6v76.7h-11.6z"/><path class="st0" d="m619.9 210.6-2.3-8.1-.4-68.6h2.7zM552.4 121.9H564v76.7h-11.6z"/><path transform="rotate(-71.904 640.364 99.632)" class="st1" d="M596.2 96.7h88.3v5.9h-88.3z"/><path class="st0" d="m654.1 56-8.1-1.1L665.4 77l10.8 4z"/><path transform="rotate(-71.904 628.692 121.136)" class="st1" d="M590.4 118.2h76.5v5.8h-76.5z"/><path transform="rotate(-71.904 645.396 126.73)" class="st1" d="M607.1 123.8h76.5v5.8h-76.5z"/><path class="st0" d="M626.2 121.1h-76.7l11.1 35.5h82.5zM651.2 118.2l14-41.2L646 54.9l-12.8 43zM637.3 233.3l-3.5-8.2-.6-68.5h4.1zM560.6 157.4v-.8l-11.1-34.9v10.5l.3.7.3 58.1 2.3 7.6v-57l5.7 18.4.3 68.1 2.3 8.4v-79.1z"/><path class="st0" d="m675.9 80.8-11.1-3.6-25.9 79.4h-78.3V236.8h11.6v-68.6h65.1v65.1h11.6V163.4z"/><g><path class="st0" d="M651.7 191.9h11.6v76.7h-11.6zM651.7 268.6l-2.2-8.2-.4-68.5h2.6zM584.2 179.8h11.6v76.7h-11.6z"/><path transform="rotate(-71.904 672.25 157.635)" class="st1" d="M628.1 154.7h88.3v5.9h-88.3z"/><path class="st0" d="m686 114-8.1-1.2 19.3 22.1 10.9 4.1z"/><path transform="rotate(-71.904 660.61 179.044)" class="st1" d="M622.3 176.1h76.5v5.8h-76.5z"/><path transform="rotate(-71.904 677.314 184.637)" class="st1" d="M639 181.7h76.5v5.8H639z"/><path class="st0" d="M658.1 179.1h-76.7l11.1 35.4H675zM683.1 176.2l14-41.3-19.2-22.1-12.8 43z"/><path class="st0" d="m669.2 291.2-3.5-8.1-.6-68.6h4.1zM592.5 215.4v-.9l-11.1-34.8v10.4l.3.8.3 58 2.2 7.7.1-57L590 218l.3 68 2.3 8.4v-79z"/><path class="st0" d="m707.8 138.7-11.1-3.6-25.9 79.4h-78.3V294.7h11.6v-68.6h65.1v65.1h11.6V221.3z"/></g><path class="st0" d="M199.3 34.9h75.6v47.2h-75.6zM314 31.4h75.6v47.2H314zM442.9 31.4h75.6v47.2h-75.6z"/><path class="st3" d="M57.3 170.9h14.2v142.6H57.3zM598.6 170.9h14.2v142.6h-14.2zM151.1 94.8h14.2v123.8h-14.2zM536.7 85.7h14.2v132.9h-14.2zM78.6 302.3l-7.1 11.2V170.9l7.1-7.6zM172.4 208.8l-7.1 9.7V95.1l7.1-6.6z"/><path class="st3" d="m591.5 302.2 7.4 11.3-.3-142.7-7.1-7.6zM529.6 207.9l7 10.6V86.2l-7-7.4z"/><path class="st3" d="M545.4 68.4H158.7L57.3 170.9h555.5zM57.3 170.9h555.6v9.6H57.3z"/><g><path class="st0" d="m90.3 157.9 61.6-71.3 102.3-.5-22.7 71.8z"/><path class="st4" d="m254 86.2-22.7 71.5H90.5l61.5-71 102-.5m.7-.5-102.5.5-61.9 71.6h141.6l22.8-72.1z"/></g><g><path class="st0" d="m446.7 162.4-10.1-71.8 116.6.5 47.4 71.3z"/><path class="st4" d="m436.7 90.8 116.4.5 47.3 71H446.8l-10.1-71.5m-.3-.3 10.1 72h154.2L553.2 91l-116.8-.5z"/></g><g><path class="st0" d="m308.2 92.1 15-17.2 24.9-.2-2.4 17.4z"/><path class="st4" d="M348 74.9 345.5 92h-37l14.7-17 24.8-.1m.2-.3-25.1.1L308 92.3h37.8l2.4-17.7z"/></g><g><path class="st0" d="m311.5 94.5 15-17.3 24.9-.1-2.5 17.4z"/><path class="st4" d="m351.3 77.2-2.4 17.2h-37l14.7-17 24.7-.2m.2-.3-25.1.1-15.2 17.5H349l2.5-17.6z"/></g><g><path class="st0" d="m122.5 144.2 61.7-71.3 102.3-.5-22.8 71.8z"/><path class="st4" d="M286.3 72.5 263.6 144l-141.3.2 62-71.2 102-.5m.3-.3-102.5.5-61.9 71.5h141.6l22.8-72z"/></g><g><path class="st0" d="m430.3 151.3-10.1-71.8 116.6.5 47.4 71.3z"/><path class="st4" d="m420.4 79.6 116.4.5 47.3 71H430.4l-10-71.5m-.3-.3 10.1 72h154.2l-47.6-71.5-116.7-.5z"/></g><g><path class="st5" d="M348.5 87.8c-6.7 0-11.4-.2-12.6-.4 1.2-.2 5.9-.4 12.6-.4s11.4.2 12.6.4c-1.2.3-5.9.4-12.6.4z"/><path class="st6" d="M348.5 87.2c5.2 0 9.2.1 11.3.3-2.1.1-6.1.3-11.3.3s-9.2-.1-11.3-.3c2.1-.2 6.1-.3 11.3-.3m0-.3c-7.1 0-12.9.2-12.9.5s5.8.5 12.9.5 12.9-.2 12.9-.5c0-.2-5.8-.5-12.9-.5z"/></g><g><path class="st6" d="M195.8 134.5c-6.7 0-11.4-.2-12.6-.4 1.2-.2 5.9-.4 12.6-.4s11.4.2 12.6.4c-1.3.2-6 .4-12.6.4z"/><path class="st5" d="M195.8 133.9c5.2 0 9.2.1 11.3.3-2.1.1-6.1.3-11.3.3s-9.2-.1-11.3-.3c2.1-.2 6.1-.3 11.3-.3m0-.3c-7.1 0-12.9.2-12.9.5s5.8.5 12.9.5 12.9-.2 12.9-.5-5.8-.5-12.9-.5z"/></g><g><path class="st0" d="M264.8 235.9h10.1v68.5h-10.1zM238.9 217.6H249v68.5h-10.1zM291.7 217.1h10.1v68.5h-10.1zM212 299.1l-2.5 5.1v-68l3-2.1zM251.6 280.4 249 286v-68l3.1-2.5z"/><path class="st0" d="m264.8 236.4-55.3-.3h-10.2v68.3h10.2V248h55.3v56.4h10.1v-68zM304.9 214.6h-59.4l-46.2 21.3h75.6z"/><path class="st0" d="M264.8 195.8h10.1v40.1h-10.1zM199.3 195.8h10.1v40.1h-10.1z"/><path class="st0" d="m278 234.3-3.1 1.6v-87.3h3.1z"/><path class="st0" d="M274.9 235.9v68.5l2.6-5.1.4-53.5 23.9-17.6v57.4l3.1-5.8.4-54.5.1-.1v-10.6zM212 234.5l-3 1.4v-80.5h3z"/><path class="st0" d="M199.3 148.6h75.6v47.2h-75.6z"/></g><g><path class="st0" d="M415 234.8h10.1v68.5H415zM440.8 216.5h10.1V285h-10.1zM388.1 215.9h10.1v68.5h-10.1zM477.8 298l2.6 5v-67.9l-3.1-2.1zM438.3 279.3l2.5 5.6v-68.5l-3.1-2z"/><path class="st0" d="M425.1 234.8h55.3l10.1.5V303.2h-10.1v-56.3h-55.3v56.3h-10.2v-68.5z"/><path class="st0" d="M384.6 213.4h59.7l46.2 21.3h-75.6z"/><path class="st0" d="M415 194.6h10.1v40.1H415zM480.4 194.6h10.1v40.1h-10.1zM411.9 233.2l3 1.5v-87.2h-3z"/><path class="st0" d="M414.9 234.7v68.5l-2.5-5-.4-53.5-23.9-17.7v57.4l-3.1-5.7-.4-54.5V213.4zM477.8 233.3l3.1 1.4v-80.4h-3.1z"/><path class="st0" d="M414.9 147.4h75.6v47.2h-75.6z"/></g><g><path class="st5" d="M136.7 129.3c1.9 0 1.9-3 0-3-2 0-2 3 0 3z"/></g></g></g></switch></svg>