<?xml version="1.0" encoding="utf-8"?>
<!-- Generator: Adobe Illustrator 26.2.1, SVG Export Plug-In . SVG Version: 6.00 Build 0)  -->
<svg version="1.1" id="Layer_1" xmlns="http://www.w3.org/2000/svg" xmlns:xlink="http://www.w3.org/1999/xlink" x="0px" y="0px"
	 viewBox="0 0 349.5 553.4" style="enable-background:new 0 0 349.5 553.4;" xml:space="preserve">
<style type="text/css">
	.st0{fill:none;}
	.st1{fill:none;stroke:#CCCCCC;stroke-width:0.7354;stroke-linecap:round;stroke-linejoin:round;}
	.st2{fill:none;stroke:#CCCCCC;stroke-width:0.5029;stroke-linecap:round;stroke-linejoin:round;}
	.st3{fill:#6A42A5;}
	.st4{fill:none;stroke:#CCCCCC;stroke-width:0.5164;stroke-linecap:square;}
	.st5{fill:none;stroke:#CCCCCC;stroke-width:0.5165;stroke-linecap:square;}
	.st6{fill:none;stroke:#CCCCCC;stroke-width:0.4295;stroke-linecap:round;stroke-linejoin:round;}
	.st7{fill:none;stroke:#CCCCCC;stroke-width:0.4972;stroke-linecap:round;stroke-linejoin:round;}
	.st8{fill:none;stroke:#CCCCCC;stroke-width:0.4977;stroke-linecap:round;stroke-linejoin:round;}
	.st9{fill:none;stroke:#CCCCCC;stroke-width:0.4977;stroke-linecap:round;stroke-linejoin:round;stroke-dasharray:1.9683,1.9683;}
	.st10{fill:#FFB809;}
	.st11{fill:none;stroke:#CCCCCC;stroke-width:0.5007;stroke-linecap:square;}
	.st12{fill:none;stroke:#CCCCCC;stroke-width:0.5008;stroke-linecap:square;}
	.st13{fill:#7151B7;}
	.st14{font-family:'URWDIN-Regular';}
	.st15{font-size:16px;}
	.st16{font-family:'URWDIN-Bold';}
	.st17{font-size:9.328px;}
	.st18{font-family:'ArialMT';}
	.st19{fill:#545454;}
	.st20{font-size:11.3806px;}
	.st21{fill:#E59900;}
	.st22{font-size:11px;}
	.st23{font-size:6.413px;}
	.st24{fill:#FFFFFF;}
	.st25{font-family:'URWDIN-Medium';}
	.st26{font-size:10.346px;}
	.st27{fill:none;stroke:#FFFFFF;stroke-width:2.0692;}
	.st28{fill:none;stroke:#FFFFFF;stroke-width:0.25;}
	.st29{font-size:5.83px;}
	.st30{font-size:10px;}
</style>
<g id="Layer_1_00000018218575872381083870000008444218175659521726_">
	<path class="st0" d="M15,78.7h319.9v152.8H15V78.7z"/>
	<path class="st1" d="M15,78.7v152.8"/>
	<path class="st0" d="M15,78.7h319.9v152.8H15V78.7z"/>
	<path class="st2" d="M78.4,78.7v152.8"/>
	<path class="st0" d="M15,78.7h319.9v152.8H15V78.7z"/>
	<path class="st2" d="M141.9,78.7v152.8"/>
	<path class="st0" d="M15,78.7h319.9v152.8H15V78.7z"/>
	<path class="st2" d="M205.4,78.7v152.8 M268.9,78.7v152.8 M333.1,78.7v152.8"/>
	<path class="st3" d="M15.4,183.6v28.2h304.7v-28.2H15.4z M15.4,133.2v28H117v-28H15.4z M15.4,81.3v28.2h127V81.3
		C142.4,81.3,15.4,81.3,15.4,81.3z"/>
	<path id="patch_8_00000011003051398523423360000011756671908734098358_" class="st4" d="M14.8,231.5H333"/>
	<path id="patch_8_00000112619291557898049340000016005478825472025752_" class="st5" d="M14.7,78.7H333"/>
	<path class="st6" d="M14.6,297.3V454"/>
	<path class="st7" d="M72.6,296.8V454 M130.1,296.8V454 M187.6,296.8V454 M245.1,296.8V454 M302.6,296.8V454"/>
	<path class="st8" d="M333.6,296.8v1"/>
	<path class="st9" d="M333.6,299.8v152.5"/>
	<path class="st8" d="M333.6,453.3v1"/>
	<path class="st3" d="M15.1,407.5v28h244.6v-28H15.1z M15.1,354.7v28h78.4v-28H15.1z M15.1,300.5v28h100.4v-28H15.1z"/>
	<path class="st10" d="M260.5,407.5v28h57.3v-28H260.5z M94.3,354.7v28h9.4v-28H94.3z M116.2,300.5v28h17.6v-28
		C133.8,300.5,116.2,300.5,116.2,300.5z"/>
	<path class="st11" d="M14.7,296.8h318.7"/>
	<path class="st12" d="M14.8,454h318.9"/>
</g>
<g id="Layer_2_00000101803537233737297240000000801855472194298020_">
	<text transform="matrix(1 0 0 1 13.707 32.983)" class="st13 st14 st15">125th Street Corridor (2008)</text>
	<text transform="matrix(1 0 0 1 13.707 52.184)" class="st13 st14 st15">CEQR Estimates vs. Actual Development</text>
	<text transform="matrix(1 0 0 1 302.058 43.31)" class="st13 st16 st17">a</text>
	<text transform="matrix(1 0 0 1 304.878 52.184)" class="st13 st18 st15"> </text>
	<text transform="matrix(1 0 0 1 13.545 257.183)" class="st19 st14 st20">Number Developments</text>
	<text transform="matrix(1 0 0 1 13.9 73.62)" class="st13 st16 st20">Developments</text>
	<text transform="matrix(1 0 0 1 16.312 478.709)" class="st19 st14 st20">Number of Units</text>
	<text transform="matrix(1 0 0 1 139.691 320.304)" class="st21 st18 st22">Affordable</text>
	<text transform="matrix(1 0 0 1 191.874 314.462)" class="st10 st18 st23">b</text>
	<text transform="matrix(1 0 0 1 195.51 318.125)" class="st10 st18 st22"> </text>
	<text transform="matrix(1 0 0 1 16.762 317.238)" class="st24 st25 st22">Market Rate </text>
	<text transform="matrix(1 0 0 1 13.165 291.156)" class="st21 st16 st20">Dwelling Units</text>
	<text transform="matrix(1 0 0 1 14.588 243.032)" class="st19 st14 st26">0 </text>
	<text transform="matrix(1 0 0 1 73.407 245.027)" class="st19 st14 st26">10 </text>
	<text transform="matrix(1 0 0 1 137.29 245.027)" class="st19 st14 st26">20 </text>
	<text transform="matrix(1 0 0 1 200.257 245.027)" class="st19 st14 st26">30 </text>
	<text transform="matrix(1 0 0 1 264.14 245.027)" class="st19 st14 st26">40 </text>
	<text transform="matrix(1 0 0 1 328.483 245.027)" class="st19 st14 st26">50 </text>
	<text transform="matrix(1 0 0 1 17.815 464.444)" class="st19 st14 st26">0 </text>
	<text transform="matrix(1 0 0 1 63.431 465.072)" class="st19 st14 st26">500 </text>
	<text transform="matrix(1 0 0 1 118.003 465.072)" class="st19 st14 st26">1,000 </text>
	<text transform="matrix(1 0 0 1 175.649 465.072)" class="st19 st14 st26">1,500 </text>
	<text transform="matrix(1 0 0 1 232.881 465.072)" class="st19 st14 st26">2,000 </text>
	<text transform="matrix(1 0 0 1 292.569 465.072)" class="st19 st14 st26">2,500 </text>
	<path class="st0" d="M18.1,216.8h298.2v14.5H18.1V216.8z"/>
	<text transform="matrix(1 0 0 1 18.097 224.639)" class="st27 st25 st22">Projected &amp; Potential Sites by Build Year 2017 (CEQR Est.)</text>
	<path class="st0" d="M18.1,216.8h298.2v14.5H18.1V216.8z"/>
	<text transform="matrix(1 0 0 1 18.097 224.639)" class="st13 st25 st22">Projected &amp; Potential Sites by Build Year 2017 (CEQR Est.)</text>
	<path class="st0" d="M18.1,216.8h298.2v14.5H18.1V216.8z"/>
	<text transform="matrix(1 0 0 1 18.097 224.639)" class="st13 st25 st22">Projected &amp; Potential Sites by Build Year 2017 (CEQR Est.)</text>
	<path class="st0" d="M17.5,332.9h132.6v15.7H17.5V332.9z"/>
	<text transform="matrix(1 0 0 1 17.518 340.712)" class="st28 st25 st22">by 2022 (CEQR Est.)</text>
	<path class="st0" d="M17.5,332.9h132.6v15.7H17.5V332.9z"/>
	<text transform="matrix(1 0 0 1 17.518 340.712)" class="st13 st25 st22">by 2022 (CEQR Est.)</text>
	<path class="st0" d="M17.5,332.9h132.6v15.7H17.5V332.9z"/>
	<text transform="matrix(1 0 0 1 17.518 340.712)" class="st13 st25 st22">by 2022 (CEQR Est.)</text>
	<g>
		<path class="st0" d="M18.3,387.7h132.6v15.7H18.3V387.7z"/>
		<text transform="matrix(1 0 0 1 18.335 395.572)" class="st27 st25 st22">by 2017 (CEQR Est.)</text>
		<path class="st0" d="M18.3,387.7h132.6v15.7H18.3V387.7z"/>
		<text transform="matrix(1 0 0 1 18.335 395.572)" class="st13 st25 st22">by 2017 (CEQR Est.)</text>
		<path class="st0" d="M18.3,387.7h132.6v15.7H18.3V387.7z"/>
		<text transform="matrix(1 0 0 1 18.335 395.572)" class="st13 st25 st22">by 2017 (CEQR Est.)</text>
	</g>
	<g>
		<path class="st0" d="M17.9,439.9H219v14.2H17.9V439.9z"/>
		<text transform="matrix(1 0 0 1 17.92 447.708)" class="st27 st25 st22">by 2022 (Actual)</text>
		<path class="st0" d="M17.9,439.9H219v14.2H17.9V439.9z"/>
		<text transform="matrix(1 0 0 1 17.92 447.708)" class="st13 st25 st22">by 2022 (Actual)</text>
		<path class="st0" d="M17.9,439.9H219v14.2H17.9V439.9z"/>
		<text transform="matrix(1 0 0 1 17.92 447.708)" class="st13 st25 st22">by 2022 (Actual)</text>
	</g>
	<g>
		<path class="st0" d="M16.8,166.3h200.4v46.1H16.8V166.3z"/>
		<text transform="matrix(1 0 0 1 16.836 174.178)" class="st27 st25 st22">New Construction by Build Year 2017</text>
		<path class="st0" d="M16.8,166.3h200.4v46.1H16.8V166.3z"/>
		<text transform="matrix(1 0 0 1 16.836 174.178)" class="st13 st25 st22">New Construction by Build Year 2017</text>
		<path class="st0" d="M16.8,166.3h200.4v46.1H16.8V166.3z"/>
		<text transform="matrix(1 0 0 1 16.836 174.178)" class="st13 st25 st22">New Construction by Build Year 2017</text>
	</g>
	<g>
		<path class="st0" d="M16.8,114.6h155.8v46.1H16.8V114.6z"/>
		<text transform="matrix(1 0 0 1 16.836 122.456)" class="st27 st25 st22">New Construction by 2022</text>
		<path class="st0" d="M16.8,114.6h155.8v46.1H16.8V114.6z"/>
		<text transform="matrix(1 0 0 1 16.836 122.456)" class="st13 st25 st22">New Construction by 2022</text>
		<path class="st0" d="M16.8,114.6h155.8v46.1H16.8V114.6z"/>
		<text transform="matrix(1 0 0 1 16.836 122.456)" class="st13 st25 st22">New Construction by 2022</text>
	</g>
	<path class="st0" d="M16.4,502.2h319.9v38.7H16.4V502.2z"/>
	<text transform="matrix(1 0 0 1 16.387 506.027)" class="st19 st14 st29">a</text>
	<text transform="matrix(1 0 0 1 19.447 509.357)" class="st19 st14 st30">Based on new construction overall. </text>
	<text transform="matrix(1 0 0 1 175.644 506.027)" class="st19 st14 st29">b</text>
	<text transform="matrix(1 0 0 1 178.94 509.357)" class="st19 st14 st30">Affordable units counted toward </text>
	<text transform="matrix(1 0 0 1 16.386 521.357)" class="st19 st14 st30">Housing NY since 2014. Sources: FEIS (DCP, 2008) PLUTO 22v3 (DCP, </text>
	<text transform="matrix(1 0 0 1 16.386 533.357)" class="st19 st14 st30">2022), Affordable Housing Production (HPD, 2022) </text>
</g>
</svg>
