<?xml version="1.0" encoding="utf-8"?>
<!-- Generator: Adobe Illustrator 27.0.0, SVG Export Plug-In . SVG Version: 6.00 Build 0)  -->
<svg version="1.1" id="Layer_1" xmlns="http://www.w3.org/2000/svg" xmlns:xlink="http://www.w3.org/1999/xlink" x="0px" y="0px"
	 viewBox="0 0 673.4 161" style="enable-background:new 0 0 673.4 161;" xml:space="preserve">
<style type="text/css">
	.st0{fill:none;stroke:#000000;stroke-width:2;stroke-miterlimit:10;}
	.st1{fill:none;stroke:#000000;stroke-width:0.5;stroke-miterlimit:10;}
	.st2{fill:none;stroke:#000000;stroke-width:2;stroke-miterlimit:10;stroke-dasharray:4.9281,2.9569;}
	.st3{fill:none;stroke:#000000;stroke-width:2;stroke-miterlimit:10;stroke-dasharray:5.1267,3.076;}
	.st4{fill:none;stroke:#000000;stroke-width:2;stroke-miterlimit:10;stroke-dasharray:5.0487,3.0292;}
	.st5{fill:none;stroke:#000000;stroke-width:2;stroke-miterlimit:10;stroke-dasharray:4.907,2.9442;}
	.st6{fill:none;stroke:#000000;stroke-width:2;stroke-miterlimit:10;stroke-dasharray:5,3;}
</style>
<g id="Layer_2_00000143595519064539289910000011565363229276390278_">
</g>
<g id="Layer_1_00000123416761457385262220000003551545545084690330_">
	<polygon class="st0" points="9.1,119 9.1,107.6 126.4,31.6 195.4,60.4 195.4,70.8 78.7,145.9 	"/>
	<polyline class="st1" points="9.1,107.6 78.2,135.9 195.4,60.4 	"/>
	<line class="st1" x1="78.7" y1="145.9" x2="78.2" y2="135.9"/>
	<polygon class="st0" points="283.3,137.3 400.3,61.7 400.3,39.7 366,26.3 248.6,102 248.6,123.6 	"/>
	<g>
		<g>
			<polyline class="st0" points="321.5,152 319.4,153.4 317.1,152.4 			"/>
			<line class="st2" x1="314.4" y1="151.2" x2="286.9" y2="139"/>
			<polyline class="st0" points="285.5,138.4 283.3,137.3 285.4,136 			"/>
			<line class="st3" x1="287.9" y1="134.3" x2="396.9" y2="63.9"/>
			<polyline class="st0" points="398.2,63.1 400.3,61.7 402.6,62.6 			"/>
			<line class="st4" x1="405.4" y1="63.7" x2="434.1" y2="74.8"/>
			<polyline class="st0" points="435.6,75.3 437.9,76.2 435.8,77.6 			"/>
			<line class="st5" x1="433.3" y1="79.2" x2="322.7" y2="151.2"/>
		</g>
	</g>
	<polyline class="st1" points="248.6,102 283.3,116.6 400.3,39.7 	"/>
	<polyline class="st1" points="248.6,112.4 283.3,126.5 400.3,49.8 	"/>
	<line class="st1" x1="283.3" y1="137.3" x2="283.3" y2="116.6"/>
	<polygon class="st0" points="538.5,46.3 597.7,7 633.1,20.4 633.1,65.4 574.3,106.1 538.5,92.3 	"/>
	<polyline class="st6" points="538.5,92.3 479.2,128.1 548.2,156.4 668.5,80.3 633.1,65.4 	"/>
	<polyline class="st1" points="538.5,46.3 573.9,60.7 633.1,20.4 	"/>
	<polyline class="st1" points="538.5,56.5 573.9,71.2 633.1,32.2 	"/>
	<polyline class="st1" points="538.5,67.6 573.9,81.9 633.1,43.8 	"/>
	<polyline class="st1" points="538.5,78.9 573.9,93.1 633.1,54.3 	"/>
	<line class="st1" x1="573.9" y1="60.7" x2="573.9" y2="104.3"/>
</g>
</svg>
