<?xml version="1.0" encoding="utf-8"?>
<!-- Generator: Adobe Illustrator 27.0.0, SVG Export Plug-In . SVG Version: 6.00 Build 0)  -->
<svg version="1.1" id="Layer_1" xmlns="http://www.w3.org/2000/svg" xmlns:xlink="http://www.w3.org/1999/xlink" x="0px" y="0px"
	 viewBox="0 0 183.4 126.1" style="enable-background:new 0 0 183.4 126.1;" xml:space="preserve">
<style type="text/css">
	.st0{opacity:0.97;}
	.st1{fill:#020202;}
</style>
<g>
	<g class="st0">
		<path class="st1" d="M61.8,60.1L75,33.3c0.1-0.2,0.1-0.3,0-0.5L63.3,7.8C63.1,7.4,63.4,7,63.8,7l11.8,0c0.2,0,0.4,0.1,0.5,0.3
			l6.3,14.3c0.2,0.5,0.8,0.5,1.1,0l6.3-14.3C90,7.1,90.2,7,90.4,7l11.8,0c0.4,0,0.7,0.4,0.5,0.8l-11.8,25c-0.1,0.2-0.1,0.3,0,0.5
			l13.2,26.8c0.2,0.4-0.1,0.8-0.5,0.8l-11.8,0c-0.2,0-0.4-0.1-0.5-0.3L83.5,45c-0.2-0.4-0.8-0.4-1,0l-7.9,15.6
			c-0.1,0.2-0.3,0.3-0.5,0.3l-11.8,0C61.8,60.9,61.6,60.5,61.8,60.1z"/>
	</g>
	<g class="st0">
		<path class="st1" d="M85.8,84.7c-0.3,0.2-0.7,0.1-0.9-0.2c-1.4-2.7-3.3-3.7-5.9-3.7c-2.9,0-4,1.7-4,4.2c0,2.8,1.6,4.2,6.4,6
			c9,3.3,12.1,7.1,12.1,15.2c0,8.7-5.5,14.3-14.6,14.3c-7.3,0-12.3-2-16.3-7.4c-0.2-0.3-0.1-0.6,0.1-0.8l7.1-5.3
			c0.3-0.2,0.6-0.1,0.8,0.1c1.8,2.6,4.2,3.8,6.7,3.8c3.5,0,4.6-1.9,4.6-4.2c0-2.8-1.2-4-6.9-6.2c-8.3-3.2-11.7-7.8-11.7-15.5
			c0-7.9,4.8-13.8,14.8-13.8c6.3,0,11.7,2.4,14.6,7.4c0.1,0.3,0.1,0.6-0.2,0.8L85.8,84.7z"/>
		<path class="st1" d="M110.1,119.7H99.8c-0.3,0-0.6-0.3-0.6-0.6V72.5c0-0.3,0.3-0.6,0.6-0.6h10.3c0.3,0,0.6,0.3,0.6,0.6v46.7
			C110.7,119.4,110.5,119.7,110.1,119.7z"/>
		<path class="st1" d="M146.3,72.5v8.4c0,0.3-0.3,0.6-0.6,0.6H137c-0.3,0-0.6,0.3-0.6,0.6v37.1c0,0.3-0.3,0.6-0.6,0.6h-10.3
			c-0.3,0-0.6-0.3-0.6-0.6V82c0-0.3-0.3-0.6-0.6-0.6h-8.7c-0.3,0-0.6-0.3-0.6-0.6v-8.4c0-0.3,0.3-0.6,0.6-0.6h30
			C146,71.9,146.3,72.1,146.3,72.5z"/>
		<path class="st1" d="M176.3,72.5v8.4c0,0.3-0.3,0.6-0.6,0.6h-13.5c-0.3,0-0.6,0.3-0.6,0.6v7.6c0,0.3,0.3,0.6,0.6,0.6h11.7
			c0.3,0,0.6,0.3,0.6,0.6v8.4c0,0.3-0.3,0.6-0.6,0.6h-11.7c-0.3,0-0.6,0.3-0.6,0.6v9.2c0,0.3,0.3,0.6,0.6,0.6h13.5
			c0.3,0,0.6,0.3,0.6,0.6v8.4c0,0.3-0.3,0.6-0.6,0.6h-25c-0.3,0-0.6-0.3-0.6-0.6V72.5c0-0.3,0.3-0.6,0.6-0.6h25
			C176,71.9,176.3,72.1,176.3,72.5z"/>
	</g>
	<g class="st0">
		<path class="st1" d="M41.6,29.1c-0.2-0.3-0.1-0.7,0.2-0.9c2.7-1.4,3.7-3.3,3.7-5.9c0-2.9-1.7-4-4.2-4c-2.8,0-4.2,1.6-6,6.4
			c-3.3,9-7.1,12.1-15.2,12.1c-8.7,0-14.3-5.5-14.3-14.6c0-7.3,2-12.3,7.4-16.3c0.3-0.2,0.6-0.1,0.8,0.1l5.3,7.1
			c0.2,0.3,0.1,0.6-0.1,0.8c-2.6,1.8-3.8,4.2-3.8,6.7c0,3.5,1.9,4.6,4.2,4.6c2.8,0,4-1.2,6.2-6.9C29,10.2,33.6,6.8,41.3,6.8
			c7.9,0,13.8,4.8,13.8,14.8c0,6.3-2.4,11.7-7.4,14.6c-0.3,0.1-0.6,0.1-0.8-0.2L41.6,29.1z"/>
		<path class="st1" d="M6.6,53.4V43.1c0-0.3,0.3-0.6,0.6-0.6h46.7c0.3,0,0.6,0.3,0.6,0.6v10.3c0,0.3-0.3,0.6-0.6,0.6H7.2
			C6.8,54,6.6,53.8,6.6,53.4z"/>
		<path class="st1" d="M53.8,89.6h-8.4c-0.3,0-0.6-0.3-0.6-0.6v-8.7c0-0.3-0.3-0.6-0.6-0.6H7.2c-0.3,0-0.6-0.3-0.6-0.6V68.8
			c0-0.3,0.3-0.6,0.6-0.6h37.1c0.3,0,0.6-0.3,0.6-0.6V59c0-0.3,0.3-0.6,0.6-0.6h8.4c0.3,0,0.6,0.3,0.6,0.6v30
			C54.4,89.3,54.1,89.6,53.8,89.6z"/>
		<path class="st1" d="M53.8,119.6h-8.4c-0.3,0-0.6-0.3-0.6-0.6v-13.5c0-0.3-0.3-0.6-0.6-0.6h-7.6c-0.3,0-0.6,0.3-0.6,0.6v11.7
			c0,0.3-0.3,0.6-0.6,0.6h-8.4c-0.3,0-0.6-0.3-0.6-0.6v-11.7c0-0.3-0.3-0.6-0.6-0.6h-9.2c-0.3,0-0.6,0.3-0.6,0.6V119
			c0,0.3-0.3,0.6-0.6,0.6H7.2c-0.3,0-0.6-0.3-0.6-0.6V94c0-0.3,0.3-0.6,0.6-0.6h46.7c0.3,0,0.6,0.3,0.6,0.6v25
			C54.4,119.3,54.1,119.6,53.8,119.6z"/>
	</g>
	<path class="st1" d="M175.2,61.1h-64.2c-0.4,0-0.7-0.3-0.7-0.7V7.6c0-0.4,0.3-0.7,0.7-0.7h64.2c0.4,0,0.7,0.3,0.7,0.7v52.7
		C176,60.8,175.7,61.1,175.2,61.1z"/>
</g>
</svg>
