<?xml version="1.0" encoding="utf-8"?>
<!-- Generator: Adobe Illustrator 27.0.0, SVG Export Plug-In . SVG Version: 6.00 Build 0)  -->
<svg version="1.1" xmlns="http://www.w3.org/2000/svg" xmlns:xlink="http://www.w3.org/1999/xlink" x="0px" y="0px"
	 viewBox="0 0 1920 1080" style="enable-background:new 0 0 1920 1080;" xml:space="preserve">
<style type="text/css">
	.st0{enable-background:new    ;}
	.st1{fill:#338FAF;}
	.st2{fill:#297B96;}
	.st3{fill:#2F86A4;}
	.st4{fill:#A7A7A7;}
	.st5{clip-path:url(#SVGID_00000164499026320657047560000007712722658888804481_);}
	.st6{clip-path:url(#SVGID_00000083790032813995852130000011925887381923625638_);}
	.st7{clip-path:url(#SVGID_00000013892582940847706210000003125916935444129927_);}
	.st8{clip-path:url(#SVGID_00000083085807630829705690000010768275290452802468_);}
	.st9{fill:#3B99D4;}
	.st10{fill:#FFFFFF;}
	.st11{fill:none;stroke:#FFFFFF;stroke-width:3;stroke-miterlimit:10;}
	.st12{fill:none;stroke:#3B99D4;stroke-width:5;stroke-miterlimit:10;}
	.st13{fill:none;}
	.st14{font-family:'FranklinGothicATF-Medium';}
	.st15{font-size:50px;}
	.st16{fill:#121517;}
	.st17{font-family:'FranklinGothicATF-Regular';}
	.st18{font-size:33px;}
	.st19{font-family:'FranklinGothicATF-Bold';}
</style>
<g id="Diagram">
	<g>
		<g>
			<g class="st0">
				<g>
					<polygon class="st1" points="303.4,715.8 805.7,831.8 577.1,1045.1 74.8,929.1 					"/>
				</g>
				<g>
					<polygon class="st2" points="73.9,951.6 74.8,929.1 577.1,1045.1 576.3,1067.5 					"/>
				</g>
				<g>
					<polygon class="st3" points="576.3,1067.5 577.1,1045.1 805.7,831.8 804.8,854.2 					"/>
				</g>
			</g>
		</g>
	</g>
	<g>
		<g>
			<g>
				<polygon class="st4" points="575.8,1043.1 75.7,927.6 303.3,715.3 803.4,830.7 				"/>
				<g class="st0">
					<defs>
						<polygon id="SVGID_1_" class="st0" points="575.8,1043.1 75.7,927.6 303.3,715.3 803.4,830.7 						"/>
					</defs>
					<clipPath id="SVGID_00000049929523524526905790000003696133146440112803_">
						<use xlink:href="#SVGID_1_"  style="overflow:visible;"/>
					</clipPath>
					<g style="clip-path:url(#SVGID_00000049929523524526905790000003696133146440112803_);">
						<g>
							<g>
								<defs>
									<polyline id="SVGID_00000055688300337577527690000006869884760174597797_" points="75.7,927.6 575.8,1043.1 803.4,830.7 
										303.3,715.3 75.7,927.6 									"/>
								</defs>
								<clipPath id="SVGID_00000134951396852150944920000015299339233536151466_">
									<use xlink:href="#SVGID_00000055688300337577527690000006869884760174597797_"  style="overflow:visible;"/>
								</clipPath>
								<g style="clip-path:url(#SVGID_00000134951396852150944920000015299339233536151466_);">
									
										<image style="overflow:visible;" width="3033" height="1366" xlink:href="1DEC8AA5CD4883BA.png"  transform="matrix(0.24 0 0 0.24 75.6752 715.2677)">
									</image>
								</g>
							</g>
						</g>
					</g>
				</g>
			</g>
		</g>
	</g>
	<g>
		<g>
			<g class="st0">
				<g>
					<polygon class="st1" points="302.9,468.8 805.3,584.8 576.7,798.1 74.3,682.1 					"/>
				</g>
				<g>
					<polygon class="st2" points="73.5,704.6 74.3,682.1 576.7,798.1 575.8,820.6 					"/>
				</g>
				<g>
					<polygon class="st3" points="575.8,820.6 576.7,798.1 805.3,584.8 804.4,607.3 					"/>
				</g>
			</g>
		</g>
	</g>
	<g>
		<g>
			<g>
				<g>
					<polygon class="st4" points="573.5,796.5 74.6,681.3 301.6,469.5 800.5,584.7 					"/>
					<g class="st0">
						<defs>
							<polygon id="SVGID_00000099659865869637315660000003605044267478835374_" class="st0" points="573.5,796.5 74.6,681.3 
								301.6,469.5 800.5,584.7 							"/>
						</defs>
						<clipPath id="SVGID_00000160910534603304033060000011379457992329605819_">
							<use xlink:href="#SVGID_00000099659865869637315660000003605044267478835374_"  style="overflow:visible;"/>
						</clipPath>
						<g style="clip-path:url(#SVGID_00000160910534603304033060000011379457992329605819_);">
							<g>
								<g>
									<defs>
										<polyline id="SVGID_00000003787443135886073270000011627091671993533342_" points="74.6,681.3 573.5,796.5 800.5,584.7 
											301.6,469.5 74.6,681.3 										"/>
									</defs>
									<clipPath id="SVGID_00000129179036169604433960000015031045752140291723_">
										<use xlink:href="#SVGID_00000003787443135886073270000011627091671993533342_"  style="overflow:visible;"/>
									</clipPath>
									<g style="clip-path:url(#SVGID_00000129179036169604433960000015031045752140291723_);">
										
											<image style="overflow:visible;" width="3025" height="1363" xlink:href="1DEC8AA5CD4883BE.png"  transform="matrix(0.24 0 0 0.24 74.5754 469.4977)">
										</image>
									</g>
								</g>
							</g>
						</g>
					</g>
				</g>
			</g>
		</g>
	</g>
	<g>
		<g>
			<g class="st0">
				<g>
					<polygon class="st1" points="303.4,234.1 805.7,350.1 577.1,563.4 74.8,447.4 					"/>
				</g>
				<g>
					<polygon class="st2" points="73.9,469.9 74.8,447.4 577.1,563.4 576.3,585.8 					"/>
				</g>
				<g>
					<polygon class="st3" points="576.3,585.8 577.1,563.4 805.7,350.1 804.9,372.5 					"/>
				</g>
			</g>
		</g>
	</g>
	<g>
		<g>
			<g>
				<g>
					<polygon class="st4" points="576.4,561.4 77.8,446.3 304.7,234.6 803.2,349.7 					"/>
					<g class="st0">
						<defs>
							<polygon id="SVGID_00000088818478756234077180000017985299670319498123_" class="st0" points="576.4,561.4 77.8,446.3 
								304.7,234.6 803.2,349.7 							"/>
						</defs>
						<clipPath id="SVGID_00000179636874997168446460000011203526874736426906_">
							<use xlink:href="#SVGID_00000088818478756234077180000017985299670319498123_"  style="overflow:visible;"/>
						</clipPath>
						<g style="clip-path:url(#SVGID_00000179636874997168446460000011203526874736426906_);">
							<g>
								<g>
									<defs>
										<polyline id="SVGID_00000066483609079234568540000014734256176633102231_" points="77.8,446.3 576.4,561.4 803.2,349.7 
											304.7,234.6 77.8,446.3 										"/>
									</defs>
									<clipPath id="SVGID_00000183965249553645554960000009489141283570197909_">
										<use xlink:href="#SVGID_00000066483609079234568540000014734256176633102231_"  style="overflow:visible;"/>
									</clipPath>
									<g style="clip-path:url(#SVGID_00000183965249553645554960000009489141283570197909_);">
										
											<image style="overflow:visible;" width="3023" height="1362" xlink:href="1DEC8AA5CD4883B9.png"  transform="matrix(0.24 0 0 0.24 77.8208 234.586)">
										</image>
									</g>
								</g>
							</g>
						</g>
					</g>
				</g>
			</g>
		</g>
	</g>
	<g>
		<g>
			<g class="st0">
				<g>
					<polygon class="st1" points="302.1,10.2 804.5,126.2 575.9,339.5 73.5,223.6 					"/>
				</g>
				<g>
					<polygon class="st2" points="72.7,246 73.5,223.6 575.9,339.5 575,362 					"/>
				</g>
				<g>
					<polygon class="st3" points="575,362 575.9,339.5 804.5,126.2 803.6,148.7 					"/>
				</g>
			</g>
		</g>
	</g>
	<g>
		<g>
			<g>
				<polygon class="st4" points="574,337.1 74.9,221.9 302,10 801.1,125.2 				"/>
				<g class="st0">
					<defs>
						<polygon id="SVGID_00000015356936535832580210000002609007109974770054_" class="st0" points="574,337.1 74.9,221.9 302,10 
							801.1,125.2 						"/>
					</defs>
					<clipPath id="SVGID_00000119840762312902744410000003877365097830440874_">
						<use xlink:href="#SVGID_00000015356936535832580210000002609007109974770054_"  style="overflow:visible;"/>
					</clipPath>
					<g style="clip-path:url(#SVGID_00000119840762312902744410000003877365097830440874_);">
						<g>
							<g>
								<defs>
									<polyline id="SVGID_00000147931605255431861610000016799799678301992637_" points="74.9,221.9 574,337.1 801.1,125.2 
										302,10 74.9,221.9 									"/>
								</defs>
								<clipPath id="SVGID_00000169553300720848348510000011920055596595335358_">
									<use xlink:href="#SVGID_00000147931605255431861610000016799799678301992637_"  style="overflow:visible;"/>
								</clipPath>
								<g style="clip-path:url(#SVGID_00000169553300720848348510000011920055596595335358_);">
									
										<image style="overflow:visible;" width="3026" height="1364" xlink:href="1DEC8AA5CD4883BB.png"  transform="matrix(0.24 0 0 0.24 74.9204 10.0062)">
									</image>
								</g>
							</g>
						</g>
					</g>
				</g>
			</g>
		</g>
	</g>
</g>
<g id="Icons">
	<circle class="st9" cx="139.9" cy="155.1" r="61.7"/>
	<circle class="st9" cx="139.9" cy="386.2" r="61.7"/>
	<circle class="st9" cx="139.9" cy="617.4" r="61.7"/>
	<circle class="st9" cx="139.9" cy="859.2" r="61.7"/>
	<path class="st10" d="M172,121.6h-64.2c-1.3,0-2.4,1.1-2.4,2.4v62.1c0,1.3,1.1,2.4,2.4,2.4H172c1.3,0,2.4-1.1,2.4-2.4V124
		C174.4,122.7,173.4,121.6,172,121.6z M169.6,153.5h-13v-10.8h13V153.5z M153.4,153.5h-11.8v-10.8h11.8V153.5z M138.3,153.5h-11.8
		v-10.8h11.8V153.5z M123.3,153.5h-13.1v-10.8h13.1V153.5z M110.2,156.6h13.1v11.9h-13.1V156.6z M126.5,156.6h11.8v11.9h-11.8V156.6
		z M138.3,171.7v12h-11.8v-12H138.3z M141.6,171.7h11.8v12h-11.8V171.7z M141.6,168.5v-11.9h11.8v11.9H141.6z M156.6,156.6h13v11.9
		h-13V156.6z M169.6,126.4v13h-59.4v-13H169.6z M110.2,171.7h13.1v12h-13.1V171.7z M156.6,183.7v-12h13v12H156.6z"/>
	<g>
		<path class="st11" d="M155.7,360.4h16.5c1.4,0,2.6,1.5,2.6,3.4l0,0c0,1.9-1.2,3.4-2.6,3.4h-67.3c-1.4,0-2.6-1.5-2.6-3.4l0,0
			c0-1.9,1.2-3.4,2.6-3.4H155.7z"/>
		<path class="st11" d="M110.8,367.2l18.9,22.6c1.3,1.5,2.2,3.3,2.8,5.3l0,0c0.4,1.3,0.6,2.7,0.6,4v28.8l11.1-10.4v-18.4
			c0-1.4,0.2-2.7,0.6-4l0,0c0.6-1.9,1.5-3.7,2.8-5.3l18.9-22.6"/>
	</g>
	<path class="st10" d="M151.8,595.2c0,3.7-3,6.7-6.7,6.7c-3.7,0-6.7-3-6.7-6.7s3-6.7,6.7-6.7C148.8,588.5,151.8,591.5,151.8,595.2
		L151.8,595.2z M134.1,597.4c1,5.1,5.6,8.9,11,8.9s9.9-3.8,11-8.9h11.4c1.2,0,2.2-1,2.2-2.2c0-1.2-1-2.2-2.2-2.2H156
		c-1-5.1-5.6-8.9-11-8.9s-9.9,3.8-11,8.9h-24.9c-1.2,0-2.2,1-2.2,2.2c0,1.2,1,2.2,2.2,2.2H134.1L134.1,597.4z M129.4,617.5
		c0,3.7-3,6.7-6.7,6.7c-3.7,0-6.7-3-6.7-6.7c0-3.7,3-6.7,6.7-6.7C126.4,610.8,129.4,613.8,129.4,617.5L129.4,617.5z M111.7,619.8
		c1,5.1,5.6,8.9,11,8.9c5.4,0,9.9-3.8,11-8.9h33.8c1.2,0,2.2-1,2.2-2.2c0-1.2-1-2.2-2.2-2.2h-33.8c-1-5.1-5.6-8.9-11-8.9
		c-5.4,0-9.9,3.8-11,8.9h-2.5c-1.2,0-2.2,1-2.2,2.2c0,1.2,1,2.2,2.2,2.2H111.7L111.7,619.8z M160.7,639.9c0,3.7-3,6.7-6.7,6.7
		c-3.7,0-6.7-3-6.7-6.7c0-3.7,3-6.7,6.7-6.7C157.7,633.2,160.7,636.2,160.7,639.9L160.7,639.9z M143,642.1c1,5.1,5.6,8.9,11,8.9
		c5.4,0,9.9-3.8,11-8.9h2.5c1.2,0,2.2-1,2.2-2.2c0-1.2-1-2.2-2.2-2.2H165c-1-5.1-5.6-8.9-11-8.9c-5.4,0-9.9,3.8-11,8.9h-33.8
		c-1.2,0-2.2,1-2.2,2.2c0,1.2,1,2.2,2.2,2.2H143L143,642.1z"/>
	<g>
		<g>
			<path class="st10" d="M148,861.6c0.1,0.2,0.3,0.3,0.5,0.5c1.2,1.2,2.4,2.4,3.5,3.6c0.5-0.6,1.4-0.9,2.3-0.7
				c0.8,0.2,1.3,0.9,1.8,1.4c5.8,5.8,11.6,11.6,17.5,17.5c0.5,0.5,1.1,1,1.3,1.9c0.1,0.5,0,1-0.2,1.3c-0.2,0.4-0.5,0.6-0.7,0.9
				c-1.1,1.1-2.1,2.1-3.2,3.2c-0.3,0.3-0.5,0.5-0.9,0.7c-0.3,0.2-0.8,0.3-1.3,0.2c-0.9-0.1-1.4-0.7-1.9-1.3
				c-5.8-5.8-11.6-11.6-17.5-17.5c-0.5-0.5-1.2-1-1.4-1.8c-0.3-0.9,0.1-1.8,0.7-2.3c-1.3-1.4-2.7-2.7-4.1-4.1c-1.4,1.2-3,2.2-4.7,3
				c-2.5,1.3-5.5,2.3-9,2.6c-2.3,0.2-4.6,0.1-6.9-0.3c-5.4-1-9.4-3.3-12.8-6.4c-2.6-2.4-4.8-5.5-6.3-9.1c-0.7-1.8-1.3-3.9-1.6-6.1
				c-0.3-2.3-0.3-5,0.1-7.2c0.7-4.4,2.3-8,4.5-10.9c1.1-1.5,2.3-2.8,3.7-4.1c1.3-1.2,2.8-2.3,4.5-3.2c2.9-1.6,6.2-2.8,10.3-3.2
				c3.3-0.3,6.8,0.1,9.6,1c4.7,1.4,8.3,3.9,11.3,7.1c1.5,1.6,2.8,3.4,3.8,5.4c1.6,3,2.7,6.4,2.9,10.8c0.1,1.4,0,3-0.2,4.3
				c-0.3,2.7-1.1,5-2,7.1C150.6,858.1,149.4,860,148,861.6z M119.6,827.3c-1.1,0.6-2.2,1.2-3.2,1.9c-1,0.7-1.9,1.5-2.7,2.4
				c-1.6,1.7-3,3.7-4,6.1c-1,2.4-1.7,5.2-1.6,8.5c0.1,3.2,0.9,5.8,2,8.1c0.5,1.1,1.2,2.2,1.9,3.1c1.4,1.9,3.1,3.6,5.2,4.9
				c3.1,2,6.8,3.4,11.8,3.3c3.1-0.1,5.9-0.9,8.1-2c2.3-1.1,4.2-2.6,5.9-4.3c0.8-0.8,1.6-1.8,2.2-2.8c2-3,3.4-6.8,3.3-11.8
				c-0.1-3.1-0.9-5.9-2-8.1c-0.8-1.7-1.8-3.2-3-4.6c-0.4-0.4-0.8-0.9-1.2-1.3c-1.8-1.6-3.7-3-6.1-4c-2.3-1-5.3-1.7-8.5-1.5
				C124.5,825.5,121.8,826.2,119.6,827.3z M124.1,828.3c-1.8,0.5-3.3,1.1-4.7,1.9c-1.2,0.7-2.2,1.5-3.2,2.4
				c-0.2,0.2-0.4,0.4-0.5,0.6c-0.4,0.7,0.2,1.5,1.1,1.4c0.3,0,0.5-0.2,0.7-0.4c1-1,2.1-1.8,3.3-2.5c2.4-1.3,5.7-2.3,9.3-1.9
				c2.3,0.2,4.1,0.9,5.7,1.7c0.2,0.1,0.4,0.2,0.6,0.3c0.9,0.2,1.5-0.9,1-1.6c-0.2-0.3-0.7-0.5-1.1-0.7c-1-0.5-2-0.9-3.2-1.2
				c-1.5-0.4-3.4-0.7-5.1-0.6C126.6,827.9,125.3,828,124.1,828.3z"/>
		</g>
	</g>
	<g>
		<circle class="st9" cx="707" cy="153.5" r="9.8"/>
		<line class="st12" x1="707" y1="153.5" x2="1148.7" y2="153.5"/>
		<circle class="st9" cx="1141.5" cy="153.5" r="34.7"/>
	</g>
	<g>
		<circle class="st9" cx="708.8" cy="375.3" r="9.8"/>
		<line class="st12" x1="708.8" y1="375.3" x2="1150.6" y2="375.3"/>
		<circle class="st9" cx="1143.3" cy="375.3" r="34.7"/>
	</g>
	<g>
		<circle class="st9" cx="707.9" cy="618.7" r="9.8"/>
		<line class="st12" x1="707.9" y1="618.7" x2="1149.6" y2="618.7"/>
		<circle class="st9" cx="1142.4" cy="618.7" r="34.7"/>
	</g>
	<g>
		<circle class="st9" cx="708.8" cy="856.2" r="9.8"/>
		<line class="st12" x1="708.8" y1="856.2" x2="1150.6" y2="856.2"/>
		<circle class="st9" cx="1143.3" cy="856.2" r="34.7"/>
	</g>
	<rect x="1114.4" y="127.5" class="st13" width="54.2" height="52"/>
	<text transform="matrix(1 0 0 1 1131.2004 171.3434)" class="st10 st14 st15">1</text>
	<rect x="1116" y="349.3" class="st13" width="54.2" height="52"/>
	<text transform="matrix(1 0 0 1 1127.9287 393.1696)" class="st10 st14 st15">2</text>
	<rect x="1115.3" y="592.7" class="st13" width="54.2" height="52"/>
	<text transform="matrix(1 0 0 1 1126.9766 636.5476)" class="st10 st14 st15">3</text>
	<rect x="1116.2" y="830.2" class="st13" width="54.2" height="52"/>
	<text transform="matrix(1 0 0 1 1127.5525 874.0353)" class="st10 st14 st15">4</text>
</g>
<g id="Text">
	<g>
		<rect x="1201.4" y="70.7" class="st13" width="651.9" height="160"/>
		<text transform="matrix(1 0 0 1 1201.3505 122.8346)"><tspan x="0" y="0" class="st16 st17 st18">Identify </tspan><tspan x="126.8" y="0" class="st16 st19 st18">lots that could be considered </tspan><tspan x="0" y="39.6" class="st16 st19 st18">soft sites</tspan><tspan x="151.9" y="39.6" class="st16 st17 st18"> based on lot size, available </tspan><tspan x="0" y="79.2" class="st16 st17 st18">FAR, and relevant uses</tspan></text>
	</g>
	<g>
		<rect x="1201.4" y="292.5" class="st13" width="626.8" height="160"/>
		<text transform="matrix(1 0 0 1 1201.3505 364.4607)"><tspan x="0" y="0" class="st16 st17 st18">Identify</tspan><tspan x="118.8" y="0" class="st16 st19 st18"> lots that actually experienced </tspan><tspan x="0" y="39.6" class="st16 st19 st18">development </tspan><tspan x="224.5" y="39.6" class="st16 st17 st18">activity</tspan></text>
	</g>
	<g>
		<rect x="1201.4" y="535.9" class="st13" width="651.9" height="160"/>
		<text transform="matrix(1 0 0 1 1201.3505 607.8386)"><tspan x="0" y="0" class="st16 st17 st18">Evaluate</tspan><tspan x="137.1" y="0" class="st16 st19 st18"> how many developed lots </tspan><tspan x="0" y="39.6" class="st16 st19 st18">meet</tspan><tspan x="85.1" y="39.6" class="st16 st17 st18"> the soft site screening criteria  </tspan></text>
	</g>
	<g>
		<rect x="1201.4" y="779.2" class="st13" width="686.4" height="160"/>
		<text transform="matrix(1 0 0 1 1201.3505 811.6171)"><tspan x="0" y="0" class="st16 st17 st18">Compare CEQR estimates against </tspan><tspan x="0" y="39.6" class="st16 st19 st18">site-specific attributes and actual </tspan><tspan x="0" y="79.2" class="st16 st19 st18">development outcomes in select </tspan><tspan x="0" y="118.8" class="st16 st19 st18">rezoning areas</tspan></text>
	</g>
</g>
</svg>
