<?xml version="1.0" encoding="UTF-8"?>
<svg viewBox="0 0 503 240" xmlns="http://www.w3.org/2000/svg">
<defs>
<style>.b{fill:none;}</style>
</defs>
<polygon points="231 122.9 244.3 122.9 237.7 101.2"/>
<path d="M250,.5c-66,0-119.5,53.5-119.5,119.5s53.5,119.5,119.5,119.5,119.5-53.5,119.5-119.5S316,.5,250,.5m-57.3,142.3c-13.7,0-20-6.4-20.7-16.5h10.9c.5,4.5,2.4,8.2,9.8,8.2,5,0,8.3-2.7,8.3-6.7s-2.1-5.4-9.5-6.5c-12.8-1.7-18.1-5.5-18.1-15.2,0-8.5,7.1-14.9,18.2-14.9s17.9,5,18.8,15h-10.4c-.7-4.6-3.4-6.6-8.3-6.6s-7.5,2.3-7.5,5.7c0,3.6,1.6,5.3,9.3,6.4,12.1,1.5,18.3,4.8,18.3,15.2,.1,8.8-7.2,15.9-19.1,15.9m57.4-.8l-3.4-11.1h-18.1l-3.4,11.1h-10.7l16.5-50h14.8l16.2,50h-11.9Zm39.3,0h-13l-16.7-50h12l11.9,38.4,11.8-38.4h10.6l-16.6,50Zm35.1,0h-11.4v-50h11.4v50Z"/>
<rect class="b" x="130" width="240" height="240"/>
</svg>
